{
.appVersion = "3260";
.formatVersion = 3;
DisplayStrings = (
"alis IMINIHHMNHNM"
);
classes = (
{
automatic = 1;

glyphs = (
{
color = 4;
glyphname = A;
kernLeft = KO_A;
kernRight = KO_A;
lastChange = "2024-07-03 10:13:00 +0000";
layers = (
{
anchors = (
{
name = bottom;
pos = (354,0);
},
{
name = ogonek;
pos = (603,0);
},
{
name = top;
pos = (343,690);
}
);
layerId = m01;
shapes = (
{
closed = 1;
nodes = (
(150,75,l),
(198,214,l),
(483,214,l),
(541,75,l),
(641,75,l),
(383,690,l),
(325,690,l),
(67,75,l)
);
},
{
closed = 1;
nodes = (
(159,0,l),
(159,5,l),
(159,5,o),
(135,32,o),
(159,102,c),
(79,102,l),
(50,35,o),
(2,5,o),
(2,5,c),
(2,0,l)
);
},
{
closed = 1;
nodes = (
(706,0,l),
(706,5,l),
(706,5,o),
(658,35,o),
(629,102,c),
(530,102,l),
(559,31,o),
(530,5,o),
(530,5,c),
(530,0,l)
);
},
{
closed = 1;
nodes = (
(328,584,l),
(462,264,l),
(216,264,l)
);
},
{
closed = 1;
nodes = (
(383,609,l),
(383,690,l),
(280,690,l),
(280,684,l),
(280,684,o),
(314,663,o),
(291,609,c)
);
}
);
width = 708;
}
);
metricLeft = V;
metricRight = V;
unicode = 65;
userData = {
KernOnName = A;
};
},
{
color = 9;
glyphname = "Alpha-latin";
lastChange = "2024-07-01 09:08:03 +0000";
layers = (
{
anchors = (
{
name = bottom;
pos = (364,0);
},
{
name = top;
pos = (364,690);
}
);
layerId = m01;
shapes = (
{
closed = 1;
nodes = (
(394,-16,o),
(466,19,o),
(514,81,c),
(520,81,l),
(542,0,o),
(599,-24,o),
(708,0,c),
(708,16,l),
(642,16,o),
(610,54,o),
(610,140,cs),
(610,710,l),
(605,710,l),
(544,649,l),
(496,684,o),
(428,706,o),
(362,706,cs),
(170,706,o),
(35,550,o),
(35,327,cs),
(35,116,o),
(143,-16,o),
(314,-16,cs)
);
},
{
closed = 1;
nodes = (
(141,534,o),
(221,649,o),
(348,649,cs),
(413,649,o),
(469,625,o),
(514,576,c),
(514,139,l),
(471,86,o),
(415,60,o),
(346,60,cs),
(215,60,o),
(141,165,o),
(141,352,cs)
);
}
);
width = 753;
}
);
metricLeft = "=O";
metricRight = "=H";
unicode = 11373;
},
{
color = 9;
glyphname = Astroke;
lastChange = "2024-04-28 02:21:22 +0000";
layers = (
{
layerId = m01;
shapes = (
{
closed = 1;
nodes = (
(532,781,l),
(485,799,l),
(160,-96,l),
(207,-113,l)
);
},
{
ref = A;
}
);
width = 709;
}
);
unicode = 570;
},
{
color = 4;
glyphname = AE;
kernLeft = KO_AE;
kernRight = KO_AE;
lastChange = "2024-07-01 08:51:56 +0000";
layers = (
{
anchors = (
{
name = bottom;
pos = (442,0);
},
{
name = top;
pos = (525,690);
}
);
layerId = m01;
shapes = (
{
closed = 1;
nodes = (
(145,74,l),
(212,217,l),
(462,217,l),
(505,0,l),
(591,44,l),
(474,643,l),
(735,636,l),
(721,690,l),
(390,690,l),
(59,75,l)
);
},
{
closed = 1;
nodes = (
(388,597,l),
(452,267,l),
(235,267,l)
);
},
{
closed = 1;
nodes = (
(150,0,l),
(150,5,l),
(150,5,o),
(125,32,o),
(158,102,c),
(74,102,l),
(37,35,o),
(2,5,o),
(2,5,c),
(2,0,l)
);
},
{
closed = 1;
nodes = (
(683,390,l),
(498,379,l),
(498,336,l),
(683,326,l)
);
},
{
closed = 1;
nodes = (
(715,290,l),
(715,426,l),
(709,426,l),
(709,426,o),
(683,390,o),
(544,382,c),
(544,334,l),
(683,326,o),
(710,290,o),
(710,290,c)
);
},
{
closed = 1;
nodes = (
(591,0,l),
(564,102,l),
(485,100,l),
(499,29,o),
(460,5,o),
(460,5,c),
(460,0,l)
);
},
{
closed = 1;
nodes = (
(438,609,l),
(445,690,l),
(342,690,l),
(342,684,l),
(342,684,o),
(376,664,o),
(347,610,c)
);
},
{
closed = 1;
nodes = (
(800,546,l),
(794,698,l),
(793,698,l),
(793,698,o),
(766,690,o),
(670,690,c),
(630,639,l),
(724,634,o),
(783,571,o),
(794,546,c)
);
},
{
closed = 1;
nodes = (
(767,0,l),
(767,59,l),
(506,43,l),
(506,0,l)
);
},
{
closed = 1;
nodes = (
(807,0,l),
(813,167,l),
(807,167,l),
(798,142,o),
(746,58,o),
(632,51,c),
(672,0,l)
);
}
);
width = 848;
}
);
metricLeft = "=A";
metricRight = "=E";
unicode = 198;
},
{
color = 4;
glyphname = B;
kernLeft = KO_H;
kernRight = KO_B;
lastChange = "2024-07-03 09:35:55 +0000";
layers = (
{
anchors = (
{
name = bottom;
pos = (299,0);
},
{
name = center;
pos = (169,203);
},
{
name = top;
pos = (299,690);
}
);
layerId = m01;
shapes = (
{
closed = 1;
nodes = (
(307,0,l),
(473,0,o),
(577,85,o),
(577,220,cs),
(577,297,o),
(524,354,o),
(433,378,c),
(433,383,l),
(502,409,o),
(540,462,o),
(540,536,cs),
(540,635,o),
(451,690,o),
(292,690,c),
(84,690,l),
(84,0,l)
);
},
{
closed = 1;
nodes = (
(180,0,l),
(180,0,o),
(180,37,o),
(180,110,c),
(84,110,l),
(84,37,o),
(45,5,o),
(45,5,c),
(45,0,l)
);
},
{
closed = 1;
nodes = (
(180,340,l),
(317,340,ls),
(416,340,o),
(472,288,o),
(472,194,cs),
(472,106,o),
(408,50,o),
(307,50,cs),
(180,50,l)
);
},
{
closed = 1;
nodes = (
(180,580,l),
(180,653,o),
(180,690,o),
(180,690,c),
(45,690,l),
(45,685,l),
(45,685,o),
(84,653,o),
(84,580,c)
);
},
{
closed = 1;
nodes = (
(180,640,l),
(282,640,ls),
(386,640,o),
(437,597,o),
(437,510,cs),
(437,433,o),
(392,390,o),
(312,390,cs),
(180,390,l)
);
}
);
width = 612;
}
);
metricLeft = "=H";
metricRight = "=O";
unicode = 66;
},
{
color = 9;
glyphname = "Beta-latin";
lastChange = "2024-07-01 08:52:01 +0000";
layers = (
{
layerId = m01;
shapes = (
{
closed = 1;
nodes = (
(181,-235,l),
(181,0,l),
(308,0,ls),
(474,0,o),
(578,85,o),
(578,220,cs),
(578,297,o),
(525,354,o),
(434,378,c),
(434,383,l),
(503,409,o),
(541,462,o),
(541,536,cs),
(541,635,o),
(452,690,o),
(293,690,cs),
(85,690,l),
(85,-235,l)
);
},
{
closed = 1;
nodes = (
(181,340,l),
(318,340,ls),
(417,340,o),
(473,288,o),
(473,194,cs),
(473,106,o),
(409,50,o),
(308,50,cs),
(181,50,l)
);
},
{
closed = 1;
nodes = (
(181,640,l),
(283,640,ls),
(387,640,o),
(438,597,o),
(438,510,cs),
(438,433,o),
(393,390,o),
(313,390,cs),
(181,390,l)
);
},
{
closed = 1;
nodes = (
(181,580,l),
(181,653,o),
(181,690,o),
(181,690,c),
(46,690,l),
(46,685,l),
(46,685,o),
(85,653,o),
(85,580,c)
);
},
{
closed = 1;
nodes = (
(85,-198,o),
(45,-230,o),
(45,-230,c),
(45,-235,l),
(221,-235,l),
(221,-231,l),
(221,-231,o),
(181,-198,o),
(181,-125,c),
(85,-125,l)
);
}
);
width = 613;
}
);
metricLeft = "=B";
metricRight = "=B";
unicode = 42932;
},
{
color = 9;
glyphname = Bhook;
kernRight = KO_B;
lastChange = "2024-06-27 08:48:17 +0000";
layers = (
{
layerId = m01;
name = Light;
shapes = (
{
closed = 1;
nodes = (
(216,75,l),
(216,16,l),
(216,0,l),
(439,0,ls),
(605,0,o),
(709,85,o),
(709,220,cs),
(709,297,o),
(656,354,o),
(565,378,c),
(565,383,l),
(634,409,o),
(672,462,o),
(672,536,cs),
(672,635,o),
(583,690,o),
(424,690,cs),
(216,690,l)
);
},
{
closed = 1;
nodes = (
(312,340,l),
(449,340,ls),
(548,340,o),
(604,288,o),
(604,194,cs),
(604,106,o),
(540,50,o),
(439,50,cs),
(312,50,l)
);
},
{
closed = 1;
nodes = (
(312,640,l),
(414,640,ls),
(518,640,o),
(569,597,o),
(569,510,cs),
(569,433,o),
(524,390,o),
(444,390,cs),
(312,390,l)
);
},
{
closed = 1;
nodes = (
(312,0,l),
(312,0,o),
(312,37,o),
(312,110,c),
(216,110,l),
(216,37,o),
(177,5,o),
(177,5,c),
(177,0,l)
);
},
{
closed = 1;
nodes = (
(312,640,l),
(312,690,l),
(214,690,l),
(84,690,o),
(2,622,o),
(2,513,cs),
(2,462,o),
(19,422,o),
(57,360,c),
(155,454,l),
(155,460,l),
(120,468,o),
(68,484,o),
(68,532,cs),
(68,595,o),
(129,640,o),
(216,640,c)
);
}
);
width = 744;
}
);
metricLeft = "=V";
metricRight = "=B";
unicode = 385;
},
{
color = 4;
glyphname = C;
kernLeft = KO_O;
kernRight = KO_C;
lastChange = "2024-07-03 09:33:18 +0000";
layers = (
{
anchors = (
{
name = bottom;
pos = (384,0);
},
{
name = top;
pos = (388,690);
}
);
layerId = m01;
name = Light;
shapes = (
{
closed = 1;
nodes = (
(498,-16,o),
(588,55,o),
(614,115,c),
(613,152,l),
(553,69,o),
(478,43,o),
(388,43,cs),
(242,43,o),
(140,171,o),
(140,354,cs),
(140,527,o),
(238,649,o),
(378,649,cs),
(496,649,o),
(543,524,o),
(543,524,c),
(549,524,l),
(629,636,l),
(574,677,o),
(473,706,o),
(386,706,cs),
(189,706,o),
(35,542,o),
(35,333,cs),
(35,119,o),
(170,-16,o),
(384,-16,cs)
);
}
);
width = 664;
}
);
metricLeft = "=O";
metricRight = "=O";
unicode = 67;
userData = {
KernOnName = C;
};
},
{
color = 9;
glyphname = "Chi-latin";
lastChange = "2024-07-01 09:17:49 +0000";
layers = (
{
layerId = m01;
shapes = (
{
closed = 1;
nodes = (
(756,-215,l),
(678,-215,o),
(625,-150,o),
(563,-22,cs),
(438,236,l),
(673,621,l),
(567,617,l),
(413,286,l),
(319,480,ls),
(232,659,o),
(158,719,o),
(29,690,c),
(29,670,l),
(106,670,o),
(160,605,o),
(222,477,cs),
(335,245,l),
(74,-161,l),
(177,-163,l),
(358,197,l),
(466,-25,ls),
(553,-204,o),
(627,-264,o),
(756,-235,c)
);
},
{
closed = 1;
nodes = (
(175,-235,l),
(175,-230,l),
(175,-230,o),
(157,-203,o),
(193,-131,c),
(93,-132,l),
(48,-203,o),
(2,-230,o),
(2,-230,c),
(2,-235,l)
);
},
{
closed = 1;
nodes = (
(653,588,l),
(694,655,o),
(744,685,o),
(744,685,c),
(744,690,l),
(571,690,l),
(571,685,l),
(571,685,o),
(587,661,o),
(554,589,c)
);
}
);
width = 758;
}
);
metricLeft = "=X";
metricRight = "=X";
unicode = 42931;
userData = {
KernOnName = "Chi-latin";
};
},
{
color = 9;
glyphname = Chook;
lastChange = "2024-07-01 10:16:01 +0000";
layers = (
{
layerId = m01;
shapes = (
{
closed = 1;
nodes = (
(242,43,o),
(140,171,o),
(140,354,cs),
(140,527,o),
(246,649,o),
(396,649,cs),
(476,649,o),
(557,606,o),
(606,537,c),
(654,565,l),
(589,632,l),
(540,681,o),
(472,706,o),
(386,706,cs),
(189,706,o),
(35,542,o),
(35,333,cs),
(35,119,o),
(170,-16,o),
(384,-16,cs),
(498,-16,o),
(588,55,o),
(614,115,c),
(613,152,l),
(553,69,o),
(478,43,o),
(388,43,cs)
);
},
{
closed = 1;
nodes = (
(654,565,l),
(624,677,o),
(642,765,o),
(695,765,c),
(748,765,o),
(753,681,o),
(753,681,c),
(758,681,l),
(834,798,l),
(793,817,o),
(750,827,o),
(707,827,cs),
(592,827,o),
(544,726,o),
(597,598,c),
(606,537,l)
);
}
);
width = 836;
}
);
metricLeft = "=C";
metricRight = "=V";
unicode = 391;
userData = {
KernOnName = Chook;
};
},
{
color = 9;
glyphname = Cstroke;
lastChange = "2024-04-27 12:20:03 +0000";
layers = (
{
layerId = m01;
shapes = (
{
ref = C;
},
{
closed = 1;
nodes = (
(542,781,l),
(495,799,l),
(170,-96,l),
(217,-113,l)
);
}
);
width = 694;
}
);
unicode = 571;
},
{
color = 4;
glyphname = D;
kernLeft = KO_H;
kernRight = KO_D;
lastChange = "2024-07-02 10:14:56 +0000";
layers = (
{
anchors = (
{
name = bottom;
pos = (309,0);
},
{
name = center;
pos = (173,354);
},
{
name = top;
pos = (317,690);
}
);
layerId = m01;
shapes = (
{
closed = 1;
nodes = (
(84,0,l),
(297,0,l),
(513,0,o),
(665,147,o),
(665,357,cs),
(665,553,o),
(521,690,o),
(317,690,c),
(84,690,l),
(84,615,l),
(84,75,l)
);
},
{
closed = 1;
nodes = (
(180,640,l),
(307,640,ls),
(462,640,o),
(560,521,o),
(560,331,cs),
(560,151,o),
(466,50,o),
(297,50,cs),
(180,50,l)
);
},
{
closed = 1;
nodes = (
(180,0,l),
(180,0,o),
(180,37,o),
(180,110,c),
(84,110,l),
(84,37,o),
(45,5,o),
(45,5,c),
(45,0,l)
);
},
{
closed = 1;
nodes = (
(180,580,l),
(180,653,o),
(180,690,o),
(180,690,c),
(45,690,l),
(45,685,l),
(45,685,o),
(84,653,o),
(84,580,c)
);
}
);
width = 700;
}
);
metricLeft = "=H";
metricRight = "=O";
unicode = 68;
},
{
color = 9;
glyphname = Dhook;
kernRight = KO_D;
lastChange = "2024-06-27 08:50:51 +0000";
layers = (
{
layerId = m01;
name = Light;
shapes = (
{
closed = 1;
nodes = (
(429,0,ls),
(645,0,o),
(797,147,o),
(797,357,cs),
(797,553,o),
(653,690,o),
(449,690,cs),
(214,690,l),
(216,640,l),
(439,640,ls),
(594,640,o),
(692,521,o),
(692,331,cs),
(692,151,o),
(598,50,o),
(429,50,cs),
(284,50,l),
(284,0,l)
);
},
{
closed = 1;
nodes = (
(312,0,l),
(312,690,l),
(216,667,l),
(216,0,l)
);
},
{
closed = 1;
nodes = (
(312,640,l),
(312,690,l),
(214,690,l),
(84,690,o),
(2,622,o),
(2,513,cs),
(2,462,o),
(19,422,o),
(57,360,c),
(155,454,l),
(155,460,l),
(120,468,o),
(68,484,o),
(68,532,cs),
(68,595,o),
(129,640,o),
(216,640,c)
);
},
{
closed = 1;
nodes = (
(312,0,l),
(312,0,o),
(312,37,o),
(312,110,c),
(216,110,l),
(216,37,o),
(177,5,o),
(177,5,c),
(177,0,l)
);
}
);
width = 832;
}
);
metricLeft = "=V";
metricRight = "=D";
unicode = 394;
},
{
color = 4;
glyphname = E;
kernLeft = KO_H;
kernRight = KO_E;
lastChange = "2024-07-03 15:21:51 +0000";
layers = (
{
anchors = (
{
name = bottom;
pos = (285,0);
},
{
name = ogonek;
pos = (430,0);
},
{
name = top;
pos = (285,690);
},
{
name = topleft;
pos = (-5,690);
}
);
layerId = m01;
shapes = (
{
closed = 1;
nodes = (
(180,690,l),
(84,615,l),
(84,75,l),
(180,0,l)
);
},
{
closed = 1;
nodes = (
(180,0,l),
(180,0,o),
(180,38,o),
(180,110,c),
(84,110,l),
(84,38,o),
(45,5,o),
(45,5,c),
(45,0,l)
);
},
{
closed = 1;
nodes = (
(423,0,l),
(423,59,l),
(162,43,l),
(162,0,l)
);
},
{
closed = 1;
nodes = (
(463,0,l),
(469,167,l),
(463,167,l),
(454,142,o),
(402,58,o),
(288,51,c),
(328,0,l)
);
},
{
closed = 1;
nodes = (
(338,388,l),
(153,377,l),
(153,334,l),
(338,324,l)
);
},
{
closed = 1;
nodes = (
(370,288,l),
(370,424,l),
(364,424,l),
(364,424,o),
(338,388,o),
(199,380,c),
(199,332,l),
(338,324,o),
(365,288,o),
(365,288,c)
);
},
{
closed = 1;
nodes = (
(180,580,l),
(180,653,o),
(180,690,o),
(180,690,c),
(45,690,l),
(45,685,l),
(45,685,o),
(84,653,o),
(84,580,c)
);
},
{
closed = 1;
nodes = (
(423,690,l),
(162,690,l),
(162,647,l),
(423,631,l)
);
},
{
closed = 1;
nodes = (
(457,546,l),
(451,698,l),
(450,698,l),
(450,698,o),
(423,690,o),
(327,690,c),
(287,639,l),
(381,634,o),
(440,571,o),
(451,546,c)
);
}
);
width = 504;
}
);
metricLeft = "=H";
metricRight = "=O";
unicode = 69;
userData = {
KernOnName = E;
};
},
{
color = 9;
glyphname = Eopen;
kernRight = KO_T;
lastChange = "2024-06-29 21:23:43 +0000";
layers = (
{
anchors = (
{
name = bottom;
pos = (307,0);
},
{
name = top;
pos = (307,690);
}
);
layerId = m01;
shapes = (
{
closed = 1;
nodes = (
(427,-16,o),
(517,55,o),
(543,115,c),
(542,152,l),
(482,69,o),
(407,43,o),
(317,43,cs),
(224,43,o),
(138,104,o),
(138,191,cs),
(138,284,o),
(206,343,o),
(314,343,cs),
(368,343,l),
(368,395,l),
(314,395,ls),
(228,395,o),
(160,455,o),
(160,531,cs),
(160,603,o),
(209,649,o),
(287,649,cs),
(404,649,o),
(452,524,o),
(452,524,c),
(458,524,l),
(538,636,l),
(483,677,o),
(382,706,o),
(283,706,cs),
(150,706,o),
(57,638,o),
(57,541,cs),
(57,460,o),
(105,405,o),
(195,381,c),
(195,376,l),
(94,351,o),
(35,290,o),
(35,207,cs),
(35,64,o),
(148,-16,o),
(313,-16,cs)
);
}
);
width = 578;
}
);
metricLeft = "=C";
metricRight = "=C";
unicode = 400;
},
{
color = 9;
glyphname = Esh;
lastChange = "2024-06-29 21:21:43 +0000";
layers = (
{
layerId = m01;
shapes = (
{
closed = 1;
nodes = (
(530,0,l),
(530,84,l),
(160,84,l),
(389,373,l),
(389,386,l),
(193,620,l),
(507,620,l),
(609,690,l),
(45,690,l),
(35,679,l),
(305,355,l),
(35,10,l),
(45,0,l)
);
},
{
closed = 1;
nodes = (
(621,527,l),
(609,690,l),
(608,690,l),
(608,690,o),
(581,690,o),
(485,690,c),
(448,620,l),
(542,620,o),
(601,552,o),
(612,527,c)
);
},
{
closed = 1;
nodes = (
(629,0,l),
(642,167,l),
(633,167,l),
(624,142,o),
(607,91,o),
(493,84,c),
(494,0,l)
);
}
);
width = 677;
}
);
metricLeft = "=o";
metricRight = "=o";
unicode = 425;
},
{
color = 9;
glyphname = Estroke;
lastChange = "2024-04-27 12:19:56 +0000";
layers = (
{
layerId = m01;
shapes = (
{
ref = E;
},
{
closed = 1;
nodes = (
(504,781,l),
(457,799,l),
(132,-96,l),
(179,-113,l)
);
}
);
width = 619;
}
);
unicode = 582;
},
{
color = 4;
glyphname = Schwa;
kernRight = KO_O;
lastChange = "2024-06-27 09:05:57 +0000";
layers = (
{
anchors = (
{
name = bottom;
pos = (342,0);
},
{
name = top;
pos = (342,690);
}
);
layerId = m01;
shapes = (
{
closed = 1;
nodes = (
(503,-16,o),
(649,148,o),
(649,357,cs),
(649,571,o),
(518,706,o),
(310,706,cs),
(212,706,o),
(103,677,o),
(47,636,c),
(125,524,l),
(131,524,l),
(131,524,o),
(179,649,o),
(306,649,cs),
(453,649,o),
(545,528,o),
(545,336,cs),
(545,163,o),
(455,41,o),
(326,41,cs),
(224,41,o),
(144,141,o),
(144,269,c),
(563,282,l),
(563,325,l),
(35,325,l),
(35,116,o),
(144,-16,o),
(318,-16,cs)
);
}
);
width = 684;
}
);
metricLeft = "=O";
metricRight = "=O";
unicode = 399;
},
{
color = 9;
glyphname = Ezh;
lastChange = "2024-06-29 21:23:49 +0000";
layers = (
{
anchors = (
{
name = bottom;
pos = (309,0);
},
{
name = top;
pos = (309,690);
}
);
layerId = m01;
shapes = (
{
closed = 1;
nodes = (
(456,-16,o),
(573,76,o),
(573,207,cs),
(573,310,o),
(492,373,o),
(343,387,c),
(574,680,l),
(566,690,l),
(83,690,l),
(185,620,l),
(459,620,l),
(249,352,l),
(257,343,l),
(279,343,l),
(391,343,o),
(470,280,o),
(470,191,cs),
(470,105,o),
(391,37,o),
(290,37,cs),
(164,37,o),
(116,176,o),
(116,176,c),
(110,176,l),
(35,60,l),
(103,11,o),
(194,-16,o),
(290,-16,cs)
);
},
{
closed = 1;
nodes = (
(91,552,o),
(150,620,o),
(244,620,c),
(207,690,l),
(111,690,o),
(84,690,o),
(84,690,c),
(83,690,l),
(74,527,l),
(80,527,l)
);
}
);
width = 609;
}
);
metricLeft = "=three";
metricRight = "=three";
unicode = 439;
},
{
color = 9;
glyphname = Ezhreversed;
lastChange = "2024-06-29 21:23:53 +0000";
layers = (
{
anchors = (
{
name = bottom;
pos = (299,0);
},
{
name = top;
pos = (299,690);
}
);
background = {
shapes = (
{
closed = 0;
nodes = (
(313,-16,l),
(427,-16,o),
(517,55,o),
(543,115,c),
(542,152,l),
(482,69,o),
(407,43,o),
(317,43,cs)
);
}
);
};
layerId = m01;
shapes = (
{
closed = 1;
nodes = (
(427,-16,o),
(517,55,o),
(543,115,c),
(542,152,l),
(482,69,o),
(407,43,o),
(317,43,cs),
(217,43,o),
(138,104,o),
(138,191,cs),
(138,284,o),
(206,343,o),
(314,343,cs),
(347,343,l),
(355,353,l),
(167,620,l),
(413,620,l),
(515,690,l),
(62,690,l),
(54,679,l),
(266,388,l),
(123,376,o),
(35,308,o),
(35,207,cs),
(35,64,o),
(149,-16,o),
(313,-16,cs)
);
},
{
closed = 1;
nodes = (
(524,527,l),
(515,690,l),
(514,690,l),
(514,690,o),
(487,690,o),
(391,690,c),
(354,620,l),
(448,620,o),
(507,552,o),
(518,527,c)
);
}
);
width = 578;
}
);
metricLeft = "=three";
metricRight = "=three";
unicode = 440;
},
{
color = 4;
glyphname = F;
kernLeft = KO_H;
kernRight = KO_F;
lastChange = "2024-07-03 09:24:20 +0000";
layers = (
{
anchors = (
{
name = bottom;
pos = (272,0);
},
{
name = top;
pos = (272,690);
}
);
layerId = m01;
shapes = (
{
closed = 1;
nodes = (
(181,75,l),
(181,690,l),
(85,615,l),
(85,75,l)
);
},
{
closed = 1;
nodes = (
(230,0,l),
(230,4,l),
(230,4,o),
(181,37,o),
(181,110,c),
(85,110,l),
(85,37,o),
(45,5,o),
(45,5,c),
(45,0,l)
);
},
{
closed = 1;
nodes = (
(343,376,l),
(158,365,l),
(158,322,l),
(343,312,l)
);
},
{
closed = 1;
nodes = (
(365,276,l),
(365,412,l),
(358,412,l),
(358,412,o),
(333,375,o),
(193,367,c),
(193,320,l),
(333,313,o),
(360,276,o),
(360,276,c)
);
},
{
closed = 1;
nodes = (
(181,580,l),
(181,653,o),
(181,690,o),
(181,690,c),
(45,690,l),
(45,685,l),
(45,685,o),
(85,653,o),
(85,580,c)
);
},
{
closed = 1;
nodes = (
(414,690,l),
(163,690,l),
(163,647,l),
(414,631,l)
);
},
{
closed = 1;
nodes = (
(443,546,l),
(437,698,l),
(436,698,l),
(436,698,o),
(409,690,o),
(313,690,c),
(273,640,l),
(367,634,o),
(425,571,o),
(437,546,c)
);
}
);
width = 478;
}
);
metricLeft = "=H";
metricRight = "=O";
unicode = 70;
},
{
color = 4;
glyphname = G;
kernLeft = KO_O;
kernRight = KO_G;
lastChange = "2024-07-03 09:50:37 +0000";
layers = (
{
anchors = (
{
name = bottom;
pos = (368,0);
},
{
name = top;
pos = (384,690);
}
);
layerId = m01;
name = Light;
shapes = (
{
closed = 1;
nodes = (
(643,-21,l),
(647,-21,l),
(647,222,ls),
(647,295,o),
(687,327,o),
(687,327,c),
(687,332,l),
(502,332,l),
(502,328,l),
(502,328,o),
(551,295,o),
(551,222,cs),
(551,59,l)
);
},
{
closed = 1;
nodes = (
(551,102,l),
(521,64,o),
(465,43,o),
(388,43,cs),
(242,43,o),
(140,171,o),
(140,354,cs),
(140,527,o),
(238,649,o),
(378,649,cs),
(509,649,o),
(550,546,o),
(557,526,c),
(563,526,l),
(644,639,l),
(589,678,o),
(482,706,o),
(386,706,cs),
(189,706,o),
(35,542,o),
(35,333,cs),
(35,119,o),
(170,-16,o),
(384,-16,cs),
(464,-16,o),
(523,6,o),
(562,49,c)
);
}
);
width = 732;
}
);
metricLeft = "=O";
metricRight = "=H";
unicode = 71;
userData = {
KernOnName = G;
};
},
{
color = 9;
glyphname = Ghook;
kernLeft = KO_O;
lastChange = "2024-07-01 10:15:57 +0000";
layers = (
{
layerId = m01;
shapes = (
{
closed = 1;
nodes = (
(748,765,o),
(753,681,o),
(753,681,c),
(758,681,l),
(834,798,l),
(793,817,o),
(750,827,o),
(707,827,cs),
(592,827,o),
(544,726,o),
(597,598,c),
(589,632,l),
(540,681,o),
(472,706,o),
(386,706,cs),
(189,706,o),
(35,542,o),
(35,333,cs),
(35,119,o),
(170,-16,o),
(384,-16,cs),
(518,-16,o),
(594,45,o),
(613,167,c),
(578,187,l),
(578,95,o),
(510,43,o),
(388,43,cs),
(242,43,o),
(140,171,o),
(140,354,cs),
(140,527,o),
(246,649,o),
(396,649,cs),
(476,649,o),
(557,606,o),
(606,537,c),
(654,565,l),
(624,677,o),
(642,765,o),
(695,765,c)
);
},
{
closed = 1;
nodes = (
(647,-16,l),
(647,257,l),
(551,252,l),
(550,64,l),
(643,-16,l)
);
},
{
closed = 1;
nodes = (
(647,295,o),
(687,327,o),
(687,327,c),
(687,332,l),
(502,332,l),
(502,328,l),
(502,328,o),
(551,295,o),
(551,222,c),
(647,222,l)
);
}
);
width = 836;
}
);
metricLeft = "=G";
metricRight = "=V";
unicode = 403;
userData = {
KernOnName = Ghook;
};
},
{
color = 9;
glyphname = Glottalstopsmall;
lastChange = "2024-06-27 09:45:47 +0000";
layers = (
{
layerId = m01;
shapes = (
{
closed = 1;
nodes = (
(288,412,o),
(502,371,o),
(502,539,c),
(502,642,o),
(414,706,o),
(273,706,cs),
(189,706,o),
(91,677,o),
(35,636,c),
(113,524,l),
(119,524,l),
(119,524,o),
(160,649,o),
(262,649,cs),
(344,649,o),
(402,606,o),
(402,544,cs),
(402,422,o),
(195,466,o),
(195,206,cs),
(195,75,l),
(288,75,l),
(288,217,ls)
);
},
{
closed = 1;
nodes = (
(195,37,o),
(155,5,o),
(155,5,c),
(155,0,l),
(328,0,l),
(328,4,l),
(328,4,o),
(288,37,o),
(288,110,c),
(195,110,l)
);
}
);
width = 537;
}
);
metricLeft = "=question";
metricRight = "=question";
unicode = 577;
},
{
color = 4;
glyphname = H;
kernLeft = KO_H;
kernRight = KO_H;
lastChange = "2024-07-03 17:03:53 +0000";
layers = (
{
anchors = (
{
name = bottom;
pos = (354,0);
},
{
name = center;
pos = (354,509);
},
{
name = top;
pos = (354,690);
},
{
name = topleft;
pos = (-4,690);
}
);
layerId = m01;
shapes = (
{
closed = 1;
nodes = (
(623,0,l),
(623,690,l),
(527,690,l),
(527,386,l),
(181,386,l),
(181,690,l),
(85,690,l),
(85,0,l),
(181,0,l),
(181,331,l),
(527,331,l),
(527,0,l)
);
},
{
closed = 1;
nodes = (
(181,580,l),
(181,653,o),
(221,686,o),
(221,686,c),
(221,690,l),
(45,690,l),
(45,685,l),
(45,685,o),
(85,653,o),
(85,580,c)
);
},
{
closed = 1;
nodes = (
(623,580,l),
(623,653,o),
(663,686,o),
(663,686,c),
(663,690,l),
(487,690,l),
(487,685,l),
(487,685,o),
(527,653,o),
(527,580,c)
);
},
{
closed = 1;
nodes = (
(527,37,o),
(487,5,o),
(487,5,c),
(487,0,l),
(663,0,l),
(663,4,l),
(663,4,o),
(623,37,o),
(623,110,c),
(527,110,l)
);
},
{
closed = 1;
nodes = (
(85,37,o),
(45,5,o),
(45,5,c),
(45,0,l),
(221,0,l),
(221,4,l),
(221,4,o),
(181,37,o),
(181,110,c),
(85,110,l)
);
}
);
width = 708;
}
);
metricRight = "=|";
unicode = 72;
userData = {
KernOnName = H;
};
},
{
color = 9;
glyphname = Heng;
lastChange = "2024-06-29 21:24:17 +0000";
layers = (
{
layerId = m01;
shapes = (
{
closed = 1;
nodes = (
(532,-251,o),
(623,-163,o),
(623,-38,cs),
(623,615,l),
(527,615,l),
(527,386,l),
(181,386,l),
(181,615,l),
(85,615,l),
(85,75,l),
(181,75,l),
(181,331,l),
(527,331,l),
(527,-42,ls),
(527,-137,o),
(483,-197,o),
(414,-197,cs),
(337,-197,o),
(300,-97,o),
(293,-48,c),
(287,-48,l),
(210,-166,l),
(244,-207,o),
(319,-251,o),
(402,-251,cs)
);
},
{
closed = 1;
nodes = (
(181,580,l),
(181,653,o),
(221,686,o),
(221,686,c),
(221,690,l),
(45,690,l),
(45,685,l),
(45,685,o),
(85,653,o),
(85,580,c)
);
},
{
closed = 1;
nodes = (
(623,580,l),
(623,653,o),
(663,686,o),
(663,686,c),
(663,690,l),
(487,690,l),
(487,685,l),
(487,685,o),
(527,653,o),
(527,580,c)
);
},
{
closed = 1;
nodes = (
(85,37,o),
(45,5,o),
(45,5,c),
(45,0,l),
(221,0,l),
(221,4,l),
(221,4,o),
(181,37,o),
(181,110,c),
(85,110,l)
);
}
);
width = 708;
}
);
metricLeft = "=H";
metricRight = "=H";
unicode = 42790;
},
{
color = 9;
glyphname = Hhook;
kernRight = KO_H;
lastChange = "2024-06-29 21:24:17 +0000";
layers = (
{
layerId = m01;
shapes = (
{
closed = 1;
nodes = (
(754,0,l),
(754,690,l),
(658,690,l),
(658,386,l),
(312,386,l),
(312,690,l),
(216,690,l),
(216,0,l),
(312,0,l),
(312,331,l),
(658,331,l),
(658,0,l)
);
},
{
closed = 1;
nodes = (
(312,580,l),
(312,653,o),
(352,686,o),
(352,686,c),
(352,690,l),
(176,690,l),
(176,685,l),
(176,685,o),
(216,653,o),
(216,580,c)
);
},
{
closed = 1;
nodes = (
(754,580,l),
(754,653,o),
(794,686,o),
(794,686,c),
(794,690,l),
(618,690,l),
(618,685,l),
(618,685,o),
(658,653,o),
(658,580,c)
);
},
{
closed = 1;
nodes = (
(658,37,o),
(618,5,o),
(618,5,c),
(618,0,l),
(794,0,l),
(794,4,l),
(794,4,o),
(754,37,o),
(754,110,c),
(658,110,l)
);
},
{
closed = 1;
nodes = (
(216,37,o),
(176,5,o),
(176,5,c),
(176,0,l),
(352,0,l),
(352,4,l),
(352,4,o),
(312,37,o),
(312,110,c),
(216,110,l)
);
},
{
closed = 1;
nodes = (
(312,640,l),
(312,690,l),
(214,690,l),
(84,690,o),
(2,622,o),
(2,513,cs),
(2,462,o),
(19,422,o),
(57,360,c),
(155,454,l),
(155,460,l),
(120,468,o),
(68,484,o),
(68,532,cs),
(68,595,o),
(129,640,o),
(216,640,c)
);
}
);
width = 839;
}
);
metricLeft = "=V";
metricRight = "=H";
unicode = 42922;
},
{
color = 9;
glyphname = Hturned;
kernRight = KO_H;
lastChange = "2024-06-29 21:24:17 +0000";
layers = (
{
layerId = m01;
shapes = (
{
closed = 1;
nodes = (
(82,587,l),
(82,439,l),
(82,318,o),
(137,258,o),
(234,258,c),
(268,258,o),
(295,266,o),
(319,281,c),
(383,359,l),
(383,399,l),
(383,399,o),
(339,332,o),
(276,332,c),
(216,332,o),
(172,368,o),
(172,463,c),
(172,587,l)
);
},
{
closed = 1;
nodes = (
(346,690,l),
(346,686,l),
(346,686,o),
(383,655,o),
(383,587,c),
(473,587,l),
(473,655,o),
(510,685,o),
(510,685,c),
(510,690,l)
);
},
{
closed = 1;
nodes = (
(45,690,l),
(45,686,l),
(45,686,o),
(82,655,o),
(82,587,c),
(172,587,l),
(172,655,o),
(209,685,o),
(209,685,c),
(209,690,l)
);
},
{
closed = 1;
nodes = (
(383,587,l),
(383,587,o),
(378,75,o),
(378,75,c),
(378,75,o),
(473,48,o),
(473,92,c),
(473,587,l)
);
},
{
closed = 1;
nodes = (
(511,0,l),
(511,4,l),
(511,4,o),
(474,35,o),
(474,103,c),
(378,103,l),
(378,35,o),
(341,5,o),
(341,5,c),
(341,0,l)
);
}
);
width = 556;
}
);
metricLeft = "=H";
metricRight = "=H";
unicode = 42893;
},
{
color = 4;
glyphname = I;
kernLeft = KO_H;
kernRight = KO_H;
lastChange = "2024-07-03 09:38:01 +0000";
layers = (
{
anchors = (
{
name = bottom;
pos = (133,0);
},
{
name = ogonek;
pos = (155,0);
},
{
name = top;
pos = (133,690);
},
{
name = topleft;
pos = (-4,690);
}
);
layerId = m01;
shapes = (
{
closed = 1;
nodes = (
(221,0,l),
(221,4,l),
(221,4,o),
(181,37,o),
(181,110,cs),
(181,580,ls),
(181,653,o),
(221,686,o),
(221,686,c),
(221,690,l),
(45,690,l),
(45,685,l),
(45,685,o),
(85,653,o),
(85,580,cs),
(85,110,ls),
(85,37,o),
(45,5,o),
(45,5,c),
(45,0,l)
);
}
);
width = 266;
}
);
metricLeft = "=H";
metricRight = "=H";
unicode = 73;
},
{
color = 9;
glyphname = "Iota-latin";
lastChange = "2024-06-29 21:24:19 +0000";
layers = (
{
anchors = (
{
name = bottom;
pos = (143,0);
},
{
name = top;
pos = (143,690);
}
);
layerId = m01;
shapes = (
{
closed = 1;
nodes = (
(279,16,l),
(216,16,o),
(181,51,o),
(181,120,cs),
(181,580,ls),
(181,653,o),
(221,686,o),
(221,686,c),
(221,690,l),
(45,690,l),
(45,685,l),
(45,685,o),
(85,653,o),
(85,580,cs),
(85,113,ls),
(85,13,o),
(155,-27,o),
(279,0,c)
);
}
);
width = 324;
}
);
metricLeft = "=I";
metricRight = "=I";
unicode = 406;
},
{
color = 9;
glyphname = Istroke;
lastChange = "2024-04-27 13:30:07 +0000";
layers = (
{
layerId = m01;
shapes = (
{
ref = I;
},
{
closed = 1;
nodes = (
(284,333,l),
(284,388,l),
(30,388,l),
(30,333,l)
);
}
);
width = 314;
}
);
unicode = 407;
},
{
color = 4;
glyphname = J;
kernLeft = KO_J;
kernRight = KO_J;
lastChange = "2024-07-03 09:27:54 +0000";
layers = (
{
anchors = (
{
name = bottom;
pos = (239,0);
},
{
name = top;
pos = (382,690);
}
);
layerId = m01;
name = Light;
shapes = (
{
closed = 1;
nodes = (
(370,-16,o),
(428,89,o),
(428,197,c),
(428,615,l),
(332,615,l),
(332,193,l),
(332,83,o),
(283,38,o),
(232,38,c),
(155,38,o),
(126,148,o),
(119,197,c),
(113,197,l),
(36,79,l),
(70,38,o),
(140,-16,o),
(223,-16,c)
);
},
{
closed = 1;
nodes = (
(428,580,l),
(428,653,o),
(468,686,o),
(468,686,cs),
(468,690,l),
(292,690,l),
(292,685,l),
(292,685,o),
(332,653,o),
(332,580,c)
);
}
);
width = 513;
}
);
metricLeft = "=H*0.8";
metricRight = "=H";
unicode = 74;
},
{
color = 9;
glyphname = Jcrossedtail;
lastChange = "2024-06-29 21:24:21 +0000";
layers = (
{
layerId = m01;
shapes = (
{
closed = 1;
nodes = (
(272,-187,o),
(317,-112,o),
(317,85,cs),
(317,580,ls),
(317,653,o),
(357,686,o),
(357,686,c),
(357,690,l),
(181,690,l),
(181,685,l),
(181,685,o),
(221,653,o),
(221,580,cs),
(221,-17,ls),
(221,-98,o),
(202,-133,o),
(157,-133,cs),
(120,-133,o),
(97,-112,o),
(97,-78,cs),
(97,-42,o),
(124,-24,o),
(177,-24,cs),
(264,-24,o),
(332,-67,o),
(355,-129,c),
(372,-123,l),
(352,-21,o),
(282,30,o),
(177,30,cs),
(90,30,o),
(35,-12,o),
(35,-78,cs),
(35,-148,o),
(78,-187,o),
(155,-187,cs)
);
}
);
width = 374;
}
);
metricLeft = "=O";
metricRight = "=V";
unicode = 42930;
userData = {
KernOnName = Jcrossedtail;
};
},
{
color = 4;
glyphname = K;
kernLeft = KO_H;
kernRight = KO_K;
lastChange = "2024-06-29 20:51:47 +0000";
layers = (
{
anchors = (
{
name = bottom;
pos = (327,0);
},
{
name = top;
pos = (327,690);
}
);
layerId = m01;
shapes = (
{
closed = 1;
nodes = (
(631,0,l),
(631,5,l),
(631,5,o),
(589,35,o),
(542,102,cs),
(303,445,l),
(235,382,l),
(430,102,ls),
(477,35,o),
(430,5,o),
(430,5,c),
(430,0,l)
);
},
{
closed = 1;
nodes = (
(220,0,l),
(220,4,l),
(220,4,o),
(180,37,o),
(180,110,cs),
(180,580,ls),
(180,653,o),
(220,686,o),
(220,686,c),
(220,690,l),
(45,690,l),
(45,685,l),
(45,685,o),
(84,653,o),
(84,580,cs),
(84,110,ls),
(84,37,o),
(45,5,o),
(45,5,c),
(45,0,l)
);
},
{
closed = 1;
nodes = (
(451,570,ls),
(535,649,o),
(607,685,o),
(607,685,c),
(607,690,l),
(423,690,l),
(423,686,l),
(423,686,o),
(421,651,o),
(352,571,cs),
(132,317,l),
(132,269,l)
);
}
);
width = 633;
}
);
metricLeft = "=H";
metricRight = "=V";
unicode = 75;
},
{
color = 9;
glyphname = Khook;
kernLeft = KO_H;
lastChange = "2024-07-01 10:37:50 +0000";
layers = (
{
layerId = m01;
shapes = (
{
closed = 1;
nodes = (
(510,593,ls),
(537,618,o),
(556,632,o),
(591,632,cs),
(633,632,o),
(653,561,o),
(653,561,c),
(658,561,l),
(714,677,l),
(673,696,o),
(632,706,o),
(591,706,cs),
(521,706,o),
(478,672,o),
(414,597,cs),
(172,317,l),
(172,269,l)
);
},
{
closed = 1;
nodes = (
(299,0,l),
(299,16,l),
(220,75,l),
(220,615,l),
(299,674,l),
(299,690,l),
(45,690,l),
(45,674,l),
(124,615,l),
(124,75,l),
(45,16,l),
(45,0,l)
);
},
{
closed = 1;
nodes = (
(671,0,l),
(671,5,l),
(671,5,o),
(629,35,o),
(582,102,cs),
(343,445,l),
(275,382,l),
(470,102,ls),
(517,35,o),
(470,5,o),
(470,5,c),
(470,0,l)
);
},
{
closed = 1;
nodes = (
(260,0,l),
(260,4,l),
(260,4,o),
(220,37,o),
(220,110,cs),
(220,580,ls),
(220,653,o),
(260,686,o),
(260,686,c),
(260,690,l),
(85,690,l),
(85,685,l),
(85,685,o),
(124,653,o),
(124,580,cs),
(124,110,ls),
(124,37,o),
(85,5,o),
(85,5,c),
(85,0,l)
);
}
);
width = 716;
}
);
metricLeft = "=K";
metricRight = "=K";
unicode = 408;
},
{
color = 4;
glyphname = L;
kernLeft = KO_H;
kernRight = KO_L;
lastChange = "2024-07-03 10:01:20 +0000";
layers = (
{
anchors = (
{
name = bottom;
pos = (274,0);
},
{
name = center;
pos = (132,335);
},
{
name = top;
pos = (134,690);
},
{
name = topright;
pos = (299,690);
}
);
layerId = m01;
shapes = (
{
closed = 1;
nodes = (
(180,580,ls),
(180,653,o),
(230,686,o),
(230,686,c),
(230,690,l),
(45,690,l),
(45,685,l),
(45,685,o),
(84,653,o),
(84,580,cs),
(84,110,ls),
(84,37,o),
(45,5,o),
(45,5,c),
(45,0,l),
(180,0,l)
);
},
{
closed = 1;
nodes = (
(423,0,l),
(423,59,l),
(162,43,l),
(162,0,l)
);
},
{
closed = 1;
nodes = (
(463,0,l),
(469,167,l),
(463,167,l),
(454,142,o),
(402,58,o),
(288,51,c),
(328,0,l)
);
}
);
width = 504;
}
);
metricLeft = "=H";
metricRight = "=O";
unicode = 76;
userData = {
KernOnName = L;
};
},
{
color = 9;
glyphname = Lbelt;
kernRight = KO_L;
lastChange = "2024-05-29 13:54:27 +0000";
layers = (
{
layerId = m01;
shapes = (
{
closed = 1;
nodes = (
(452,259,l),
(452,314,l),
(138,314,ls),
(86,314,o),
(57,335,o),
(57,373,cs),
(57,406,o),
(83,432,o),
(116,432,cs),
(149,432,o),
(175,406,o),
(175,373,c),
(230,373,l),
(230,436,o),
(179,487,o),
(116,487,cs),
(53,487,o),
(2,436,o),
(2,373,cs),
(2,303,o),
(54,259,o),
(138,259,cs)
);
},
{
pos = (66,0);
ref = L;
}
);
width = 570;
}
);
metricLeft = "=V";
metricRight = "=L";
unicode = 42925;
userData = {
KernOnName = Lbelt;
};
},
{
glyphname = Ldot;
kernLeft = KO_H;
lastChange = "2024-05-29 13:52:14 +0000";
layers = (
{
layerId = m01;
shapes = (
{
ref = L;
},
{
closed = 1;
nodes = (
(500,273,o),
(531,303,o),
(531,345,cs),
(531,387,o),
(500,417,o),
(455,417,cs),
(410,417,o),
(379,387,o),
(379,345,cs),
(379,303,o),
(410,273,o),
(455,273,cs)
);
}
);
width = 598;
}
);
metricLeft = "=L";
unicode = 319;
userData = {
KernOnSpecialSpacing = {
R = NoKerning;
};
};
},
{
color = 4;
glyphname = M;
kernLeft = KO_M;
kernRight = KO_M;
lastChange = "2024-07-03 17:03:10 +0000";
layers = (
{
anchors = (
{
name = bottom;
pos = (403,0);
},
{
name = top;
pos = (431,690);
}
);
layerId = m01;
shapes = (
{
closed = 1;
nodes = (
(429,0,l),
(715,690,l),
(635,690,l),
(432,117,l),
(449,117,l),
(206,690,l),
(102,690,l),
(394,0,l)
);
},
{
closed = 1;
nodes = (
(160,0,l),
(160,4,l),
(160,4,o),
(115,37,o),
(119,110,c),
(51,110,l),
(44,37,o),
(2,5,o),
(2,5,c),
(2,0,l)
);
},
{
closed = 1;
nodes = (
(117,75,l),
(150,690,l),
(99,627,l),
(47,75,l)
);
},
{
closed = 1;
nodes = (
(144,580,l),
(150,690,l),
(67,690,l),
(67,685,l),
(67,685,o),
(102,654,o),
(95,580,c)
);
},
{
closed = 1;
nodes = (
(860,0,l),
(860,5,l),
(860,5,o),
(818,37,o),
(811,110,c),
(714,110,l),
(721,37,o),
(674,4,o),
(674,4,c),
(674,0,l)
);
},
{
closed = 1;
nodes = (
(814,75,l),
(768,615,l),
(664,690,l),
(717,75,l)
);
},
{
closed = 1;
nodes = (
(771,580,l),
(765,654,o),
(799,685,o),
(799,685,c),
(799,690,l),
(699,690,l),
(705,580,l)
);
}
);
width = 862;
}
);
metricLeft = "=V";
metricRight = "=V";
unicode = 77;
},
{
color = 9;
glyphname = Mturned;
lastChange = "2024-07-01 12:51:48 +0000";
layers = (
{
layerId = m01;
shapes = (
{
closed = 1;
nodes = (
(261,-12,o),
(299,-2,o),
(332,14,c),
(417,95,l),
(430,95,l),
(430,168,l),
(391,100,o),
(330,62,o),
(259,62,cs),
(174,62,o),
(137,105,o),
(137,203,cs),
(137,615,l),
(41,615,l),
(41,176,ls),
(41,66,o),
(117,-12,o),
(224,-12,cs)
);
},
{
closed = 1;
nodes = (
(461,113,l),
(461,278,l),
(402,278,l),
(402,113,l)
);
},
{
closed = 1;
nodes = (
(137,580,l),
(137,653,o),
(177,686,o),
(177,686,c),
(177,690,l),
(2,690,l),
(2,685,l),
(2,685,o),
(41,653,o),
(41,580,c)
);
},
{
closed = 1;
nodes = (
(622,-12,o),
(660,-2,o),
(693,14,c),
(778,95,l),
(791,95,l),
(791,168,l),
(752,100,o),
(691,62,o),
(620,62,cs),
(535,62,o),
(498,105,o),
(498,203,cs),
(498,615,l),
(402,615,l),
(402,176,ls),
(402,66,o),
(478,-12,o),
(585,-12,cs)
);
},
{
closed = 1;
nodes = (
(498,580,l),
(498,653,o),
(538,686,o),
(538,686,c),
(538,690,l),
(363,690,l),
(363,685,l),
(363,685,o),
(402,653,o),
(402,580,c)
);
},
{
closed = 1;
nodes = (
(859,580,l),
(859,653,o),
(899,686,o),
(899,686,c),
(899,690,l),
(724,690,l),
(724,685,l),
(724,685,o),
(763,653,o),
(763,580,c)
);
},
{
closed = 1;
nodes = (
(859,615,l),
(763,615,l),
(763,87,l),
(766,87,l),
(783,-16,l),
(794,-16,l),
(896,31,l),
(896,39,l),
(896,39,o),
(859,72,o),
(859,145,cs)
);
}
);
width = 934;
}
);
metricLeft = "=U";
metricRight = "=m";
unicode = 412;
},
{
color = 4;
glyphname = N;
kernLeft = KO_N;
kernRight = KO_N;
lastChange = "2024-07-03 17:02:57 +0000";
layers = (
{
layerId = m01;
name = Light;
shapes = (
{
closed = 1;
nodes = (
(604,-6,l),
(604,580,ls),
(604,653,o),
(643,685,o),
(643,685,c),
(643,690,l),
(475,690,l),
(475,686,l),
(475,686,o),
(515,656,o),
(524,590,c),
(557,162,l),
(165,690,l),
(104,690,l),
(104,618,l),
(568,-6,l)
);
},
{
closed = 1;
nodes = (
(217,0,l),
(217,4,l),
(217,4,o),
(171,37,o),
(167,110,cs),
(140,580,l),
(134,690,l),
(55,690,l),
(55,685,l),
(55,685,o),
(92,657,o),
(95,593,c),
(84,99,l),
(79,34,o),
(45,5,o),
(45,5,c),
(45,0,l)
);
}
);
width = 688;
}
);
metricLeft = "=H";
metricRight = "=H";
unicode = 78;
userData = {
KernOnName = N;
};
},
{
color = 9;
glyphname = Nhookleft;
kernRight = KO_N;
lastChange = "2024-07-01 12:51:08 +0000";
layers = (
{
layerId = m01;
shapes = (
{
closed = 1;
nodes = (
(101,-121,o),
(73,-184,o),
(26,-235,c),
(41,-235,l),
(94,-206,o),
(133,-172,o),
(157,-135,cs),
(181,-98,o),
(197,-53,o),
(194,0,cs),
(161,580,l),
(155,690,l),
(76,690,l),
(76,685,l),
(76,685,o),
(113,657,o),
(116,593,c),
(102,-52,ls)
);
},
{
closed = 1;
nodes = (
(625,-6,l),
(625,580,ls),
(625,653,o),
(664,685,o),
(664,685,c),
(664,690,l),
(496,690,l),
(496,686,l),
(496,686,o),
(536,656,o),
(545,590,c),
(578,162,l),
(186,690,l),
(125,690,l),
(125,618,l),
(589,-6,l)
);
}
);
width = 709;
}
);
metricRight = "=N";
unicode = 413;
},
{
color = 9;
glyphname = Nlongrightleg;
lastChange = "2024-07-01 12:52:07 +0000";
layers = (
{
layerId = m01;
shapes = (
{
closed = 1;
nodes = (
(85,37,o),
(45,5,o),
(45,5,c),
(45,0,l),
(221,0,l),
(221,4,l),
(221,4,o),
(181,37,o),
(181,110,c),
(85,110,l)
);
},
{
closed = 1;
nodes = (
(461,-198,o),
(421,-230,o),
(421,-230,c),
(421,-235,l),
(597,-235,l),
(597,-231,l),
(597,-231,o),
(557,-198,o),
(557,-125,c),
(461,-125,l)
);
},
{
closed = 1;
nodes = (
(337,706,o),
(299,696,o),
(266,680,c),
(181,599,l),
(168,599,l),
(168,526,l),
(207,594,o),
(268,632,o),
(339,632,cs),
(424,632,o),
(461,589,o),
(461,491,cs),
(461,-144,l),
(557,-144,l),
(557,518,ls),
(557,628,o),
(481,706,o),
(374,706,cs)
);
},
{
closed = 1;
nodes = (
(178,599,l),
(181,702,l),
(170,702,l),
(48,655,l),
(48,647,l),
(48,647,o),
(85,614,o),
(85,541,c),
(85,70,l),
(181,70,l),
(181,599,l)
);
}
);
width = 687;
}
);
metricLeft = "=H";
metricRight = "=N*2";
unicode = 544;
userData = {
KernOnName = Nlongrightleg;
};
},
{
color = 4;
glyphname = Eng;
kernLeft = KO_N;
kernRight = KO_N;
lastChange = "2024-07-01 15:51:05 +0000";
layers = (
{
anchors = (
{
name = bottom;
pos = (345,0);
},
{
name = top;
pos = (345,690);
}
);
layerId = m01;
shapes = (
{
closed = 1;
nodes = (
(604,-6,l),
(604,580,ls),
(604,653,o),
(643,685,o),
(643,685,c),
(643,690,l),
(475,690,l),
(475,686,l),
(475,686,o),
(515,656,o),
(524,590,c),
(557,162,l),
(165,690,l),
(104,690,l),
(104,618,l),
(568,-6,l)
);
},
{
closed = 1;
nodes = (
(217,0,l),
(217,4,l),
(217,4,o),
(171,37,o),
(167,110,cs),
(140,580,l),
(134,690,l),
(55,690,l),
(55,685,l),
(55,685,o),
(92,657,o),
(95,593,c),
(84,99,l),
(79,34,o),
(45,5,o),
(45,5,c),
(45,0,l)
);
},
{
closed = 1;
nodes = (
(546,-251,o),
(604,-146,o),
(604,-38,c),
(604,70,l),
(517,70,l),
(517,-42,l),
(517,-152,o),
(466,-197,o),
(413,-197,c),
(327,-197,o),
(300,-98,o),
(295,-38,c),
(289,-38,l),
(212,-156,l),
(246,-197,o),
(316,-251,o),
(399,-251,c)
);
}
);
width = 688;
}
);
metricLeft = "=N";
metricRight = "=N";
unicode = 330;
},
{
color = 4;
glyphname = O;
kernLeft = KO_O;
kernRight = KO_O;
lastChange = "2024-07-03 10:07:32 +0000";
layers = (
{
anchors = (
{
name = bottom;
pos = (370,0);
},
{
name = center;
pos = (377,345);
},
{
name = ogonek;
pos = (478,0);
},
{
name = qtail;
pos = (441,0);
},
{
name = top;
pos = (377,690);
},
{
name = topleft;
pos = (5,690);
},
{
name = topright;
pos = (421,690);
}
);
layerId = m01;
shapes = (
{
closed = 1;
nodes = (
(574,-16,o),
(718,136,o),
(718,352,cs),
(718,563,o),
(580,706,o),
(383,706,cs),
(179,706,o),
(35,554,o),
(35,338,cs),
(35,127,o),
(173,-16,o),
(370,-16,cs)
);
},
{
closed = 1;
nodes = (
(236,41,o),
(140,164,o),
(140,359,cs),
(140,537,o),
(227,649,o),
(365,649,cs),
(517,649,o),
(613,526,o),
(613,331,cs),
(613,153,o),
(526,41,o),
(388,41,cs)
);
}
);
width = 753;
}
);
metricRight = "=|";
unicode = 79;
userData = {
KernOnName = O;
};
},
{
color = 9;
glyphname = OU;
lastChange = "2024-05-29 13:53:59 +0000";
layers = (
{
layerId = m01;
shapes = (
{
closed = 1;
nodes = (
(495,-16,o),
(618,91,o),
(618,242,cs),
(618,336,o),
(560,415,o),
(472,456,c),
(627,507,o),
(605,644,o),
(518,706,c),
(488,706,l),
(520,583,o),
(451,486,o),
(329,486,cs),
(207,486,o),
(138,583,o),
(170,706,c),
(140,706,l),
(53,644,o),
(31,507,o),
(186,456,c),
(93,414,o),
(35,332,o),
(35,228,cs),
(35,91,o),
(160,-16,o),
(320,-16,cs)
);
},
{
closed = 1;
nodes = (
(216,41,o),
(140,121,o),
(140,249,cs),
(140,355,o),
(212,429,o),
(315,429,cs),
(437,429,o),
(513,349,o),
(513,221,cs),
(513,115,o),
(441,41,o),
(338,41,cs)
);
}
);
width = 653;
}
);
metricLeft = "=O";
metricRight = "=O";
unicode = 546;
},
{
color = 9;
glyphname = "Omega-latin";
lastChange = "2024-07-01 13:00:07 +0000";
layers = (
{
layerId = m01;
shapes = (
{
closed = 1;
nodes = (
(772,-16,o),
(897,173,o),
(897,413,cs),
(897,585,o),
(812,706,o),
(691,706,cs),
(645,706,o),
(608,698,o),
(570,680,c),
(637,560,l),
(642,560,l),
(647,593,o),
(671,643,o),
(712,643,cs),
(770,643,o),
(797,553,o),
(797,411,cs),
(797,179,o),
(735,49,o),
(624,49,cs),
(553,49,o),
(509,123,o),
(509,241,cs),
(509,370,l),
(423,370,l),
(423,241,ls),
(423,123,o),
(379,49,o),
(308,49,cs),
(197,49,o),
(135,179,o),
(135,411,cs),
(135,553,o),
(162,643,o),
(220,643,cs),
(261,643,o),
(285,593,o),
(290,560,c),
(295,560,l),
(362,680,l),
(324,698,o),
(287,706,o),
(241,706,cs),
(120,706,o),
(35,585,o),
(35,413,cs),
(35,149,o),
(144,-16,o),
(318,-16,cs),
(392,-16,o),
(443,47,o),
(461,154,c),
(480,47,o),
(536,-16,o),
(614,-16,cs)
);
}
);
width = 932;
}
);
metricLeft = "=O";
metricRight = "=O";
unicode = 42934;
},
{
glyphname = Oogonek;
kernLeft = KO_O;
kernRight = KO_O;
lastChange = "2023-12-22 05:51:16 +0000";
layers = (
{
anchors = (
{
name = bottom;
pos = (380,0);
},
{
name = center;
pos = (387,345);
},
{
name = ogonek;
pos = (488,0);
},
{
name = qtail;
pos = (451,0);
},
{
name = top;
pos = (387,690);
},
{
name = topleft;
pos = (15,690);
},
{
name = topright;
pos = (758,690);
}
);
layerId = m01;
shapes = (
{
closed = 1;
nodes = (
(584,-16,o),
(728,136,o),
(728,352,cs),
(728,563,o),
(590,706,o),
(393,706,cs),
(189,706,o),
(45,554,o),
(45,338,cs),
(45,127,o),
(183,-16,o),
(380,-16,cs)
);
},
{
closed = 1;
nodes = (
(526,-251,o),
(576,-215,o),
(593,-158,c),
(579,-148,l),
(560,-169,o),
(530,-182,o),
(502,-182,cs),
(459,-182,o),
(438,-157,o),
(438,-107,cs),
(438,-55,o),
(466,-9,o),
(505,5,c),
(505,20,l),
(427,20,l),
(427,-15,l),
(385,-39,o),
(356,-93,o),
(356,-147,cs),
(356,-208,o),
(400,-251,o),
(463,-251,cs)
);
},
{
closed = 1;
nodes = (
(246,41,o),
(150,164,o),
(150,359,cs),
(150,537,o),
(237,649,o),
(375,649,cs),
(527,649,o),
(623,526,o),
(623,331,cs),
(623,153,o),
(536,41,o),
(398,41,cs)
);
}
);
width = 773;
}
);
unicode = 490;
},
{
color = 4;
glyphname = OE;
kernRight = KO_E;
lastChange = "2024-07-01 13:02:29 +0000";
layers = (
{
anchors = (
{
name = bottom;
pos = (423,0);
},
{
name = top;
pos = (423,690);
}
);
layerId = m01;
shapes = (
{
closed = 1;
nodes = (
(522,0,l),
(522,690,l),
(403,690,ls),
(187,690,o),
(35,543,o),
(35,333,cs),
(35,137,o),
(179,0,o),
(383,0,cs)
);
},
{
closed = 1;
nodes = (
(140,539,o),
(234,640,o),
(403,640,cs),
(426,640,l),
(426,50,l),
(393,50,ls),
(238,50,o),
(140,169,o),
(140,359,cs)
);
},
{
closed = 1;
nodes = (
(765,0,l),
(765,59,l),
(504,43,l),
(504,0,l)
);
},
{
closed = 1;
nodes = (
(805,0,l),
(811,167,l),
(805,167,l),
(796,142,o),
(744,58,o),
(630,51,c),
(670,0,l)
);
},
{
closed = 1;
nodes = (
(680,388,l),
(495,377,l),
(495,334,l),
(680,324,l)
);
},
{
closed = 1;
nodes = (
(712,288,l),
(712,424,l),
(706,424,l),
(706,424,o),
(680,388,o),
(541,380,c),
(541,332,l),
(680,324,o),
(707,288,o),
(707,288,c)
);
},
{
closed = 1;
nodes = (
(765,690,l),
(504,690,l),
(504,647,l),
(765,631,l)
);
},
{
closed = 1;
nodes = (
(799,546,l),
(793,698,l),
(792,698,l),
(792,698,o),
(765,690,o),
(669,690,c),
(629,639,l),
(723,634,o),
(782,571,o),
(793,546,c)
);
}
);
width = 846;
}
);
metricLeft = "=O";
metricRight = "=E";
unicode = 338;
},
{
color = 4;
glyphname = P;
kernLeft = KO_H;
kernRight = KO_P;
lastChange = "2024-07-03 09:21:15 +0000";
layers = (
{
anchors = (
{
name = bottom;
pos = (276,0);
},
{
name = top;
pos = (276,690);
}
);
layerId = m01;
shapes = (
{
closed = 1;
nodes = (
(230,0,l),
(230,4,l),
(230,4,o),
(180,37,o),
(180,110,cs),
(180,284,l),
(222,284,ls),
(380,284,o),
(491,372,o),
(491,498,cs),
(491,616,o),
(395,690,o),
(242,690,cs),
(45,690,l),
(45,685,l),
(45,685,o),
(84,653,o),
(84,580,cs),
(84,110,ls),
(84,37,o),
(45,5,o),
(45,5,c),
(45,0,l)
);
},
{
closed = 1;
nodes = (
(180,640,l),
(232,640,ls),
(327,640,o),
(387,581,o),
(387,487,cs),
(387,397,o),
(323,334,o),
(232,334,cs),
(180,334,l)
);
}
);
width = 526;
}
);
metricLeft = "=H";
metricRight = "=O";
unicode = 80;
},
{
color = 9;
glyphname = Phook;
lastChange = "2024-07-01 10:37:50 +0000";
layers = (
{
layerId = m01;
shapes = (
{
closed = 1;
nodes = (
(312,640,l),
(312,690,l),
(214,690,l),
(84,690,o),
(2,622,o),
(2,513,cs),
(2,462,o),
(19,422,o),
(57,360,c),
(155,454,l),
(155,460,l),
(120,468,o),
(68,484,o),
(68,532,cs),
(68,595,o),
(129,640,o),
(216,640,c)
);
},
{
closed = 1;
nodes = (
(362,0,l),
(362,4,l),
(362,4,o),
(312,37,o),
(312,110,cs),
(312,284,l),
(354,284,ls),
(512,284,o),
(623,372,o),
(623,498,cs),
(623,616,o),
(527,690,o),
(374,690,cs),
(216,690,l),
(216,110,ls),
(216,37,o),
(177,5,o),
(177,5,c),
(177,0,l)
);
},
{
closed = 1;
nodes = (
(312,640,l),
(364,640,ls),
(459,640,o),
(519,581,o),
(519,487,cs),
(519,397,o),
(455,334,o),
(364,334,cs),
(312,334,l)
);
}
);
width = 658;
}
);
metricLeft = "=V";
metricRight = "=P";
unicode = 420;
},
{
color = 4;
glyphname = Thorn;
kernLeft = KO_H;
lastChange = "2024-07-01 13:04:58 +0000";
layers = (
{
layerId = m01;
shapes = (
{
closed = 1;
nodes = (
(181,147,l),
(223,147,ls),
(381,147,o),
(492,235,o),
(492,361,cs),
(492,479,o),
(396,553,o),
(243,553,cs),
(181,553,l),
(181,580,ls),
(181,653,o),
(221,686,o),
(221,686,c),
(221,690,l),
(45,690,l),
(45,685,l),
(45,685,o),
(85,653,o),
(85,580,cs),
(85,110,ls),
(85,37,o),
(45,5,o),
(45,5,c),
(45,0,l),
(221,0,l),
(221,4,l),
(221,4,o),
(181,37,o),
(181,110,cs)
);
},
{
closed = 1;
nodes = (
(181,503,l),
(233,503,ls),
(328,503,o),
(388,444,o),
(388,350,cs),
(388,260,o),
(324,197,o),
(233,197,cs),
(181,197,l)
);
}
);
width = 527;
}
);
metricLeft = "=I";
metricRight = "=P";
unicode = 222;
},
{
color = 9;
glyphname = Qhooktail;
lastChange = "2024-07-01 10:37:23 +0000";
layers = (
{
layerId = m01;
shapes = (
{
closed = 1;
nodes = (
(637,-184,o),
(610,-117,o),
(610,-48,c),
(610,710,l),
(602,710,l),
(514,617,l),
(514,103,l),
(514,0,l),
(514,-53,o),
(527,-98,o),
(551,-135,c),
(575,-172,o),
(614,-206,o),
(667,-235,c),
(684,-235,l)
);
},
{
closed = 1;
nodes = (
(171,706,o),
(35,548,o),
(35,326,c),
(35,122,o),
(136,-16,o),
(314,-16,c),
(357,-16,o),
(396,-5,o),
(437,17,c),
(538,107,l),
(529,81,l),
(552,187,l),
(500,112,o),
(441,60,o),
(346,60,c),
(206,60,o),
(141,178,o),
(141,348,c),
(141,518,o),
(223,649,o),
(349,649,c),
(467,649,o),
(524,580,o),
(549,528,c),
(564,639,l),
(517,690,o),
(438,706,o),
(365,706,c)
);
}
);
width = 710;
}
);
metricLeft = "=O";
unicode = 586;
userData = {
KernOnName = Qhooktail;
};
},
{
color = 4;
glyphname = R;
kernLeft = KO_H;
kernRight = KO_R;
lastChange = "2024-07-03 09:11:45 +0000";
layers = (
{
anchors = (
{
name = bottom;
pos = (301,0);
},
{
name = top;
pos = (283,690);
}
);
layerId = m01;
shapes = (
{
closed = 1;
nodes = (
(252,300,l),
(252,312,l),
(258,312,l),
(403,312,o),
(492,387,o),
(492,506,c),
(492,631,o),
(381,690,o),
(243,690,c),
(181,690,l),
(181,640,l),
(233,640,l),
(328,640,o),
(388,585,o),
(388,496,c),
(388,406,o),
(328,350,o),
(233,350,c),
(181,350,l),
(181,300,l)
);
},
{
closed = 1;
nodes = (
(231,0,l),
(231,4,l),
(231,4,o),
(181,37,o),
(181,110,cs),
(181,580,l),
(181,690,l),
(45,690,l),
(45,685,l),
(45,685,o),
(85,653,o),
(85,580,cs),
(85,110,ls),
(85,37,o),
(45,5,o),
(45,5,c),
(45,0,l)
);
},
{
closed = 1;
nodes = (
(557,0,l),
(557,5,l),
(557,5,o),
(514,35,o),
(469,102,cs),
(300,350,l),
(223,300,l),
(358,102,ls),
(403,35,o),
(386,5,o),
(386,5,c),
(386,0,l)
);
}
);
width = 575;
}
);
metricLeft = "=H";
metricRight = "=H*0.4";
unicode = 82;
userData = {
KernOnName = R;
};
},
{
color = 9;
glyphname = Rtail;
kernLeft = KO_H;
lastChange = "2024-07-01 14:01:12 +0000";
layers = (
{
layerId = m01;
shapes = (
{
closed = 1;
nodes = (
(325,-169,l),
(233,-169,o),
(181,-93,o),
(181,43,c),
(85,91,l),
(85,-102,o),
(184,-216,o),
(325,-185,c)
);
},
{
closed = 1;
nodes = (
(252,300,l),
(252,312,l),
(258,312,l),
(403,312,o),
(492,387,o),
(492,506,c),
(492,631,o),
(381,690,o),
(243,690,c),
(181,690,l),
(181,640,l),
(233,640,l),
(328,640,o),
(388,585,o),
(388,496,c),
(388,406,o),
(328,350,o),
(233,350,c),
(181,350,l),
(181,300,l)
);
},
{
closed = 1;
nodes = (
(181,43,l),
(181,580,l),
(181,690,l),
(45,690,l),
(45,685,l),
(45,685,o),
(85,653,o),
(85,580,cs),
(85,91,l)
);
},
{
closed = 1;
nodes = (
(557,0,l),
(557,5,l),
(557,5,o),
(514,35,o),
(469,102,cs),
(300,350,l),
(223,300,l),
(358,102,ls),
(403,35,o),
(386,5,o),
(386,5,c),
(386,0,l)
);
}
);
width = 575;
}
);
metricLeft = "=R";
metricRight = "=R";
unicode = 11364;
},
{
color = 4;
glyphname = S;
kernLeft = KO_S;
kernRight = KO_S;
lastChange = "2024-07-03 09:51:26 +0000";
layers = (
{
anchors = (
{
name = bottom;
pos = (255,0);
},
{
name = top;
pos = (255,690);
}
);
layerId = m01;
shapes = (
{
closed = 1;
nodes = (
(135,-16,o),
(62,36,o),
(35,58,c),
(86,177,l),
(91,177,l),
(91,177,o),
(141,41,o),
(262,41,c),
(331,41,o),
(387,76,o),
(387,151,c),
(387,206,o),
(351,256,o),
(243,306,c),
(144,352,o),
(47,408,o),
(47,520,c),
(47,623,o),
(121,706,o),
(279,706,c),
(388,706,o),
(454,653,o),
(472,636,c),
(412,522,l),
(407,522,l),
(407,522,o),
(359,649,o),
(262,649,c),
(190,649,o),
(138,606,o),
(138,537,c),
(138,481,o),
(175,448,o),
(282,396,c),
(363,357,o),
(477,298,o),
(477,178,c),
(477,44,o),
(374,-16,o),
(246,-16,c)
);
}
);
width = 512;
}
);
metricLeft = "=O";
metricRight = "=O";
unicode = 83;
userData = {
KernOnName = S;
};
},
{
color = 4;
glyphname = Germandbls;
kernLeft = KO_H;
lastChange = "2024-07-01 14:01:06 +0000";
layers = (
{
layerId = m01;
shapes = (
{
closed = 1;
nodes = (
(577,-16,o),
(689,86,o),
(689,215,cs),
(689,331,o),
(620,404,o),
(494,424,c),
(616,683,l),
(616,690,l),
(45,690,l),
(45,685,l),
(45,685,o),
(85,653,o),
(85,580,cs),
(85,110,ls),
(85,37,o),
(45,5,o),
(45,5,c),
(45,0,l),
(181,0,l),
(181,640,l),
(493,640,l),
(383,407,l),
(389,391,l),
(405,391,ls),
(511,391,o),
(585,313,o),
(585,202,cs),
(585,100,o),
(520,32,o),
(434,32,cs),
(351,32,o),
(316,106,o),
(306,162,c),
(300,162,l),
(242,39,l),
(301,2,o),
(365,-16,o),
(435,-16,cs)
);
}
);
width = 724;
}
);
metricLeft = "=H";
metricRight = "=O";
unicode = 7838;
},
{
color = 9;
glyphname = Sobliquestroke;
lastChange = "2024-07-01 09:08:26 +0000";
layers = (
{
layerId = m01;
shapes = (
{
ref = S;
},
{
closed = 1;
nodes = (
(74,303,l),
(530,479,l),
(530,423,l),
(74,247,l)
);
}
);
width = 611;
}
);
unicode = 42920;
},
{
color = 4;
glyphname = T;
kernLeft = KO_T;
kernRight = KO_T;
lastChange = "2024-07-03 09:51:41 +0000";
layers = (
{
anchors = (
{
name = bottom;
pos = (313,0);
},
{
name = center;
pos = (313,358);
},
{
name = top;
pos = (313,690);
}
);
layerId = m01;
shapes = (
{
closed = 1;
nodes = (
(401,0,l),
(401,5,l),
(401,5,o),
(361,37,o),
(361,110,cs),
(361,685,l),
(265,685,l),
(265,110,ls),
(265,37,o),
(225,4,o),
(225,4,c),
(225,0,l)
);
},
{
closed = 1;
nodes = (
(40,541,l),
(51,566,o),
(102,632,o),
(186,638,cs),
(313,647,l),
(440,638,ls),
(524,632,o),
(575,566,o),
(586,541,c),
(591,541,l),
(585,698,l),
(584,698,l),
(584,698,o),
(559,690,o),
(467,690,cs),
(159,690,ls),
(67,690,o),
(42,698,o),
(42,698,c),
(41,698,l),
(35,541,l)
);
}
);
width = 626;
}
);
metricLeft = "=O";
metricRight = "=O";
unicode = 84;
userData = {
KernOnName = T;
};
},
{
color = 9;
glyphname = Tdiagonalstroke;
lastChange = "2024-04-27 12:19:50 +0000";
layers = (
{
layerId = m01;
shapes = (
{
ref = T;
},
{
closed = 1;
nodes = (
(619,773,l),
(576,799,l),
(65,-89,l),
(109,-114,l)
);
}
);
width = 686;
}
);
unicode = 574;
},
{
color = 9;
glyphname = Thook;
lastChange = "2024-07-01 10:20:29 +0000";
layers = (
{
layerId = m01;
shapes = (
{
closed = 1;
nodes = (
(312,644,l),
(312,690,l),
(214,690,l),
(84,690,o),
(2,622,o),
(2,513,cs),
(2,462,o),
(19,422,o),
(57,360,c),
(155,454,l),
(155,460,l),
(120,468,o),
(68,484,o),
(68,532,cs),
(68,595,o),
(129,644,o),
(216,644,c)
);
},
{
closed = 1;
nodes = (
(400,0,l),
(400,5,l),
(400,5,o),
(360,37,o),
(360,110,cs),
(360,685,l),
(264,685,l),
(264,110,ls),
(264,37,o),
(224,4,o),
(224,4,c),
(224,0,l)
);
},
{
closed = 1;
nodes = (
(340,690,o),
(312,690,o),
(312,690,c),
(312,647,l),
(439,638,ls),
(523,632,o),
(574,566,o),
(585,541,c),
(590,541,l),
(584,698,l),
(583,698,l),
(583,698,o),
(560,690,o),
(466,690,c)
);
}
);
width = 625;
}
);
metricLeft = "=V";
metricRight = "=T";
unicode = 428;
},
{
color = 9;
glyphname = Tretroflexhook;
kernLeft = KO_T;
lastChange = "2024-07-01 10:37:50 +0000";
layers = (
{
anchors = (
{
name = bottom;
pos = (313,0);
},
{
name = center;
pos = (313,358);
},
{
name = top;
pos = (313,690);
}
);
layerId = m01;
shapes = (
{
closed = 1;
nodes = (
(505,-169,l),
(413,-169,o),
(361,-93,o),
(361,43,cs),
(361,665,l),
(265,665,l),
(265,91,ls),
(265,-102,o),
(364,-216,o),
(505,-185,c)
);
},
{
closed = 1;
nodes = (
(40,541,l),
(51,566,o),
(102,632,o),
(186,638,cs),
(313,647,l),
(440,638,ls),
(524,632,o),
(575,566,o),
(586,541,c),
(591,541,l),
(585,698,l),
(584,698,l),
(584,698,o),
(559,690,o),
(467,690,cs),
(159,690,ls),
(67,690,o),
(42,698,o),
(42,698,c),
(41,698,l),
(35,541,l)
);
}
);
width = 626;
}
);
metricLeft = "=T";
metricRight = "=T";
unicode = 430;
},
{
color = 4;
glyphname = U;
kernLeft = KO_U;
kernRight = KO_U;
lastChange = "2024-07-03 10:03:17 +0000";
layers = (
{
anchors = (
{
name = bottom;
pos = (310,0);
},
{
name = ogonek;
pos = (418,0);
},
{
name = top;
pos = (318,690);
},
{
name = topright;
pos = (639,690);
}
);
layerId = m01;
shapes = (
{
closed = 1;
nodes = (
(505,289,l),
(505,120,o),
(449,46,o),
(321,46,cs),
(193,46,o),
(137,120,o),
(137,289,cs),
(137,690,l),
(41,690,l),
(41,262,ls),
(41,76,o),
(133,-16,o),
(319,-16,cs),
(485,-16,o),
(578,93,o),
(578,289,cs),
(578,690,l),
(505,690,l)
);
},
{
closed = 1;
nodes = (
(137,580,l),
(137,653,o),
(177,686,o),
(177,686,c),
(177,690,l),
(2,690,l),
(2,685,l),
(2,685,o),
(41,653,o),
(41,580,c)
);
},
{
closed = 1;
nodes = (
(578,580,l),
(578,653,o),
(618,686,o),
(618,686,c),
(618,690,l),
(460,690,l),
(460,685,l),
(460,685,o),
(505,653,o),
(505,580,c)
);
}
);
width = 620;
}
);
metricLeft = "=V";
metricRight = "=V";
unicode = 85;
userData = {
KernOnName = U;
};
},
{
color = 4;
glyphname = Uhorn;
kernLeft = KO_U;
kernRight = KO_Uhorn;
lastChange = "2024-07-02 11:08:41 +0000";
layers = (
{
anchors = (
{
name = bottom;
pos = (310,0);
},
{
name = ogonek;
pos = (418,0);
},
{
name = top;
pos = (318,690);
},
{
name = topright;
pos = (475,690);
}
);
layerId = m01;
shapes = (
{
closed = 1;
nodes = (
(485,-16,o),
(578,93,o),
(578,289,cs),
(578,580,l),
(578,690,l),
(460,690,l),
(460,685,l),
(460,685,o),
(505,653,o),
(505,580,cs),
(505,289,ls),
(505,120,o),
(449,46,o),
(321,46,cs),
(193,46,o),
(137,120,o),
(137,289,cs),
(137,580,ls),
(137,653,o),
(177,686,o),
(177,686,c),
(177,690,l),
(2,690,l),
(2,685,l),
(2,685,o),
(41,653,o),
(41,580,cs),
(41,262,ls),
(41,76,o),
(133,-16,o),
(319,-16,cs)
);
},
{
closed = 1;
nodes = (
(615,730,o),
(590,690,o),
(512,690,c),
(461,690,l),
(505,661,l),
(557,661,ls),
(669,661,o),
(719,732,o),
(687,844,c),
(593,820,l)
);
}
);
width = 659;
}
);
metricLeft = "=U";
unicode = 431;
userData = {
KernOnName = Uhorn;
};
},
{
glyphname = Uogonek;
kernLeft = KO_U;
kernRight = KO_U;
lastChange = "2023-12-22 05:51:43 +0000";
layers = (
{
anchors = (
{
name = bottom;
pos = (350,0);
},
{
name = ogonek;
pos = (458,0);
},
{
name = top;
pos = (358,690);
},
{
name = topright;
pos = (679,690);
}
);
layerId = m01;
shapes = (
{
closed = 1;
nodes = (
(525,-16,o),
(618,93,o),
(618,289,cs),
(618,611,l),
(697,674,l),
(697,690,l),
(456,690,l),
(456,674,l),
(545,611,l),
(545,289,l),
(545,120,o),
(489,46,o),
(361,46,cs),
(233,46,o),
(177,120,o),
(177,289,cs),
(177,615,l),
(256,674,l),
(256,690,l),
(2,690,l),
(2,674,l),
(81,615,l),
(81,262,ls),
(81,76,o),
(173,-16,o),
(359,-16,cs)
);
},
{
closed = 1;
nodes = (
(496,-251,o),
(546,-215,o),
(563,-158,c),
(549,-148,l),
(530,-169,o),
(500,-182,o),
(472,-182,cs),
(429,-182,o),
(408,-157,o),
(408,-107,cs),
(408,-54,o),
(434,-10,o),
(475,6,c),
(475,20,l),
(397,20,l),
(397,-15,l),
(355,-39,o),
(326,-93,o),
(326,-147,cs),
(326,-208,o),
(370,-251,o),
(433,-251,cs)
);
}
);
width = 699;
}
);
unicode = 370;
},
{
color = 9;
glyphname = "Upsilon-latin";
lastChange = "2024-05-29 13:53:59 +0000";
layers = (
{
layerId = m01;
shapes = (
{
closed = 1;
nodes = (
(564,-16,o),
(701,126,o),
(701,328,cs),
(701,472,o),
(625,588,o),
(522,612,c),
(626,674,l),
(626,690,l),
(442,690,l),
(442,604,l),
(537,564,o),
(596,453,o),
(596,318,cs),
(596,148,o),
(512,41,o),
(378,41,cs),
(245,41,o),
(140,172,o),
(140,338,cs),
(140,472,o),
(191,560,o),
(294,604,c),
(294,690,l),
(110,690,l),
(110,674,l),
(220,609,l),
(114,588,o),
(35,472,o),
(35,328,cs),
(35,126,o),
(172,-16,o),
(368,-16,cs)
);
}
);
width = 736;
}
);
metricLeft = "=O";
metricRight = "=O";
unicode = 433;
},
{
color = 4;
glyphname = V;
kernLeft = KO_V;
kernRight = KO_V;
lastChange = "2024-07-03 09:36:32 +0000";
layers = (
{
anchors = (
{
name = bottom;
pos = (345,0);
},
{
name = top;
pos = (345,690);
}
);
layerId = m01;
shapes = (
{
closed = 1;
nodes = (
(352,-12,l),
(649,677,l),
(554,677,l),
(371,130,l),
(142,674,l),
(40,677,l),
(337,-12,l)
);
},
{
closed = 1;
nodes = (
(178,588,l),
(148,659,o),
(178,685,o),
(178,685,c),
(178,690,l),
(2,690,l),
(2,685,l),
(2,685,o),
(50,655,o),
(78,588,c)
);
},
{
closed = 1;
nodes = (
(612,588,l),
(640,655,o),
(689,685,o),
(689,685,c),
(689,690,l),
(525,690,l),
(525,685,l),
(525,685,o),
(548,658,o),
(525,588,c)
);
}
);
width = 691;
}
);
metricRight = "=|";
unicode = 86;
userData = {
KernOnName = V;
};
},
{
color = 9;
glyphname = "Gamma-latin";
kernRight = KO_Y;
lastChange = "2024-07-01 14:00:57 +0000";
layers = (
{
layerId = m01;
shapes = (
{
closed = 1;
nodes = (
(469,-179,o),
(496,-41,o),
(409,134,cs),
(141,674,l),
(41,674,l),
(345,58,ls),
(398,-49,o),
(393,-124,o),
(337,-124,cs),
(286,-124,o),
(282,-40,o),
(328,67,cs),
(337,88,l),
(319,137,l),
(289,70,ls),
(227,-69,o),
(252,-179,o),
(348,-179,c)
);
},
{
closed = 1;
nodes = (
(347,70,l),
(611,599,ls),
(641,659,o),
(689,685,o),
(689,685,c),
(689,690,l),
(525,690,l),
(525,685,l),
(525,685,o),
(550,664,o),
(530,614,cs),
(369,216,l),
(174,607,ls),
(146,663,o),
(178,685,o),
(178,685,c),
(178,690,l),
(2,690,l),
(2,685,l),
(2,685,o),
(49,658,o),
(78,599,cs),
(339,70,l)
);
}
);
width = 691;
}
);
metricLeft = "=V";
metricRight = "=V";
unicode = 404;
userData = {
KernOnName = "Gamma-latin";
};
},
{
color = 9;
glyphname = Vhook;
lastChange = "2024-07-01 10:37:50 +0000";
layers = (
{
anchors = (
{
name = bottom;
pos = (310,0);
},
{
name = top;
pos = (310,690);
}
);
layerId = m01;
shapes = (
{
closed = 1;
nodes = (
(445,-16,o),
(614,186,o),
(614,443,cs),
(614,612,o),
(540,706,o),
(408,706,cs),
(365,706,o),
(318,696,o),
(277,677,c),
(344,546,l),
(350,546,l),
(350,546,o),
(376,639,o),
(438,639,c),
(495,639,o),
(534,551,o),
(534,441,cs),
(534,220,o),
(412,46,o),
(257,46,cs),
(167,46,o),
(137,94,o),
(137,239,cs),
(137,615,l),
(41,615,l),
(41,212,ls),
(41,53,o),
(98,-16,o),
(229,-16,cs)
);
},
{
closed = 1;
nodes = (
(137,580,l),
(137,653,o),
(177,686,o),
(177,686,c),
(177,690,l),
(2,690,l),
(2,685,l),
(2,685,o),
(41,653,o),
(41,580,c)
);
}
);
width = 649;
}
);
metricLeft = "=U";
metricRight = "=O";
unicode = 434;
},
{
color = 4;
glyphname = W;
kernLeft = KO_W;
kernRight = KO_W;
lastChange = "2024-07-03 09:36:13 +0000";
layers = (
{
anchors = (
{
name = bottom;
pos = (534,0);
},
{
name = top;
pos = (534,690);
}
);
layerId = m01;
shapes = (
{
closed = 1;
nodes = (
(334,-12,l),
(531,478,l),
(728,-12,l),
(743,-12,l),
(982,588,ls),
(1010,655,o),
(1060,685,o),
(1060,685,c),
(1060,690,l),
(897,690,l),
(897,685,l),
(897,685,o),
(915,662,o),
(902,605,c),
(762,138,l),
(546,690,l),
(518,690,l),
(353,138,l),
(177,588,ls),
(149,659,o),
(177,685,o),
(177,685,c),
(177,690,l),
(2,690,l),
(2,685,l),
(2,685,o),
(46,659,o),
(73,601,c),
(319,-12,l)
);
}
);
width = 1062;
}
);
metricLeft = "=V";
metricRight = "=V";
unicode = 87;
userData = {
KernOnName = W;
};
},
{
color = 9;
glyphname = Whook;
lastChange = "2024-07-01 10:37:50 +0000";
layers = (
{
layerId = m01;
shapes = (
{
closed = 1;
nodes = (
(743,-12,l),
(1003,643,ls),
(1032,717,o),
(1060,753,o),
(1093,753,cs),
(1140,753,o),
(1160,661,o),
(1160,661,c),
(1165,661,l),
(1232,798,l),
(1191,817,o),
(1144,827,o),
(1101,827,cs),
(1021,827,o),
(962,780,o),
(937,697,cs),
(748,82,l),
(728,-12,l)
);
},
{
closed = 1;
nodes = (
(334,-12,l),
(531,478,l),
(728,-12,l),
(743,-12,l),
(764,132,l),
(546,690,l),
(518,690,l),
(353,138,l),
(177,588,ls),
(149,659,o),
(177,685,o),
(177,685,c),
(177,690,l),
(2,690,l),
(2,685,l),
(2,685,o),
(46,659,o),
(73,601,c),
(319,-12,l)
);
}
);
width = 1234;
}
);
metricLeft = "=V";
metricRight = "=V";
unicode = 11378;
userData = {
KernOnName = Whook;
};
},
{
color = 4;
glyphname = X;
kernLeft = KO_X;
kernRight = KO_X;
lastChange = "2024-07-03 09:35:08 +0000";
layers = (
{
anchors = (
{
name = bottom;
pos = (321,0);
},
{
name = top;
pos = (321,690);
}
);
layerId = m01;
shapes = (
{
closed = 1;
nodes = (
(596,13,l),
(151,677,l),
(42,677,l),
(487,13,l)
);
},
{
closed = 1;
nodes = (
(165,0,l),
(165,5,l),
(165,5,o),
(144,31,o),
(183,103,c),
(92,103,l),
(47,35,o),
(2,5,o),
(2,5,c),
(2,0,l)
);
},
{
closed = 1;
nodes = (
(133,13,l),
(315,346,l),
(270,368,l),
(32,13,l)
);
},
{
closed = 1;
nodes = (
(636,0,l),
(636,5,l),
(636,5,o),
(581,35,o),
(536,103,c),
(427,103,l),
(475,32,o),
(451,5,o),
(451,5,c),
(451,0,l)
);
},
{
closed = 1;
nodes = (
(211,588,l),
(163,658,o),
(187,685,o),
(187,685,c),
(187,690,l),
(2,690,l),
(2,685,l),
(2,685,o),
(57,655,o),
(102,588,c)
);
},
{
closed = 1;
nodes = (
(574,677,l),
(473,677,l),
(292,344,l),
(336,322,l)
);
},
{
closed = 1;
nodes = (
(514,588,l),
(560,655,o),
(605,685,o),
(605,685,c),
(605,690,l),
(441,690,l),
(441,685,l),
(441,685,o),
(464,659,o),
(424,588,c)
);
}
);
width = 638;
}
);
metricLeft = "=V";
metricRight = "=V";
unicode = 88;
},
{
color = 4;
glyphname = Y;
kernLeft = KO_Y;
kernRight = KO_Y;
lastChange = "2024-07-03 09:35:27 +0000";
layers = (
{
anchors = (
{
name = bottom;
pos = (349,0);
},
{
name = top;
pos = (354,690);
},
{
name = topleft;
pos = (31,690);
}
);
layerId = m01;
shapes = (
{
closed = 1;
nodes = (
(362,208,l),
(613,605,ls),
(649,662,o),
(692,685,o),
(692,685,c),
(692,690,l),
(524,690,l),
(524,685,l),
(524,685,o),
(544,658,o),
(510,588,cs),
(376,306,l),
(203,588,ls),
(159,658,o),
(185,685,o),
(185,685,c),
(185,690,l),
(2,690,l),
(2,685,l),
(2,685,o),
(56,655,o),
(96,588,cs),
(328,208,l)
);
},
{
closed = 1;
nodes = (
(437,0,l),
(437,5,l),
(437,5,o),
(398,37,o),
(398,110,cs),
(398,285,l),
(302,285,l),
(302,110,ls),
(302,37,o),
(262,4,o),
(262,4,c),
(262,0,l)
);
},
{
closed = 1;
nodes = (
);
}
);
width = 694;
}
);
metricLeft = "=V";
metricRight = "=V";
unicode = 89;
userData = {
KernOnName = Y;
};
},
{
color = 9;
glyphname = Yhook;
kernLeft = KO_Y;
lastChange = "2024-07-01 10:37:50 +0000";
layers = (
{
layerId = m01;
shapes = (
{
closed = 1;
nodes = (
(362,192,l),
(633,706,o),
(669,753,o),
(702,753,cs),
(749,753,o),
(769,661,o),
(769,661,c),
(774,661,l),
(841,798,l),
(800,817,o),
(753,827,o),
(710,827,cs),
(630,827,o),
(587,801,o),
(551,717,cs),
(376,306,l),
(351,192,l)
);
},
{
closed = 1;
nodes = (
(362,208,l),
(376,306,l),
(203,588,ls),
(159,658,o),
(185,685,o),
(185,685,c),
(185,690,l),
(2,690,l),
(2,685,l),
(2,685,o),
(56,655,o),
(96,588,cs),
(328,208,l)
);
},
{
closed = 1;
nodes = (
(437,0,l),
(437,5,l),
(437,5,o),
(398,37,o),
(398,110,cs),
(398,285,l),
(302,285,l),
(302,110,ls),
(302,37,o),
(262,4,o),
(262,4,c),
(262,0,l)
);
}
);
width = 843;
}
);
metricLeft = "=V";
metricRight = "=V";
unicode = 435;
userData = {
KernOnName = Yhook;
};
},
{
glyphname = Ystroke;
lastChange = "2024-05-29 13:23:31 +0000";
layers = (
{
layerId = m01;
shapes = (
{
ref = Y;
},
{
closed = 1;
nodes = (
(630,454,l),
(630,509,l),
(40,509,l),
(40,454,l)
);
}
);
width = 694;
}
);
metricLeft = "=Y";
metricRight = "=Y";
unicode = 590;
},
{
color = 4;
glyphname = Z;
kernLeft = KO_Z;
kernRight = KO_Z;
lastChange = "2024-05-30 08:48:17 +0000";
layers = (
{
anchors = (
{
name = bottom;
pos = (313,0);
},
{
name = center;
pos = (313,345);
},
{
name = top;
pos = (313,690);
}
);
layerId = m01;
shapes = (
{
closed = 1;
nodes = (
(583,180,l),
(577,180,l),
(566,155,o),
(510,60,o),
(373,54,c),
(356,53,o),
(441,0,o),
(441,0,c),
(573,0,l)
);
},
{
closed = 1;
nodes = (
(89,554,o),
(143,633,o),
(240,637,c),
(248,638,o),
(218,690,o),
(210,690,c),
(100,690,o),
(60,698,o),
(60,698,c),
(54,698,l),
(72,527,l),
(78,527,l)
);
},
{
closed = 1;
nodes = (
(478,59,l),
(120,42,l),
(141,6,l),
(577,685,l),
(577,690,l),
(143,690,l),
(143,633,l),
(494,649,l),
(473,685,l),
(35,5,l),
(35,0,l),
(478,0,l)
);
}
);
width = 618;
}
);
metricLeft = "=O";
metricRight = "=O";
unicode = 90;
},
{
color = 4;
glyphname = Saltillo;
lastChange = "2024-05-30 08:46:48 +0000";
layers = (
{
layerId = m01;
shapes = (
{
closed = 1;
nodes = (
(108,359,l),
(153,697,l),
(148,701,l),
(40,701,l),
(35,697,l),
(80,359,l)
);
}
);
width = 188;
}
);
metricLeft = "=o";
metricRight = "=o";
unicode = 42891;
},
{
color = 4;
glyphname = O.001;
kernLeft = KO_O;
kernRight = KO_O;
lastChange = "2024-05-29 14:05:55 +0000";
layers = (
{
anchors = (
{
name = bottom;
pos = (370,0);
},
{
name = center;
pos = (377,345);
},
{
name = ogonek;
pos = (478,0);
},
{
name = qtail;
pos = (441,0);
},
{
name = top;
pos = (377,690);
},
{
name = topleft;
pos = (5,690);
},
{
name = topright;
pos = (421,690);
}
);
layerId = m01;
shapes = (
{
closed = 1;
nodes = (
(574,-16,o),
(718,136,o),
(718,352,cs),
(718,563,o),
(580,706,o),
(383,706,cs),
(179,706,o),
(35,554,o),
(35,338,cs),
(35,127,o),
(173,-16,o),
(370,-16,cs)
);
},
{
closed = 1;
nodes = (
(236,41,o),
(140,164,o),
(140,359,cs),
(140,537,o),
(227,649,o),
(365,649,cs),
(517,649,o),
(613,526,o),
(613,331,cs),
(613,153,o),
(526,41,o),
(388,41,cs)
);
}
);
width = 753;
}
);
metricRight = "=|";
userData = {
KernOnName = O;
};
},
{
color = 4;
glyphname = O.002;
kernLeft = KO_O;
kernRight = KO_O;
lastChange = "2024-05-29 14:05:55 +0000";
layers = (
{
anchors = (
{
name = bottom;
pos = (370,0);
},
{
name = center;
pos = (377,345);
},
{
name = ogonek;
pos = (478,0);
},
{
name = qtail;
pos = (441,0);
},
{
name = top;
pos = (377,690);
},
{
name = topleft;
pos = (5,690);
},
{
name = topright;
pos = (421,690);
}
);
layerId = m01;
shapes = (
{
closed = 1;
nodes = (
(574,-16,o),
(718,136,o),
(718,352,cs),
(718,563,o),
(580,706,o),
(383,706,cs),
(179,706,o),
(35,554,o),
(35,338,cs),
(35,127,o),
(173,-16,o),
(370,-16,cs)
);
},
{
closed = 1;
nodes = (
(236,41,o),
(140,164,o),
(140,359,cs),
(140,537,o),
(227,649,o),
(365,649,cs),
(517,649,o),
(613,526,o),
(613,331,cs),
(613,153,o),
(526,41,o),
(388,41,cs)
);
}
);
width = 753;
}
);
metricRight = "=|";
userData = {
KernOnName = O;
};
},
{
color = 4;
glyphname = O.003;
kernLeft = KO_O;
kernRight = KO_O;
lastChange = "2024-05-29 14:05:55 +0000";
layers = (
{
anchors = (
{
name = bottom;
pos = (370,0);
},
{
name = center;
pos = (377,345);
},
{
name = ogonek;
pos = (478,0);
},
{
name = qtail;
pos = (441,0);
},
{
name = top;
pos = (377,690);
},
{
name = topleft;
pos = (5,690);
},
{
name = topright;
pos = (421,690);
}
);
layerId = m01;
shapes = (
{
closed = 1;
nodes = (
(574,-16,o),
(718,136,o),
(718,352,cs),
(718,563,o),
(580,706,o),
(383,706,cs),
(179,706,o),
(35,554,o),
(35,338,cs),
(35,127,o),
(173,-16,o),
(370,-16,cs)
);
},
{
closed = 1;
nodes = (
(236,41,o),
(140,164,o),
(140,359,cs),
(140,537,o),
(227,649,o),
(365,649,cs),
(517,649,o),
(613,526,o),
(613,331,cs),
(613,153,o),
(526,41,o),
(388,41,cs)
);
}
);
width = 753;
}
);
metricRight = "=|";
userData = {
KernOnName = O;
};
},
{
color = 4;
glyphname = O.004;
kernLeft = KO_O;
kernRight = KO_O;
lastChange = "2024-05-29 14:05:55 +0000";
layers = (
{
anchors = (
{
name = bottom;
pos = (370,0);
},
{
name = center;
pos = (377,345);
},
{
name = ogonek;
pos = (478,0);
},
{
name = qtail;
pos = (441,0);
},
{
name = top;
pos = (377,690);
},
{
name = topleft;
pos = (5,690);
},
{
name = topright;
pos = (421,690);
}
);
layerId = m01;
shapes = (
{
closed = 1;
nodes = (
(574,-16,o),
(718,136,o),
(718,352,cs),
(718,563,o),
(580,706,o),
(383,706,cs),
(179,706,o),
(35,554,o),
(35,338,cs),
(35,127,o),
(173,-16,o),
(370,-16,cs)
);
},
{
closed = 1;
nodes = (
(236,41,o),
(140,164,o),
(140,359,cs),
(140,537,o),
(227,649,o),
(365,649,cs),
(517,649,o),
(613,526,o),
(613,331,cs),
(613,153,o),
(526,41,o),
(388,41,cs)
);
}
);
width = 753;
}
);
metricRight = "=|";
userData = {
KernOnName = O;
};
},
{
color = 4;
glyphname = O.005;
kernLeft = KO_O;
kernRight = KO_O;
lastChange = "2024-05-29 14:05:55 +0000";
layers = (
{
anchors = (
{
name = bottom;
pos = (370,0);
},
{
name = center;
pos = (377,345);
},
{
name = ogonek;
pos = (478,0);
},
{
name = qtail;
pos = (441,0);
},
{
name = top;
pos = (377,690);
},
{
name = topleft;
pos = (5,690);
},
{
name = topright;
pos = (421,690);
}
);
layerId = m01;
shapes = (
{
closed = 1;
nodes = (
(574,-16,o),
(718,136,o),
(718,352,cs),
(718,563,o),
(580,706,o),
(383,706,cs),
(179,706,o),
(35,554,o),
(35,338,cs),
(35,127,o),
(173,-16,o),
(370,-16,cs)
);
},
{
closed = 1;
nodes = (
(236,41,o),
(140,164,o),
(140,359,cs),
(140,537,o),
(227,649,o),
(365,649,cs),
(517,649,o),
(613,526,o),
(613,331,cs),
(613,153,o),
(526,41,o),
(388,41,cs)
);
}
);
width = 753;
}
);
metricRight = "=|";
userData = {
KernOnName = O;
};
},
{
glyphname = Eng.alt1;
lastChange = "2024-07-03 08:57:54 +0000";
layers = (
{
layerId = m01;
shapes = (
{
closed = 1;
nodes = (
(606,-38,l),
(606,498,ls),
(606,626,o),
(520,706,o),
(383,706,cs),
(305,706,o),
(216,662,o),
(182,607,c),
(176,607,l),
(181,698,l),
(176,698,l),
(46,639,l),
(46,633,l),
(46,633,o),
(85,598,o),
(85,521,cs),
(85,75,l),
(181,75,l),
(181,547,l),
(220,600,o),
(282,632,o),
(348,632,cs),
(456,632,o),
(510,579,o),
(510,471,cs),
(510,-42,l)
);
},
{
closed = 1;
nodes = (
(547,-251,o),
(606,-146,o),
(606,-38,c),
(606,70,l),
(510,70,l),
(510,-42,l),
(510,-152,o),
(459,-197,o),
(407,-197,c),
(322,-197,o),
(295,-98,o),
(290,-38,c),
(284,-38,l),
(207,-156,l),
(242,-197,o),
(313,-251,o),
(397,-251,c)
);
},
{
closed = 1;
nodes = (
(85,37,o),
(45,5,o),
(45,5,c),
(45,0,l),
(221,0,l),
(221,4,l),
(221,4,o),
(181,37,o),
(181,110,c),
(85,110,l)
);
}
);
width = 786;
}
);
metricLeft = "=N";
metricRight = "=N*4";
userData = {
KernOnName = Eng.alt1;
};
},
{
color = 9;
glyphname = Ismall;
lastChange = "2024-07-01 08:52:05 +0000";
layers = (
{
layerId = m01;
shapes = (
{
closed = 1;
nodes = (
(165,37,o),
(205,4,o),
(205,4,c),
(205,0,l),
(35,0,l),
(35,5,l),
(35,5,o),
(75,37,o),
(75,110,cs),
(75,370,l),
(75,443,o),
(35,475,o),
(35,475,c),
(35,480,l),
(205,480,l),
(205,476,l),
(205,476,o),
(165,443,o),
(165,370,cs),
(165,110,l)
);
}
);
width = 240;
}
);
metricLeft = "=o";
metricRight = "=o";
unicode = 618;
userData = {
KernOnSpecialSpacing = {
L = smallcaps;
R = smallcaps;
};
};
},
{
color = 4;
glyphname = a;
kernLeft = KO_a;
kernRight = KO_a;
lastChange = "2024-07-02 16:48:55 +0000";
layers = (
{
anchors = (
{
name = bottom;
pos = (241,0);
},
{
name = ogonek;
pos = (393,-12);
},
{
name = top;
pos = (241,480);
}
);
layerId = m01;
name = Regular;
shapes = (
{
closed = 1;
nodes = (
(189,-12,o),
(213,-7,o),
(234,2,c),
(310,70,l),
(310,107,l),
(285,85,o),
(248,62,o),
(206,62,cs),
(164,62,o),
(132,89,o),
(133,129,cs),
(133,159,o),
(152,197,o),
(199,234,c),
(310,234,l),
(310,313,l),
(204,273,ls),
(90,230,o),
(40,184,o),
(40,100,cs),
(40,35,o),
(89,-12,o),
(161,-12,cs)
);
},
{
closed = 1;
nodes = (
(416,-12,o),
(433,-3,o),
(445,6,c),
(445,6,o),
(407,33,o),
(400,94,c),
(400,344,l),
(310,313,l),
(310,70,l),
(313,70,l),
(313,29,o),
(345,-12,o),
(394,-12,cs)
);
},
{
closed = 1;
nodes = (
(128,336,l),
(136,370,o),
(161,437,o),
(225,437,cs),
(285,437,o),
(310,374,o),
(310,311,c),
(310,234,l),
(400,234,l),
(400,342,l),
(400,444,o),
(332,492,o),
(227,492,cs),
(166,492,o),
(116,467,o),
(77,442,c),
(120,336,l)
);
}
);
width = 480;
}
);
metricLeft = "=o+5";
metricRight = "=n";
unicode = 97;
userData = {
KernOnName = a;
};
},
{
color = 9;
glyphname = "alpha-latin";
kernLeft = KO_d;
kernRight = KO_a;
lastChange = "2024-07-02 17:09:41 +0000";
layers = (
{
layerId = m01;
shapes = (
{
closed = 1;
nodes = (
(303,-12,o),
(366,21,o),
(406,74,c),
(409,74,l),
(422,5,o),
(471,-15,o),
(576,0,c),
(576,18,l),
(516,22,o),
(496,48,o),
(496,120,cs),
(496,497,l),
(482,497,l),
(438,453,l),
(402,479,o),
(355,492,o),
(298,492,cs),
(144,492,o),
(35,382,o),
(35,226,cs),
(35,80,o),
(114,-12,o),
(241,-12,cs)
);
},
{
closed = 1;
nodes = (
(129,358,o),
(195,438,o),
(288,438,cs),
(335,438,o),
(376,424,o),
(406,399,c),
(406,123,l),
(365,78,o),
(321,58,o),
(266,58,cs),
(178,58,o),
(129,125,o),
(129,244,cs)
);
}
);
width = 611;
}
);
metricLeft = "=o";
metricRight = "=n";
unicode = 593;
},
{
color = 9;
glyphname = astroke;
kernLeft = KO_a;
kernRight = KO_a;
lastChange = "2024-07-02 17:05:04 +0000";
layers = (
{
layerId = m01;
shapes = (
{
closed = 1;
nodes = (
(460,599,l),
(424,615,l),
(91,-97,l),
(128,-113,l)
);
},
{
ref = a;
}
);
width = 495;
}
);
unicode = 11365;
},
{
color = 4;
glyphname = ae;
kernLeft = KO_a;
kernRight = KO_e;
lastChange = "2024-06-29 21:24:26 +0000";
layers = (
{
anchors = (
{
name = bottom;
pos = (361,0);
},
{
name = top;
pos = (373,480);
}
);
layerId = m01;
shapes = (
{
closed = 1;
nodes = (
(128,336,l),
(136,370,o),
(161,437,o),
(225,437,cs),
(285,437,o),
(310,374,o),
(310,311,cs),
(310,234,l),
(400,234,l),
(400,342,ls),
(400,444,o),
(332,492,o),
(227,492,cs),
(166,492,o),
(116,467,o),
(77,442,c),
(120,336,l)
);
},
{
closed = 1;
nodes = (
(622,-12,o),
(687,24,o),
(726,82,c),
(726,106,l),
(687,71,o),
(631,53,o),
(573,53,cs),
(475,53,o),
(400,102,o),
(400,254,c),
(749,254,l),
(749,400,o),
(674,492,o),
(555,492,cs),
(409,492,o),
(306,381,o),
(306,222,cs),
(306,85,o),
(403,-12,o),
(542,-12,cs)
);
},
{
closed = 1;
nodes = (
(417,381,o),
(467,438,o),
(534,438,cs),
(601,438,o),
(643,391,o),
(643,315,c),
(404,297,l)
);
},
{
closed = 1;
nodes = (
(189,-12,o),
(213,-7,o),
(234,2,c),
(344,100,l),
(336,129,l),
(310,107,l),
(285,85,o),
(248,62,o),
(206,62,cs),
(164,62,o),
(132,89,o),
(133,129,cs),
(133,159,o),
(152,197,o),
(199,234,c),
(310,234,l),
(310,313,l),
(204,273,ls),
(90,230,o),
(40,184,o),
(40,100,cs),
(40,35,o),
(89,-12,o),
(161,-12,cs)
);
}
);
width = 784;
}
);
metricLeft = "=a";
metricRight = "=e";
unicode = 230;
},
{
color = 4;
glyphname = b;
kernLeft = KO_b;
kernRight = KO_b;
lastChange = "2024-07-02 17:46:40 +0000";
layers = (
{
anchors = (
{
name = bottom;
pos = (263,0);
},
{
name = center;
pos = (177,561);
},
{
name = top;
pos = (97,745);
}
);
layerId = m01;
shapes = (
{
closed = 1;
nodes = (
(114,406,l),
(114,26,l),
(151,1,o),
(196,-12,o),
(253,-12,cs),
(407,-12,o),
(516,98,o),
(516,254,cs),
(516,400,o),
(437,492,o),
(310,492,cs),
(279,492,o),
(249,484,o),
(220,469,c),
(145,406,l)
);
},
{
closed = 1;
nodes = (
(216,42,o),
(175,56,o),
(145,81,c),
(145,357,l),
(186,402,o),
(230,422,o),
(285,422,cs),
(373,422,o),
(422,355,o),
(422,236,cs),
(422,122,o),
(356,42,o),
(263,42,cs)
);
},
{
closed = 1;
nodes = (
(55,662,l),
(55,-20,l),
(60,-20,l),
(145,52,l),
(145,662,l)
);
},
{
closed = 1;
nodes = (
(145,598,l),
(145,765,l),
(140,765,l),
(18,709,l),
(18,704,l),
(18,704,o),
(55,671,o),
(55,598,c)
);
}
);
width = 551;
}
);
metricLeft = "=n*0.5";
metricRight = "=o";
unicode = 98;
userData = {
KernOnName = b;
};
},
{
color = 9;
glyphname = "beta-latin";
kernLeft = KO_B;
kernRight = KO_B;
lastChange = "2024-07-02 17:15:29 +0000";
layers = (
{
layerId = m01;
shapes = (
{
closed = 1;
nodes = (
(165,9,l),
(195,-5,o),
(231,-12,o),
(273,-12,cs),
(445,-12,o),
(553,79,o),
(553,223,cs),
(553,326,o),
(487,399,o),
(375,427,c),
(375,431,l),
(447,460,o),
(493,519,o),
(493,593,cs),
(493,701,o),
(408,777,o),
(287,777,cs),
(163,777,o),
(75,678,o),
(75,537,cs),
(75,-125,ls),
(75,-198,o),
(35,-230,o),
(35,-230,c),
(35,-235,l),
(211,-235,l),
(211,-231,l),
(211,-231,o),
(171,-198,o),
(171,-125,c)
);
},
{
closed = 1;
nodes = (
(165,565,ls),
(165,668,o),
(209,726,o),
(287,726,cs),
(357,726,o),
(401,675,o),
(401,595,cs),
(401,494,o),
(356,444,o),
(266,444,c),
(266,386,l),
(390,386,o),
(460,321,o),
(460,205,cs),
(460,100,o),
(397,42,o),
(283,42,cs),
(236,42,o),
(195,56,o),
(165,81,c)
);
}
);
width = 588;
}
);
metricLeft = "=f";
metricRight = "=p";
unicode = 42933;
},
{
color = 9;
glyphname = bhook;
kernLeft = KO_b;
kernRight = KO_b;
lastChange = "2024-07-02 17:15:32 +0000";
layers = (
{
layerId = m01;
shapes = (
{
closed = 1;
nodes = (
(180,44,l),
(180,585,ls),
(180,679,o),
(203,726,o),
(249,726,c),
(295,726,o),
(328,639,o),
(328,639,c),
(334,639,l),
(392,737,l),
(355,763,o),
(309,777,o),
(262,777,cs),
(156,777,o),
(90,692,o),
(90,557,cs),
(90,-20,l),
(95,-20,l)
);
},
{
closed = 1;
nodes = (
(149,406,l),
(149,26,l),
(186,1,o),
(231,-12,o),
(288,-12,cs),
(442,-12,o),
(551,98,o),
(551,254,cs),
(551,400,o),
(472,492,o),
(345,492,cs),
(314,492,o),
(284,484,o),
(255,469,c),
(180,406,l)
);
},
{
closed = 1;
nodes = (
(251,42,o),
(210,56,o),
(180,81,c),
(180,357,l),
(221,402,o),
(265,422,o),
(320,422,cs),
(408,422,o),
(457,355,o),
(457,236,cs),
(457,122,o),
(391,42,o),
(298,42,cs)
);
}
);
width = 586;
}
);
metricRight = "=b";
unicode = 595;
},
{
color = 4;
glyphname = c;
kernLeft = KO_o;
kernRight = KO_c;
lastChange = "2024-07-02 17:46:57 +0000";
layers = (
{
anchors = (
{
name = bottom;
pos = (271,0);
},
{
name = top;
pos = (280,480);
}
);
background = {
shapes = (
{
closed = 1;
nodes = (
(297,492,l),
(350,492,o),
(412,471,o),
(457,442,c),
(411,335,l),
(403,335,l),
(384,390,o),
(345,438,o),
(280,438,c)
);
}
);
};
layerId = m01;
shapes = (
{
closed = 1;
nodes = (
(334,-12,o),
(402,14,o),
(446,82,c),
(446,106,l),
(409,71,o),
(361,53,o),
(304,53,cs),
(192,53,o),
(129,124,o),
(129,250,cs),
(129,365,o),
(187,438,o),
(280,438,cs),
(345,438,o),
(384,390,o),
(403,335,c),
(411,335,l),
(457,442,l),
(412,471,o),
(350,492,o),
(297,492,cs),
(143,492,o),
(35,381,o),
(35,222,cs),
(35,85,o),
(132,-12,o),
(271,-12,cs)
);
}
);
width = 478;
}
);
metricLeft = "=o";
metricRight = "=o*0.6";
unicode = 99;
},
{
color = 9;
glyphname = "chi-latin";
lastChange = "2024-07-01 09:18:14 +0000";
layers = (
{
layerId = m01;
shapes = (
{
closed = 1;
nodes = (
(640,-217,l),
(565,-217,o),
(501,-142,o),
(445,-22,cs),
(362,155,l),
(344,193,l),
(308,270,ls),
(233,430,o),
(129,505,o),
(18,480,c),
(18,462,l),
(93,462,o),
(157,387,o),
(213,267,cs),
(278,129,l),
(295,91,l),
(350,-25,ls),
(425,-185,o),
(529,-260,o),
(640,-235,c)
);
},
{
closed = 1;
nodes = (
(160,-235,l),
(160,-230,l),
(160,-230,o),
(147,-201,o),
(175,-142,c),
(295,91,l),
(278,129,l),
(98,-132,ls),
(52,-199,o),
(18,-230,o),
(18,-230,c),
(18,-235,l)
);
},
{
closed = 1;
nodes = (
(531,395,ls),
(569,449,o),
(601,475,o),
(601,475,c),
(601,480,l),
(459,480,l),
(459,475,l),
(459,475,o),
(472,442,o),
(439,378,cs),
(344,193,l),
(362,155,l)
);
}
);
width = 658;
}
);
metricLeft = "=x";
metricRight = "=x";
unicode = 43859;
userData = {
KernOnName = "chi-latin";
};
},
{
color = 9;
glyphname = chook;
lastChange = "2024-07-01 09:31:45 +0000";
layers = (
{
layerId = m01;
name = Light;
shapes = (
{
closed = 1;
nodes = (
(192,53,o),
(129,124,o),
(129,250,cs),
(129,364,o),
(190,428,o),
(298,428,cs),
(349,428,o),
(410,414,o),
(446,394,c),
(467,442,l),
(415,475,o),
(359,492,o),
(297,492,cs),
(143,492,o),
(35,381,o),
(35,222,cs),
(35,85,o),
(132,-12,o),
(271,-12,cs),
(334,-12,o),
(402,14,o),
(446,82,c),
(446,106,l),
(409,71,o),
(361,53,o),
(304,53,cs)
);
},
{
closed = 1;
nodes = (
(467,442,l),
(413,476,o),
(390,529,o),
(390,616,cs),
(390,681,o),
(414,726,o),
(468,726,cs),
(515,726,o),
(535,639,o),
(535,639,c),
(541,639,l),
(599,742,l),
(560,765,o),
(515,777,o),
(462,777,cs),
(367,777,o),
(301,712,o),
(301,619,cs),
(301,545,o),
(334,484,o),
(387,461,c),
(387,442,l)
);
}
);
width = 601;
}
);
metricLeft = "=c";
metricRight = "=v";
unicode = 392;
userData = {
KernOnName = chook;
};
},
{
color = 9;
glyphname = cstroke;
lastChange = "2024-04-25 06:48:22 +0000";
layers = (
{
layerId = m01;
shapes = (
{
ref = c;
},
{
closed = 1;
nodes = (
(453,599,l),
(417,615,l),
(84,-97,l),
(121,-113,l)
);
}
);
width = 503;
}
);
unicode = 572;
},
{
color = 4;
glyphname = d;
kernLeft = KO_d;
kernRight = KO_d;
lastChange = "2024-07-03 09:02:04 +0000";
layers = (
{
anchors = (
{
name = bottom;
pos = (288,0);
},
{
name = center;
pos = (449,561);
},
{
name = top;
pos = (438,745);
},
{
name = topright;
pos = (516,761);
}
);
layerId = m01;
shapes = (
{
closed = 1;
nodes = (
(436,73,l),
(436,471,l),
(406,471,l),
(376,485,o),
(340,492,o),
(298,492,cs),
(144,492,o),
(35,382,o),
(35,226,cs),
(35,80,o),
(112,-12,o),
(241,-12,cs),
(272,-12,o),
(302,-4,o),
(331,11,c),
(406,74,l),
(415,74,l)
);
},
{
closed = 1;
nodes = (
(129,358,o),
(195,438,o),
(288,438,cs),
(335,438,o),
(376,424,o),
(406,399,c),
(406,123,l),
(365,78,o),
(321,58,o),
(266,58,cs),
(178,58,o),
(129,125,o),
(129,244,cs)
);
},
{
closed = 1;
nodes = (
(496,765,l),
(491,765,l),
(369,709,l),
(369,704,l),
(369,704,o),
(406,671,o),
(406,598,cs),
(406,74,l),
(409,74,l),
(416,-16,l),
(421,-16,l),
(533,34,l),
(533,39,l),
(533,39,o),
(496,72,o),
(496,145,cs)
);
}
);
width = 568;
}
);
metricLeft = "=o";
metricRight = "=n";
unicode = 100;
userData = {
KernOnName = d;
};
},
{
color = 9;
glyphname = dhook;
kernLeft = KO_d;
kernRight = KO_d;
lastChange = "2024-07-02 17:17:05 +0000";
layers = (
{
layerId = m01;
shapes = (
{
closed = 1;
nodes = (
(406,74,l),
(409,74,l),
(406,-16,l),
(411,-16,l),
(533,34,l),
(533,39,l),
(533,39,o),
(496,72,o),
(496,145,cs),
(496,585,ls),
(496,679,o),
(514,726,o),
(551,726,cs),
(593,726,o),
(614,639,o),
(614,639,c),
(620,639,l),
(668,742,l),
(629,766,o),
(595,777,o),
(558,777,cs),
(456,777,o),
(406,704,o),
(406,557,cs)
);
},
{
closed = 1;
nodes = (
(436,73,l),
(436,471,l),
(406,471,l),
(376,485,o),
(340,492,o),
(298,492,cs),
(144,492,o),
(35,382,o),
(35,226,cs),
(35,80,o),
(112,-12,o),
(241,-12,cs),
(272,-12,o),
(302,-4,o),
(331,11,c),
(406,74,l),
(415,74,l)
);
},
{
closed = 1;
nodes = (
(129,358,o),
(195,438,o),
(288,438,cs),
(335,438,o),
(376,424,o),
(406,399,c),
(406,123,l),
(365,78,o),
(321,58,o),
(266,58,cs),
(178,58,o),
(129,125,o),
(129,244,cs)
);
}
);
width = 670;
}
);
metricLeft = "=d";
metricRight = "=v";
unicode = 599;
userData = {
KernOnName = dhook;
};
},
{
color = 9;
glyphname = dtail;
kernLeft = KO_d;
kernRight = KO_d;
lastChange = "2024-07-02 17:17:28 +0000";
layers = (
{
layerId = m01;
shapes = (
{
closed = 1;
nodes = (
(586,-217,l),
(521,-212,o),
(496,-162,o),
(496,-35,cs),
(496,765,l),
(491,765,l),
(369,709,l),
(369,704,l),
(369,704,o),
(406,671,o),
(406,598,c),
(406,471,l),
(406,74,l),
(406,41,ls),
(406,-161,o),
(461,-245,o),
(586,-235,c)
);
},
{
closed = 1;
nodes = (
(436,73,l),
(436,471,l),
(406,471,l),
(376,485,o),
(340,492,o),
(298,492,cs),
(144,492,o),
(35,382,o),
(35,226,cs),
(35,80,o),
(112,-12,o),
(241,-12,cs),
(272,-12,o),
(302,-4,o),
(331,11,c),
(406,74,l),
(415,74,l)
);
},
{
closed = 1;
nodes = (
(129,358,o),
(195,438,o),
(288,438,cs),
(335,438,o),
(376,424,o),
(406,399,c),
(406,123,l),
(365,78,o),
(321,58,o),
(266,58,cs),
(178,58,o),
(129,125,o),
(129,244,cs)
);
}
);
width = 588;
}
);
metricLeft = "=d";
metricRight = "=v";
unicode = 598;
userData = {
KernOnName = dtail;
};
},
{
color = 4;
glyphname = eth;
kernLeft = KO_eth;
lastChange = "2024-05-30 08:46:48 +0000";
layers = (
{
layerId = m01;
shapes = (
{
closed = 1;
nodes = (
(440,-12,o),
(539,99,o),
(539,275,cs),
(539,426,o),
(480,554,o),
(371,648,c),
(450,690,l),
(450,739,l),
(334,677,l),
(283,714,o),
(223,745,o),
(155,768,c),
(151,768,l),
(136,730,l),
(136,722,l),
(190,701,o),
(237,676,o),
(277,647,c),
(160,585,l),
(160,536,l),
(315,618,l),
(374,567,o),
(414,507,o),
(432,441,c),
(393,477,o),
(351,492,o),
(292,492,cs),
(141,492,o),
(35,386,o),
(35,235,cs),
(35,90,o),
(137,-12,o),
(282,-12,cs)
);
},
{
closed = 1;
nodes = (
(130,360,o),
(193,438,o),
(282,438,cs),
(386,438,o),
(444,375,o),
(444,262,cs),
(444,121,o),
(389,42,o),
(292,42,cs),
(197,42,o),
(130,127,o),
(130,248,cs)
);
}
);
width = 574;
}
);
metricLeft = "=o";
metricRight = "=o";
unicode = 240;
userData = {
KernOnName = eth;
};
},
{
color = 4;
glyphname = e;
kernLeft = KO_o;
kernRight = KO_e;
lastChange = "2024-07-03 16:10:11 +0000";
layers = (
{
anchors = (
{
name = bottom;
pos = (271,0);
},
{
name = ogonek;
pos = (287,-12);
},
{
name = top;
pos = (274,480);
}
);
layerId = m01;
shapes = (
{
closed = 1;
nodes = (
(351,-12,o),
(416,24,o),
(455,82,c),
(455,106,l),
(416,71,o),
(360,53,o),
(302,53,cs),
(204,53,o),
(129,102,o),
(129,254,c),
(478,254,l),
(478,400,o),
(403,492,o),
(284,492,cs),
(138,492,o),
(35,381,o),
(35,222,cs),
(35,85,o),
(132,-12,o),
(271,-12,cs)
);
},
{
closed = 1;
nodes = (
(146,381,o),
(196,438,o),
(263,438,cs),
(330,438,o),
(372,391,o),
(372,315,c),
(133,297,l)
);
}
);
width = 513;
}
);
metricLeft = "=o";
metricRight = "=o";
unicode = 101;
userData = {
KernOnName = e;
};
},
{
glyphname = eogonek;
kernLeft = KO_o;
kernRight = KO_e;
lastChange = "2024-07-02 17:20:29 +0000";
layers = (
{
anchors = (
{
name = bottom;
pos = (271,0);
},
{
name = ogonek;
pos = (287,-12);
},
{
name = top;
pos = (262,480);
}
);
layerId = m01;
shapes = (
{
closed = 1;
nodes = (
(354,-12,o),
(425,22,o),
(468,82,c),
(446,106,l),
(409,71,o),
(361,53,o),
(302,53,cs),
(191,53,o),
(129,124,o),
(129,250,cs),
(129,360,o),
(184,438,o),
(263,438,cs),
(330,438,o),
(372,391,o),
(372,315,c),
(95,294,l),
(95,254,l),
(478,254,l),
(478,400,o),
(403,492,o),
(284,492,cs),
(138,492,o),
(35,381,o),
(35,222,cs),
(35,85,o),
(132,-12,o),
(271,-12,cs)
);
},
{
closed = 1;
nodes = (
(391,-251,o),
(441,-215,o),
(458,-158,c),
(444,-148,l),
(425,-169,o),
(395,-182,o),
(367,-182,cs),
(326,-182,o),
(306,-160,o),
(306,-116,cs),
(306,-65,o),
(337,-15,o),
(386,13,c),
(386,31,l),
(308,31,l),
(308,-12,l),
(256,-50,o),
(224,-103,o),
(224,-150,cs),
(224,-212,o),
(264,-251,o),
(328,-251,cs)
);
}
);
width = 513;
}
);
metricLeft = "=e";
metricRight = "=e";
unicode = 281;
},
{
color = 9;
glyphname = eopen;
kernLeft = KO_o;
kernRight = KO_eopen;
lastChange = "2024-07-02 17:20:34 +0000";
layers = (
{
anchors = (
{
name = bottom;
pos = (239,0);
},
{
name = top;
pos = (239,480);
}
);
layerId = m01;
shapes = (
{
closed = 1;
nodes = (
(324,-12,o),
(402,14,o),
(446,82,c),
(446,106,l),
(409,71,o),
(328,53,o),
(271,53,cs),
(188,53,o),
(129,90,o),
(129,143,cs),
(129,196,o),
(174,233,o),
(238,233,cs),
(275,233,l),
(275,280,l),
(238,280,ls),
(182,280,o),
(143,309,o),
(143,350,cs),
(143,402,o),
(181,438,o),
(236,438,cs),
(315,438,o),
(360,393,o),
(379,338,c),
(385,338,l),
(437,442,l),
(387,474,o),
(321,492,o),
(253,492,cs),
(136,492,o),
(54,436,o),
(54,357,cs),
(54,313,o),
(87,279,o),
(139,262,c),
(75,242,o),
(35,198,o),
(35,143,cs),
(35,52,o),
(128,-12,o),
(261,-12,cs)
);
}
);
width = 467;
}
);
metricLeft = "=e";
metricRight = "=c";
unicode = 603;
userData = {
KernOnName = eopen;
};
},
{
color = 9;
glyphname = esh;
kernLeft = KO_esh;
lastChange = "2024-07-01 09:18:18 +0000";
layers = (
{
layerId = m01;
shapes = (
{
closed = 1;
nodes = (
(270,-251,o),
(336,-166,o),
(336,-31,cs),
(336,585,ls),
(336,665,o),
(342,723,o),
(386,723,cs),
(420,723,o),
(438,690,o),
(444,639,c),
(450,639,l),
(508,742,l),
(469,766,o),
(435,777,o),
(398,777,cs),
(296,777,o),
(246,704,o),
(246,557,cs),
(246,-59,ls),
(246,-153,o),
(217,-200,o),
(171,-200,c),
(137,-200,o),
(104,-164,o),
(98,-113,c),
(92,-113,l),
(34,-211,l),
(71,-237,o),
(117,-251,o),
(164,-251,cs)
);
}
);
width = 463;
}
);
metricLeft = "=j";
metricRight = "=f";
unicode = 643;
},
{
color = 9;
glyphname = estroke;
kernLeft = KO_o;
kernRight = KO_e;
lastChange = "2024-07-02 17:20:57 +0000";
layers = (
{
layerId = m01;
shapes = (
{
closed = 1;
nodes = (
(429,599,l),
(393,615,l),
(60,-97,l),
(97,-113,l)
);
},
{
ref = e;
}
);
width = 513;
}
);
unicode = 583;
},
{
color = 9;
glyphname = ezh;
lastChange = "2024-07-01 13:48:29 +0000";
layers = (
{
anchors = (
{
name = bottom;
pos = (277,0);
},
{
name = top;
pos = (277,480);
}
);
layerId = m01;
shapes = (
{
closed = 1;
nodes = (
(410,-251,o),
(518,-147,o),
(518,0,cs),
(518,117,o),
(429,196,o),
(283,213,c),
(491,470,l),
(483,480,l),
(64,480,l),
(87,327,l),
(93,327,l),
(107,367,o),
(153,417,o),
(247,417,c),
(382,417,l),
(192,181,l),
(199,173,l),
(221,173,l),
(332,173,o),
(419,92,o),
(419,-12,cs),
(419,-117,o),
(347,-200,o),
(256,-200,cs),
(148,-200,o),
(111,-121,o),
(97,-71,c),
(91,-71,l),
(35,-175,l),
(111,-230,o),
(173,-251,o),
(256,-251,cs)
);
}
);
width = 553;
}
);
metricLeft = "=three";
metricRight = "=three";
unicode = 658;
},
{
color = 9;
glyphname = ezhreversed;
lastChange = "2024-07-01 14:00:51 +0000";
layers = (
{
layerId = m01;
shapes = (
{
closed = 1;
nodes = (
(208,-195,o),
(134,-117,o),
(134,-12,cs),
(134,92,o),
(221,173,o),
(332,173,c),
(354,173,l),
(361,181,l),
(171,417,l),
(296,417,l),
(390,417,o),
(436,367,o),
(450,327,c),
(456,327,l),
(479,480,l),
(70,480,l),
(62,470,l),
(270,213,l),
(124,196,o),
(35,117,o),
(35,0,cs),
(35,-147,o),
(143,-251,o),
(297,-251,cs),
(411,-251,o),
(501,-181,o),
(527,-121,c),
(527,-84,l),
(466,-167,o),
(392,-195,o),
(302,-195,cs)
);
}
);
width = 562;
}
);
metricLeft = "=three";
metricRight = "=three";
unicode = 441;
userData = {
KernOnName = ezhreversed;
};
},
{
color = 4;
glyphname = f;
kernLeft = KO_f;
kernRight = KO_f;
lastChange = "2024-07-03 16:52:50 +0000";
layers = (
{
anchors = (
{
name = bottom;
pos = (167,0);
},
{
name = top;
pos = (246,745);
}
);
layerId = m01;
shapes = (
{
closed = 1;
nodes = (
(87,103,ls),
(87,35,o),
(50,5,o),
(50,5,c),
(50,0,l),
(214,0,l),
(214,4,l),
(214,4,o),
(177,35,o),
(177,103,cs),
(177,585,ls),
(177,711,o),
(219,726,o),
(246,726,cs),
(306,726,o),
(325,634,o),
(325,634,c),
(331,634,l),
(389,737,l),
(354,762,o),
(309,777,o),
(259,777,cs),
(99,777,o),
(87,604,o),
(87,557,cs)
);
},
{
closed = 1;
nodes = (
(154,414,l),
(121,517,l),
(35,419,l),
(35,414,l)
);
},
{
closed = 1;
nodes = (
(324,411,l),
(324,492,l),
(322,492,l),
(154,475,l),
(154,430,l),
(323,410,l)
);
}
);
width = 344;
}
);
metricLeft = "=n";
unicode = 102;
userData = {
KernOnName = f;
};
},
{
color = 4;
glyphname = g;
kernLeft = KO_g;
kernRight = KO_g;
lastChange = "2024-07-02 17:48:48 +0000";
layers = (
{
anchors = (
{
name = bottom;
pos = (252,-235);
},
{
name = top;
pos = (239,480);
}
);
layerId = m01;
shapes = (
{
closed = 1;
nodes = (
(308,-12,l),
(321,72,l),
(190,72,l),
(152,72,o),
(123,79,o),
(123,113,c),
(123,134,o),
(135,157,o),
(176,157,c),
(147,186,l),
(94,186,o),
(52,148,o),
(52,85,c),
(52,32,o),
(85,-12,o),
(159,-12,c)
);
},
{
closed = 1;
nodes = (
(261,454,l),
(358,454,l),
(358,461,l),
(482,461,l),
(487,466,l),
(487,570,l),
(482,570,l)
);
},
{
closed = 1;
nodes = (
(194,188,o),
(151,233,o),
(151,328,c),
(151,389,o),
(178,443,o),
(240,443,c),
(291,443,o),
(334,401,o),
(334,303,c),
(334,243,o),
(307,188,o),
(245,188,c)
);
},
{
closed = 1;
nodes = (
(355,139,o),
(428,220,o),
(428,321,c),
(428,422,o),
(354,492,o),
(250,492,c),
(211,492,o),
(57,474,o),
(57,310,c),
(57,210,o),
(130,139,o),
(235,139,c)
);
},
{
closed = 1;
nodes = (
(308,-12,l),
(378,-12,o),
(406,-55,o),
(406,-99,c),
(491,-73,l),
(491,13,o),
(421,72,o),
(321,72,c)
);
},
{
closed = 1;
nodes = (
(406,-99,l),
(406,-162,o),
(356,-205,o),
(265,-205,c),
(175,-205,o),
(122,-164,o),
(122,-101,c),
(122,-64,o),
(138,-27,o),
(160,-12,c),
(160,21,l),
(112,21,l),
(112,-7,l),
(70,-16,o),
(28,-46,o),
(28,-107,c),
(28,-172,o),
(88,-251,o),
(242,-251,c),
(377,-251,o),
(491,-186,o),
(491,-73,c)
);
}
);
width = 519;
}
);
metricLeft = "=o*0.8";
metricRight = "=o*0.8";
unicode = 103;
userData = {
KernOnName = g;
};
},
{
color = 9;
glyphname = "gamma-latin";
kernLeft = KO_v;
kernRight = KO_v;
lastChange = "2024-07-01 14:00:48 +0000";
layers = (
{
layerId = m01;
shapes = (
{
closed = 1;
nodes = (
(409,-251,o),
(439,-105,o),
(336,80,cs),
(169,380,ls),
(135,442,o),
(181,475,o),
(181,475,c),
(181,480,l),
(2,480,l),
(2,475,l),
(2,475,o),
(28,452,o),
(55,406,cs),
(244,65,l),
(221,13,ls),
(152,-142,o),
(171,-251,o),
(267,-251,cs)
);
},
{
closed = 1;
nodes = (
(264,30,l),
(287,-12,l),
(338,-119,o),
(330,-203,o),
(269,-203,cs),
(209,-203,o),
(204,-108,o),
(257,14,cs)
);
},
{
closed = 1;
nodes = (
(458,378,ls),
(490,443,o),
(526,475,o),
(526,475,c),
(526,480,l),
(372,480,l),
(372,475,l),
(372,475,o),
(408,444,o),
(386,388,cs),
(282,127,l),
(306,93,l)
);
}
);
width = 528;
}
);
metricLeft = "=v";
metricRight = "=v";
unicode = 611;
},
{
color = 9;
glyphname = ghook;
lastChange = "2024-07-01 13:58:56 +0000";
layers = (
{
layerId = m01;
shapes = (
{
closed = 1;
nodes = (
(405,-251,o),
(504,-161,o),
(504,-17,cs),
(504,585,ls),
(504,679,o),
(522,726,o),
(559,726,cs),
(601,726,o),
(622,639,o),
(622,639,c),
(628,639,l),
(676,742,l),
(637,766,o),
(603,777,o),
(566,777,cs),
(464,777,o),
(414,704,o),
(414,557,cs),
(414,-33,ls),
(414,-138,o),
(363,-197,o),
(258,-197,cs),
(178,-197,o),
(130,-124,o),
(119,-68,c),
(113,-68,l),
(35,-156,l),
(95,-220,o),
(165,-251,o),
(248,-251,cs)
);
},
{
closed = 1;
nodes = (
(444,73,l),
(444,471,l),
(414,471,l),
(384,485,o),
(348,492,o),
(306,492,cs),
(152,492,o),
(43,382,o),
(43,226,cs),
(43,80,o),
(120,-12,o),
(249,-12,cs),
(280,-12,o),
(310,-4,o),
(339,11,c),
(414,74,l),
(423,74,l)
);
},
{
closed = 1;
nodes = (
(137,358,o),
(203,438,o),
(296,438,cs),
(343,438,o),
(384,424,o),
(414,399,c),
(414,123,l),
(373,78,o),
(329,58,o),
(274,58,cs),
(186,58,o),
(137,125,o),
(137,244,cs)
);
}
);
width = 678;
}
);
metricLeft = "=o";
metricRight = "=v";
unicode = 608;
userData = {
KernOnName = ghook;
};
},
{
color = 9;
glyphname = glottalstop;
lastChange = "2024-07-01 13:54:39 +0000";
layers = (
{
layerId = m01;
shapes = (
{
closed = 1;
nodes = (
(281,52,l),
(281,288,ls),
(281,491,o),
(476,442,o),
(476,610,c),
(476,708,o),
(388,777,o),
(263,777,cs),
(185,777,o),
(91,748,o),
(35,707,c),
(103,595,l),
(109,595,l),
(123,655,o),
(150,723,o),
(254,723,cs),
(329,723,o),
(382,678,o),
(382,615,cs),
(382,493,o),
(191,537,o),
(191,277,cs),
(191,54,l)
);
},
{
closed = 1;
nodes = (
(318,0,l),
(318,4,l),
(318,4,o),
(281,35,o),
(281,103,c),
(191,103,l),
(191,35,o),
(154,5,o),
(154,5,c),
(154,0,l)
);
}
);
width = 511;
}
);
metricLeft = "=question";
metricRight = "=question";
unicode = 660;
},
{
color = 9;
glyphname = glottalstopsmall;
lastChange = "2024-07-01 13:55:30 +0000";
layers = (
{
layerId = m01;
shapes = (
{
closed = 1;
nodes = (
(261,52,l),
(261,134,ls),
(261,211,o),
(419,191,o),
(419,345,c),
(419,439,o),
(352,492,o),
(233,492,cs),
(170,492,o),
(94,465,o),
(35,422,c),
(103,310,l),
(109,310,l),
(123,370,o),
(144,438,o),
(224,438,cs),
(289,438,o),
(325,406,o),
(325,350,cs),
(325,228,o),
(171,287,o),
(171,123,cs),
(171,54,l)
);
},
{
closed = 1;
nodes = (
(298,0,l),
(298,4,l),
(298,4,o),
(261,35,o),
(261,103,c),
(171,103,l),
(171,35,o),
(134,5,o),
(134,5,c),
(134,0,l)
);
}
);
width = 454;
}
);
metricLeft = "=n";
metricRight = "=o";
unicode = 578;
},
{
color = 9;
glyphname = gstroke;
lastChange = "2024-07-01 14:00:38 +0000";
layers = (
{
layerId = m01;
shapes = (
{
closed = 1;
nodes = (
(409,-251,o),
(508,-161,o),
(508,-17,cs),
(508,497,l),
(501,497,l),
(418,425,l),
(418,74,l),
(418,-33,ls),
(418,-138,o),
(367,-197,o),
(258,-197,c),
(178,-197,o),
(130,-124,o),
(119,-68,c),
(113,-68,l),
(35,-156,l),
(95,-220,o),
(165,-251,o),
(248,-251,c)
);
},
{
pos = (236,-42);
ref = strokeshortcomb;
},
{
closed = 1;
nodes = (
(453,73,l),
(453,451,l),
(414,478,o),
(366,492,o),
(310,492,cs),
(156,492,o),
(47,382,o),
(47,226,cs),
(47,80,o),
(124,-12,o),
(253,-12,cs),
(284,-12,o),
(314,-4,o),
(343,11,c),
(418,74,l),
(427,74,l)
);
},
{
closed = 1;
nodes = (
(141,358,o),
(207,438,o),
(300,438,cs),
(347,438,o),
(388,424,o),
(418,399,c),
(418,123,l),
(377,78,o),
(333,58,o),
(278,58,cs),
(190,58,o),
(141,125,o),
(141,244,cs)
);
}
);
width = 614;
}
);
metricLeft = "=o";
metricRight = "=o";
unicode = 485;
userData = {
KernOnName = gstroke;
};
},
{
color = 4;
glyphname = h;
kernLeft = KO_l;
kernRight = KO_h;
lastChange = "2024-07-02 14:48:06 +0000";
layers = (
{
anchors = (
{
name = bottom;
pos = (283,0);
},
{
name = center;
pos = (193,561);
},
{
name = top;
pos = (120,745);
}
);
layerId = m01;
shapes = (
{
closed = 1;
nodes = (
(463,103,l),
(463,311,l),
(463,432,o),
(408,492,o),
(311,492,c),
(277,492,o),
(250,484,o),
(226,469,c),
(162,391,l),
(162,351,l),
(162,351,o),
(206,418,o),
(269,418,c),
(329,418,o),
(373,382,o),
(373,287,c),
(373,103,l)
);
},
{
closed = 1;
nodes = (
(199,0,l),
(199,4,l),
(199,4,o),
(162,35,o),
(162,103,c),
(72,103,l),
(72,35,o),
(35,5,o),
(35,5,c),
(35,0,l)
);
},
{
closed = 1;
nodes = (
(500,0,l),
(500,4,l),
(500,4,o),
(463,35,o),
(463,103,c),
(373,103,l),
(373,35,o),
(336,5,o),
(336,5,c),
(336,0,l)
);
},
{
closed = 1;
nodes = (
(162,103,l),
(162,765,l),
(157,765,l),
(35,709,l),
(35,704,l),
(35,704,o),
(72,671,o),
(72,598,c),
(72,103,l)
);
}
);
width = 535;
}
);
metricLeft = "=n";
metricRight = "=n";
unicode = 104;
userData = {
KernOnName = h;
};
},
{
color = 9;
glyphname = heng;
lastChange = "2024-07-01 14:00:34 +0000";
layers = (
{
layerId = m01;
shapes = (
{
closed = 1;
nodes = (
(463,103,l),
(463,311,l),
(463,432,o),
(408,492,o),
(311,492,c),
(277,492,o),
(250,484,o),
(226,469,c),
(162,391,l),
(162,351,l),
(162,351,o),
(206,418,o),
(269,418,c),
(329,418,o),
(373,382,o),
(373,287,c),
(373,103,l)
);
},
{
closed = 1;
nodes = (
(199,0,l),
(199,4,l),
(199,4,o),
(162,35,o),
(162,103,c),
(72,103,l),
(72,35,o),
(35,5,o),
(35,5,c),
(35,0,l)
);
},
{
closed = 1;
nodes = (
(162,103,l),
(162,765,l),
(157,765,l),
(35,709,l),
(35,704,l),
(35,704,o),
(72,671,o),
(72,598,c),
(72,103,l)
);
},
{
closed = 1;
nodes = (
(299,-235,c),
(310,-235,l),
(363,-206,o),
(402,-172,o),
(426,-135,c),
(450,-98,o),
(463,-53,o),
(463,0,c),
(463,103,l),
(373,103,l),
(373,-48,l),
(373,-117,o),
(346,-184,o)
);
}
);
width = 558;
}
);
metricLeft = "=h";
metricRight = "=jdotless";
unicode = 42791;
},
{
color = 9;
glyphname = hhook;
kernRight = KO_h;
lastChange = "2024-07-01 10:11:07 +0000";
layers = (
{
layerId = m01;
shapes = (
{
closed = 1;
nodes = (
(147,81,l),
(162,52,l),
(162,585,ls),
(162,679,o),
(185,726,o),
(231,726,c),
(277,726,o),
(310,639,o),
(310,639,c),
(316,639,l),
(374,737,l),
(337,763,o),
(291,777,o),
(244,777,cs),
(138,777,o),
(72,692,o),
(72,557,cs),
(72,54,l),
(88,82,l)
);
},
{
closed = 1;
nodes = (
(199,0,l),
(199,4,l),
(199,4,o),
(162,35,o),
(162,103,c),
(72,103,l),
(72,35,o),
(35,5,o),
(35,5,c),
(35,0,l)
);
},
{
closed = 1;
nodes = (
(463,103,l),
(463,311,l),
(463,432,o),
(408,492,o),
(311,492,c),
(277,492,o),
(250,484,o),
(226,469,c),
(162,391,l),
(162,351,l),
(162,351,o),
(206,418,o),
(269,418,c),
(329,418,o),
(373,382,o),
(373,287,c),
(373,103,l)
);
},
{
closed = 1;
nodes = (
(500,0,l),
(500,4,l),
(500,4,o),
(463,35,o),
(463,103,c),
(373,103,l),
(373,35,o),
(336,5,o),
(336,5,c),
(336,0,l)
);
}
);
width = 535;
}
);
metricLeft = "=h";
metricRight = "=h";
unicode = 614;
},
{
color = 4;
glyphname = idotless;
kernLeft = KO_n;
kernRight = KO_fi;
lastChange = "2024-05-30 08:45:44 +0000";
layers = (
{
anchors = (
{
name = bottom;
pos = (111,0);
},
{
name = ogonek;
pos = (130,-12);
},
{
name = top;
pos = (118,480);
}
);
layerId = m01;
shapes = (
{
closed = 1;
nodes = (
(162,103,l),
(162,391,l),
(162,484,l),
(157,484,l),
(35,428,l),
(35,423,l),
(35,423,o),
(72,390,o),
(72,317,c),
(72,103,l)
);
},
{
closed = 1;
nodes = (
(199,0,l),
(199,4,l),
(199,4,o),
(162,35,o),
(162,103,c),
(72,103,l),
(72,35,o),
(35,5,o),
(35,5,c),
(35,0,l)
);
}
);
width = 234;
}
);
metricLeft = "=n";
metricRight = "=n";
unicode = 305;
},
{
glyphname = iogonek;
kernRight = KO_l;
lastChange = "2023-12-22 05:53:32 +0000";
layers = (
{
layerId = m01;
shapes = (
{
closed = 1;
nodes = (
(204,-251,o),
(254,-215,o),
(271,-158,c),
(257,-148,l),
(238,-169,o),
(208,-182,o),
(180,-182,cs),
(139,-182,o),
(119,-160,o),
(119,-116,cs),
(119,-63,o),
(138,-21,o),
(171,0,c),
(171,26,l),
(127,26,l),
(127,-2,l),
(69,-32,o),
(37,-86,o),
(37,-150,cs),
(37,-212,o),
(77,-251,o),
(141,-251,cs)
);
},
{
ref = idotless;
},
{
pos = (44,0);
ref = dotaccentcomb;
}
);
width = 294;
}
);
unicode = 303;
},
{
color = 9;
glyphname = "iota-latin";
lastChange = "2024-06-27 12:25:31 +0000";
layers = (
{
anchors = (
{
name = bottom;
pos = (116,0);
},
{
name = top;
pos = (100,480);
}
);
layerId = m01;
shapes = (
{
closed = 1;
nodes = (
(223,13,l),
(163,17,o),
(143,43,o),
(143,115,cs),
(143,480,l),
(53,480,l),
(53,115,ls),
(53,13,o),
(100,-18,o),
(223,0,c)
);
}
);
width = 258;
}
);
metricLeft = "=o*1.5";
metricRight = "=n";
unicode = 617;
},
{
glyphname = istroke;
lastChange = "2024-06-29 21:24:32 +0000";
layers = (
{
layerId = m01;
shapes = (
{
pos = (1,0);
ref = idotless;
},
{
pos = (45,0);
ref = dotaccentcomb;
},
{
closed = 1;
nodes = (
(273,209,l),
(273,255,l),
(35,255,l),
(35,209,l)
);
}
);
width = 308;
}
);
metricLeft = "=i";
metricRight = "=i";
unicode = 616;
},
{
color = 4;
glyphname = jdotless;
kernLeft = KO_j;
lastChange = "2024-07-01 10:32:34 +0000";
layers = (
{
anchors = (
{
name = top;
pos = (154,480);
}
);
layerId = m01;
name = Light;
shapes = (
{
closed = 1;
nodes = (
(34,-235,c),
(45,-235,l),
(98,-206,o),
(137,-172,o),
(161,-135,c),
(185,-98,o),
(198,-53,o),
(198,0,c),
(198,103,l),
(108,103,l),
(108,-48,l),
(108,-117,o),
(81,-184,o)
);
},
{
closed = 1;
nodes = (
(198,103,l),
(198,391,l),
(198,484,l),
(193,484,l),
(71,428,l),
(71,423,l),
(71,423,o),
(107,390,o),
(107,317,c),
(108,103,l)
);
}
);
width = 293;
}
);
unicode = 567;
},
{
color = 9;
glyphname = jcrossedtail;
lastChange = "2024-07-01 14:03:12 +0000";
layers = (
{
anchors = (
{
name = top;
pos = (154,480);
}
);
layerId = m01;
shapes = (
{
closed = 1;
nodes = (
(153,-251,o),
(198,-175,o),
(198,0,cs),
(198,391,l),
(107,391,l),
(108,-116,ls),
(108,-173,o),
(87,-205,o),
(49,-205,cs),
(14,-205,o),
(-10,-179,o),
(-10,-142,cs),
(-10,-110,o),
(19,-91,o),
(71,-88,cs),
(295,-74,l),
(295,-42,l),
(71,-42,ls),
(-13,-42,o),
(-65,-81,o),
(-65,-142,cs),
(-65,-209,o),
(-21,-251,o),
(49,-251,cs)
);
},
{
pos = (44,0);
ref = dotaccentcomb;
},
{
closed = 1;
nodes = (
(198,103,l),
(198,391,l),
(198,484,l),
(193,484,l),
(71,428,l),
(71,423,l),
(71,423,o),
(107,390,o),
(107,317,c),
(108,103,l)
);
}
);
width = 297;
}
);
metricRight = "=v";
unicode = 669;
},
{
color = 4;
glyphname = k;
kernLeft = KO_l;
kernRight = KO_k;
lastChange = "2024-07-02 15:25:16 +0000";
layers = (
{
anchors = (
{
name = bottom;
pos = (297,0);
},
{
name = top;
pos = (120,745);
}
);
layerId = m01;
name = Light;
shapes = (
{
closed = 1;
nodes = (
(456,50,l),
(237,350,l),
(162,300,l),
(345,50,l)
);
},
{
closed = 1;
nodes = (
(199,0,l),
(199,5,l),
(199,5,o),
(162,35,o),
(162,103,c),
(72,103,l),
(72,35,o),
(35,5,o),
(35,5,c),
(35,0,l)
);
},
{
closed = 1;
nodes = (
(511,0,l),
(511,5,l),
(511,5,o),
(467,35,o),
(418,103,c),
(306,103,l),
(355,35,o),
(340,5,o),
(340,5,c),
(340,0,l)
);
},
{
closed = 1;
nodes = (
(162,672,l),
(72,675,l),
(72,54,l),
(162,52,l)
);
},
{
closed = 1;
nodes = (
(404,445,l),
(291,445,l),
(162,300,l),
(212,256,l)
);
},
{
closed = 1;
nodes = (
(404,445,o),
(454,475,o),
(454,475,c),
(454,480,l),
(277,480,l),
(277,475,l),
(277,475,o),
(291,445,o),
(245,393,c),
(335,378,l)
);
},
{
closed = 1;
nodes = (
(162,672,l),
(162,765,l),
(157,765,l),
(35,709,l),
(35,704,l),
(35,704,o),
(72,671,o),
(72,598,c)
);
}
);
width = 513;
}
);
metricLeft = "=n";
metricRight = "=v";
unicode = 107;
userData = {
KernOnName = k;
};
},
{
color = 4;
glyphname = kgreenlandic;
kernRight = KO_k;
lastChange = "2024-07-02 17:23:20 +0000";
layers = (
{
layerId = m01;
shapes = (
{
closed = 1;
nodes = (
(165,54,l),
(165,480,l),
(35,480,l),
(35,475,l),
(35,475,o),
(75,443,o),
(75,370,c),
(75,54,l)
);
},
{
closed = 1;
nodes = (
(459,50,l),
(240,350,l),
(165,300,l),
(348,50,l)
);
},
{
closed = 1;
nodes = (
(514,0,l),
(514,5,l),
(514,5,o),
(470,35,o),
(421,103,c),
(309,103,l),
(358,35,o),
(343,5,o),
(343,5,c),
(343,0,l)
);
},
{
closed = 1;
nodes = (
(407,445,l),
(294,445,l),
(165,300,l),
(215,256,l)
);
},
{
closed = 1;
nodes = (
(407,445,o),
(457,475,o),
(457,475,c),
(457,480,l),
(280,480,l),
(280,475,l),
(280,475,o),
(294,445,o),
(248,393,c),
(338,378,l)
);
},
{
closed = 1;
nodes = (
(202,0,l),
(202,5,l),
(202,5,o),
(165,35,o),
(165,103,c),
(75,103,l),
(75,35,o),
(38,5,o),
(38,5,c),
(38,0,l)
);
}
);
width = 516;
}
);
metricLeft = "=k";
metricRight = "=k";
unicode = 312;
},
{
color = 9;
glyphname = khook;
kernLeft = KO_l;
kernRight = KO_k;
lastChange = "2024-07-02 17:23:20 +0000";
layers = (
{
layerId = m01;
shapes = (
{
closed = 1;
nodes = (
(108,54,l),
(198,52,l),
(198,585,ls),
(198,679,o),
(221,726,o),
(267,726,c),
(313,726,o),
(346,639,o),
(346,639,c),
(352,639,l),
(410,737,l),
(373,763,o),
(327,777,o),
(280,777,cs),
(174,777,o),
(108,692,o),
(108,557,cs)
);
},
{
closed = 1;
nodes = (
(235,0,l),
(235,5,l),
(235,5,o),
(198,35,o),
(198,103,c),
(108,103,l),
(108,35,o),
(71,5,o),
(71,5,c),
(71,0,l)
);
},
{
closed = 1;
nodes = (
(492,50,l),
(273,350,l),
(198,300,l),
(381,50,l)
);
},
{
closed = 1;
nodes = (
(547,0,l),
(547,5,l),
(547,5,o),
(503,35,o),
(454,103,c),
(342,103,l),
(391,35,o),
(376,5,o),
(376,5,c),
(376,0,l)
);
},
{
closed = 1;
nodes = (
(440,445,l),
(327,445,l),
(198,300,l),
(248,256,l)
);
},
{
closed = 1;
nodes = (
(440,445,o),
(490,475,o),
(490,475,c),
(490,480,l),
(313,480,l),
(313,475,l),
(313,475,o),
(327,445,o),
(281,393,c),
(371,378,l)
);
}
);
width = 549;
}
);
metricRight = "=k";
unicode = 409;
},
{
color = 4;
glyphname = l;
kernLeft = KO_l;
kernRight = KO_l;
lastChange = "2024-07-03 16:51:58 +0000";
layers = (
{
anchors = (
{
name = bottom;
pos = (111,0);
},
{
name = center;
pos = (117,383);
},
{
name = top;
pos = (118,735);
},
{
name = topright;
pos = (182,761);
}
);
layerId = m01;
shapes = (
{
closed = 1;
nodes = (
(162,103,l),
(162,765,l),
(157,765,l),
(35,709,l),
(35,704,l),
(35,704,o),
(72,671,o),
(72,598,c),
(72,103,l)
);
},
{
closed = 1;
nodes = (
(199,0,l),
(199,4,l),
(199,4,o),
(162,35,o),
(162,103,c),
(72,103,l),
(72,35,o),
(35,5,o),
(35,5,c),
(35,0,l)
);
}
);
width = 234;
}
);
metricLeft = "=n";
metricRight = "=n";
unicode = 108;
userData = {
KernOnName = l;
};
},
{
color = 9;
glyphname = lambdastroke;
lastChange = "2024-07-01 14:03:27 +0000";
layers = (
{
layerId = m01;
shapes = (
{
closed = 1;
nodes = (
(133,0,l),
(334,397,l),
(421,83,ls),
(441,13,o),
(494,-12,o),
(596,0,c),
(596,18,l),
(556,18,o),
(524,61,o),
(502,117,cs),
(315,589,ls),
(273,696,o),
(207,750,o),
(96,768,c),
(92,768,l),
(77,730,l),
(77,722,l),
(178,703,o),
(236,653,o),
(267,557,cs),
(286,497,l),
(35,0,l)
);
},
{
closed = 1;
nodes = (
(381,690,l),
(381,739,l),
(91,585,l),
(91,536,l)
);
}
);
width = 598;
}
);
metricLeft = "=o";
metricRight = "=v";
unicode = 411;
},
{
color = 9;
glyphname = lbar;
lastChange = "2024-04-28 05:32:20 +0000";
layers = (
{
layerId = m01;
shapes = (
{
pos = (5,0);
ref = l;
},
{
closed = 1;
nodes = (
(310,359,l),
(310,405,l),
(2,405,l),
(2,359,l)
);
}
);
width = 312;
}
);
metricLeft = "=v";
metricRight = "=v";
unicode = 410;
},
{
color = 9;
glyphname = lbelt;
lastChange = "2024-04-28 05:36:14 +0000";
layers = (
{
layerId = m01;
shapes = (
{
pos = (44,0);
ref = l;
},
{
closed = 1;
nodes = (
(352,295,l),
(352,341,l),
(125,341,ls),
(83,341,o),
(54,363,o),
(54,395,cs),
(54,425,o),
(74,446,o),
(103,446,cs),
(132,446,o),
(152,425,o),
(152,395,c),
(204,395,l),
(204,452,o),
(162,492,o),
(103,492,cs),
(44,492,o),
(2,452,o),
(2,395,cs),
(2,334,o),
(49,295,o),
(125,295,cs)
);
}
);
width = 354;
}
);
metricLeft = "=v";
metricRight = "=v";
unicode = 620;
},
{
glyphname = ldot;
lastChange = "2024-05-30 08:45:44 +0000";
layers = (
{
anchors = (
{
name = bottom;
pos = (148,0);
},
{
name = center;
pos = (154,383);
},
{
name = top;
pos = (148,765);
},
{
name = topright;
pos = (275,765);
}
);
layerId = m01;
shapes = (
{
closed = 1;
nodes = (
(273,0,l),
(273,14,l),
(184,81,l),
(199,52,l),
(199,765,l),
(176,765,l),
(36,709,l),
(36,694,l),
(152,612,l),
(109,675,l),
(109,54,l),
(125,82,l),
(35,14,l),
(35,0,l)
);
},
{
closed = 1;
nodes = (
(356,284,o),
(387,314,o),
(387,356,cs),
(387,398,o),
(356,428,o),
(311,428,cs),
(266,428,o),
(235,398,o),
(235,356,cs),
(235,314,o),
(266,284,o),
(311,284,cs)
);
}
);
width = 315;
}
);
metricLeft = "=l";
unicode = 320;
userData = {
KernOnSpecialSpacing = {
R = NoKerning;
};
};
},
{
color = 9;
glyphname = ldoublebar;
lastChange = "2024-04-29 12:05:52 +0000";
layers = (
{
layerId = m01;
shapes = (
{
closed = 1;
nodes = (
(310,408,l),
(310,454,l),
(2,454,l),
(2,408,l)
);
},
{
closed = 1;
nodes = (
(310,308,l),
(310,354,l),
(2,354,l),
(2,308,l)
);
},
{
pos = (5,0);
ref = l;
}
);
width = 312;
}
);
metricLeft = "=v";
metricRight = "=v";
unicode = 11361;
},
{
color = 4;
glyphname = m;
kernLeft = KO_n;
kernRight = KO_n;
lastChange = "2024-07-02 17:53:12 +0000";
layers = (
{
anchors = (
{
name = bottom;
pos = (446,0);
},
{
name = top;
pos = (446,480);
}
);
layerId = m01;
shapes = (
{
closed = 1;
nodes = (
(764,103,l),
(764,311,l),
(764,432,o),
(709,492,o),
(612,492,c),
(578,492,o),
(551,484,o),
(528,469,c),
(448,373,l),
(454,339,l),
(463,351,l),
(463,351,o),
(508,418,o),
(570,418,c),
(630,418,o),
(674,382,o),
(674,287,c),
(674,103,l)
);
},
{
closed = 1;
nodes = (
(199,0,l),
(199,5,l),
(199,5,o),
(162,35,o),
(162,103,c),
(72,103,l),
(72,35,o),
(35,5,o),
(35,5,c),
(35,0,l)
);
},
{
closed = 1;
nodes = (
(162,103,l),
(162,391,l),
(159,391,l),
(162,484,l),
(157,484,l),
(35,428,l),
(35,423,l),
(35,423,o),
(72,390,o),
(72,317,c),
(72,103,l)
);
},
{
closed = 1;
nodes = (
(500,0,l),
(500,4,l),
(500,4,o),
(463,35,o),
(463,103,c),
(373,103,l),
(373,35,o),
(336,5,o),
(336,5,c),
(336,0,l)
);
},
{
closed = 1;
nodes = (
(463,103,l),
(463,311,l),
(463,432,o),
(408,492,o),
(311,492,c),
(277,492,o),
(250,484,o),
(227,469,c),
(162,391,l),
(162,351,l),
(162,351,o),
(207,418,o),
(269,418,c),
(329,418,o),
(373,382,o),
(373,287,c),
(373,103,l)
);
},
{
closed = 1;
nodes = (
(801,0,l),
(801,4,l),
(801,4,o),
(764,35,o),
(764,103,c),
(674,103,l),
(674,35,o),
(637,5,o),
(637,5,c),
(637,0,l)
);
},
{
closed = 1;
nodes = (
(463,311,l),
(463,351,l),
(454,351,l),
(454,311,l)
);
}
);
width = 836;
}
);
metricLeft = "=n";
metricRight = "=n";
unicode = 109;
userData = {
KernOnName = m;
};
},
{
color = 9;
glyphname = mturned;
kernRight = KO_u;
lastChange = "2024-07-01 14:16:57 +0000";
layers = (
{
layerId = m01;
shapes = (
{
closed = 1;
nodes = (
(162,317,l),
(162,484,l),
(157,484,l),
(35,428,l),
(35,423,l),
(35,423,o),
(72,390,o),
(72,317,c)
);
},
{
closed = 1;
nodes = (
(463,317,l),
(463,484,l),
(458,484,l),
(336,428,l),
(336,423,l),
(336,423,o),
(373,390,o),
(373,317,c)
);
},
{
closed = 1;
nodes = (
(764,317,l),
(764,484,l),
(759,484,l),
(637,428,l),
(637,423,l),
(637,423,o),
(674,390,o),
(674,317,c)
);
},
{
closed = 1;
nodes = (
(764,401,l),
(674,401,l),
(674,87,l),
(677,87,l),
(704,-12,l),
(715,-12,l),
(801,35,l),
(801,43,l),
(801,43,o),
(764,76,o),
(764,149,c)
);
},
{
closed = 1;
nodes = (
(373,377,l),
(373,169,l),
(373,48,o),
(428,-12,o),
(525,-12,c),
(559,-12,o),
(586,-4,o),
(609,11,c),
(689,107,l),
(683,141,l),
(674,129,l),
(674,129,o),
(629,62,o),
(567,62,c),
(507,62,o),
(463,98,o),
(463,193,c),
(463,377,l)
);
},
{
closed = 1;
nodes = (
(382,107,l),
(382,169,l),
(373,169,l),
(373,107,l)
);
},
{
closed = 1;
nodes = (
(72,377,l),
(72,169,l),
(72,48,o),
(127,-12,o),
(224,-12,c),
(258,-12,o),
(285,-4,o),
(308,11,c),
(388,107,l),
(382,141,l),
(373,129,l),
(373,129,o),
(328,62,o),
(266,62,c),
(206,62,o),
(162,98,o),
(162,193,c),
(162,377,l)
);
}
);
width = 836;
}
);
metricLeft = "=u";
metricRight = "=u";
unicode = 623;
},
{
color = 4;
glyphname = n;
kernLeft = KO_n;
kernRight = KO_n;
lastChange = "2024-07-03 15:21:18 +0000";
layers = (
{
anchors = (
{
name = bottom;
pos = (283,0);
},
{
name = top;
pos = (293,480);
}
);
layerId = m01;
shapes = (
{
closed = 1;
nodes = (
(463,103,l),
(463,311,l),
(463,432,o),
(408,492,o),
(311,492,c),
(277,492,o),
(250,484,o),
(226,469,c),
(162,391,l),
(162,351,l),
(162,351,o),
(206,418,o),
(269,418,c),
(329,418,o),
(373,382,o),
(373,287,c),
(373,103,l)
);
},
{
closed = 1;
nodes = (
(199,0,l),
(199,4,l),
(199,4,o),
(162,35,o),
(162,103,c),
(72,103,l),
(72,35,o),
(35,5,o),
(35,5,c),
(35,0,l)
);
},
{
closed = 1;
nodes = (
(162,103,l),
(162,391,l),
(159,391,l),
(162,484,l),
(157,484,l),
(35,428,l),
(35,423,l),
(35,423,o),
(71,390,o),
(71,317,c),
(72,103,l)
);
},
{
closed = 1;
nodes = (
(500,0,l),
(500,4,l),
(500,4,o),
(463,35,o),
(463,103,c),
(373,103,l),
(373,35,o),
(336,5,o),
(336,5,c),
(336,0,l)
);
}
);
width = 535;
}
);
unicode = 110;
userData = {
KernOnName = n;
KernOnSpecialSpacing = {
};
};
},
{
color = 9;
glyphname = nhookleft;
kernLeft = KO_p;
kernRight = KO_h;
lastChange = "2024-07-01 09:56:26 +0000";
layers = (
{
anchors = (
{
name = bottom;
pos = (319,0);
},
{
name = top;
pos = (329,480);
}
);
layerId = m01;
shapes = (
{
closed = 1;
nodes = (
(536,0,l),
(536,4,l),
(536,4,o),
(499,35,o),
(499,103,c),
(409,103,l),
(409,35,o),
(372,5,o),
(372,5,c),
(372,0,l)
);
},
{
closed = 1;
nodes = (
(499,103,l),
(499,311,l),
(499,432,o),
(444,492,o),
(347,492,c),
(313,492,o),
(286,484,o),
(262,469,c),
(198,391,l),
(198,351,l),
(198,351,o),
(242,418,o),
(305,418,c),
(365,418,o),
(409,382,o),
(409,287,c),
(409,103,l)
);
},
{
closed = 1;
nodes = (
(198,103,l),
(198,391,l),
(195,391,l),
(198,484,l),
(193,484,l),
(71,428,l),
(71,423,l),
(71,423,o),
(107,390,o),
(107,317,c),
(108,103,l)
);
},
{
closed = 1;
nodes = (
(34,-235,l),
(45,-235,l),
(98,-206,o),
(137,-172,o),
(161,-135,c),
(185,-98,o),
(198,-53,o),
(198,0,c),
(198,103,l),
(108,103,l),
(108,-48,l),
(108,-117,o),
(81,-184,o),
(34,-235,c)
);
}
);
width = 571;
}
);
metricLeft = j;
metricRight = "=n";
unicode = 626;
},
{
color = 9;
glyphname = nlongrightleg;
lastChange = "2024-07-01 14:17:35 +0000";
layers = (
{
layerId = m01;
shapes = (
{
closed = 1;
nodes = (
(463,-132,l),
(463,311,l),
(463,432,o),
(408,492,o),
(311,492,c),
(277,492,o),
(250,484,o),
(226,469,c),
(162,391,l),
(162,351,l),
(162,351,o),
(206,418,o),
(269,418,c),
(329,418,o),
(373,382,o),
(373,287,c),
(373,-132,l)
);
},
{
closed = 1;
nodes = (
(199,0,l),
(199,4,l),
(199,4,o),
(162,35,o),
(162,103,c),
(72,103,l),
(72,35,o),
(35,5,o),
(35,5,c),
(35,0,l)
);
},
{
closed = 1;
nodes = (
(162,103,l),
(162,391,l),
(159,391,l),
(162,484,l),
(157,484,l),
(35,428,l),
(35,423,l),
(35,423,o),
(71,390,o),
(71,317,c),
(72,103,l)
);
},
{
closed = 1;
nodes = (
(500,-235,l),
(500,-231,l),
(500,-231,o),
(463,-200,o),
(463,-132,c),
(373,-132,l),
(373,-200,o),
(336,-230,o),
(336,-230,c),
(336,-235,l)
);
}
);
width = 535;
}
);
metricLeft = "=n";
metricRight = "=n";
unicode = 414;
},
{
color = 4;
glyphname = eng;
kernLeft = KO_n;
lastChange = "2024-07-01 09:57:25 +0000";
layers = (
{
layerId = m01;
shapes = (
{
closed = 1;
nodes = (
(199,0,l),
(199,4,l),
(199,4,o),
(162,35,o),
(162,103,c),
(72,103,l),
(72,35,o),
(35,5,o),
(35,5,c),
(35,0,l)
);
},
{
closed = 1;
nodes = (
(463,103,l),
(463,311,l),
(463,432,o),
(408,492,o),
(311,492,c),
(277,492,o),
(250,484,o),
(226,469,c),
(162,391,l),
(162,351,l),
(162,351,o),
(206,418,o),
(269,418,c),
(329,418,o),
(373,382,o),
(373,287,c),
(373,103,l)
);
},
{
closed = 1;
nodes = (
(162,103,l),
(162,391,l),
(159,391,l),
(162,484,l),
(157,484,l),
(35,428,l),
(35,423,l),
(35,423,o),
(71,390,o),
(71,317,c),
(72,103,l)
);
},
{
closed = 1;
nodes = (
(299,-235,l),
(310,-235,l),
(363,-206,o),
(402,-172,o),
(426,-135,c),
(450,-98,o),
(463,-53,o),
(463,0,c),
(463,103,l),
(373,103,l),
(373,-48,l),
(373,-117,o),
(346,-184,o),
(299,-235,c)
);
}
);
width = 533;
}
);
metricLeft = "=n";
metricRight = j;
unicode = 331;
userData = {
KernOnName = eng;
};
},
{
color = 4;
glyphname = o;
kernLeft = KO_o;
kernRight = KO_o;
lastChange = "2024-07-02 16:53:53 +0000";
layers = (
{
anchors = (
{
name = bottom;
pos = (287,0);
},
{
name = center;
pos = (287,240);
},
{
name = ogonek;
pos = (366,0);
},
{
name = top;
pos = (287,480);
},
{
name = topright;
pos = (428,373);
}
);
layerId = m01;
shapes = (
{
closed = 1;
nodes = (
(433,-12,o),
(539,94,o),
(539,245,cs),
(539,390,o),
(437,492,o),
(292,492,cs),
(141,492,o),
(35,386,o),
(35,235,cs),
(35,90,o),
(137,-12,o),
(282,-12,cs)
);
},
{
closed = 1;
nodes = (
(197,42,o),
(130,127,o),
(130,248,cs),
(130,360,o),
(193,438,o),
(282,438,cs),
(377,438,o),
(444,353,o),
(444,232,cs),
(444,120,o),
(381,42,o),
(292,42,cs)
);
}
);
width = 574;
}
);
metricRight = "=|";
unicode = 111;
userData = {
KernOnName = o;
};
},
{
color = 9;
glyphname = obarred;
kernLeft = KO_o;
kernRight = KO_o;
lastChange = "2024-04-25 08:16:55 +0000";
layers = (
{
layerId = m01;
shapes = (
{
ref = o;
},
{
closed = 1;
nodes = (
(511,221,l),
(511,267,l),
(78,267,l),
(78,221,l)
);
}
);
width = 592;
}
);
unicode = 629;
},
{
color = 9;
glyphname = "omega-latin";
lastChange = "2024-07-01 15:49:20 +0000";
layers = (
{
layerId = m01;
shapes = (
{
closed = 1;
nodes = (
(330,-12,o),
(378,36,o),
(397,132,c),
(415,36,o),
(463,-12,o),
(539,-12,cs),
(662,-12,o),
(758,103,o),
(758,249,cs),
(758,392,o),
(687,492,o),
(586,492,cs),
(539,492,o),
(493,478,o),
(456,452,c),
(504,354,l),
(510,354,l),
(516,385,o),
(537,441,o),
(583,441,cs),
(626,441,o),
(664,365,o),
(664,257,cs),
(664,126,o),
(612,44,o),
(529,44,cs),
(462,44,o),
(420,122,o),
(420,245,c),
(373,245,l),
(373,122,o),
(331,44,o),
(264,44,cs),
(185,44,o),
(129,132,o),
(129,257,cs),
(129,365,o),
(167,441,o),
(210,441,cs),
(256,441,o),
(277,385,o),
(283,354,c),
(289,354,l),
(337,452,l),
(300,478,o),
(254,492,o),
(207,492,cs),
(106,492,o),
(35,392,o),
(35,249,cs),
(35,96,o),
(125,-12,o),
(254,-12,cs)
);
}
);
width = 793;
}
);
metricLeft = "=o";
metricRight = "=o";
unicode = 42935;
},
{
glyphname = oogonek;
kernLeft = KO_o;
kernRight = KO_o;
lastChange = "2023-12-22 05:54:15 +0000";
layers = (
{
anchors = (
{
name = bottom;
pos = (296,0);
},
{
name = center;
pos = (296,240);
},
{
name = ogonek;
pos = (375,0);
},
{
name = top;
pos = (296,480);
},
{
name = topright;
pos = (572,480);
}
);
layerId = m01;
shapes = (
{
closed = 1;
nodes = (
(442,-12,o),
(548,94,o),
(548,245,cs),
(548,390,o),
(446,492,o),
(301,492,cs),
(150,492,o),
(44,386,o),
(44,235,cs),
(44,90,o),
(146,-12,o),
(291,-12,cs)
);
},
{
closed = 1;
nodes = (
(400,-251,o),
(450,-215,o),
(467,-158,c),
(453,-148,l),
(434,-169,o),
(404,-182,o),
(376,-182,cs),
(335,-182,o),
(315,-160,o),
(315,-116,cs),
(315,-63,o),
(344,-19,o),
(395,7,c),
(395,31,l),
(317,31,l),
(317,-13,l),
(265,-51,o),
(233,-104,o),
(233,-150,cs),
(233,-212,o),
(273,-251,o),
(337,-251,cs)
);
},
{
closed = 1;
nodes = (
(206,42,o),
(139,127,o),
(139,248,cs),
(139,360,o),
(202,438,o),
(291,438,cs),
(386,438,o),
(453,353,o),
(453,232,cs),
(453,120,o),
(390,42,o),
(301,42,cs)
);
}
);
width = 592;
}
);
unicode = 491;
},
{
color = 9;
glyphname = ou;
lastChange = "2024-05-30 08:46:48 +0000";
layers = (
{
layerId = m01;
shapes = (
{
closed = 1;
nodes = (
(417,-12,o),
(519,88,o),
(519,230,cs),
(519,324,o),
(472,399,o),
(397,436,c),
(539,506,o),
(498,713,o),
(434,777,c),
(410,777,l),
(459,628,o),
(403,465,o),
(281,465,cs),
(159,465,o),
(103,628,o),
(152,777,c),
(128,777,l),
(64,713,o),
(23,507,o),
(165,437,c),
(85,398,o),
(35,319,o),
(35,220,cs),
(35,84,o),
(133,-12,o),
(272,-12,cs)
);
},
{
closed = 1;
nodes = (
(189,42,o),
(130,116,o),
(130,233,cs),
(130,341,o),
(185,408,o),
(272,408,cs),
(365,408,o),
(424,334,o),
(424,217,cs),
(424,109,o),
(369,42,o),
(282,42,cs)
);
}
);
width = 554;
}
);
metricLeft = "=o";
metricRight = "=o";
unicode = 547;
},
{
color = 4;
glyphname = oe;
kernLeft = KO_o;
kernRight = KO_e;
lastChange = "2024-05-30 08:46:48 +0000";
layers = (
{
layerId = m01;
shapes = (
{
closed = 1;
nodes = (
(369,-12,o),
(442,24,o),
(487,83,c),
(528,24,o),
(597,-12,o),
(681,-12,cs),
(764,-12,o),
(835,22,o),
(878,82,c),
(856,106,l),
(819,71,o),
(771,53,o),
(712,53,cs),
(617,53,o),
(539,102,o),
(539,254,c),
(888,254,l),
(888,400,o),
(813,492,o),
(694,492,cs),
(609,492,o),
(539,455,o),
(496,392,c),
(452,454,o),
(380,492,o),
(292,492,cs),
(141,492,o),
(35,386,o),
(35,235,cs),
(35,90,o),
(137,-12,o),
(282,-12,cs)
);
},
{
closed = 1;
nodes = (
(197,42,o),
(130,127,o),
(130,248,cs),
(130,360,o),
(193,438,o),
(282,438,cs),
(377,438,o),
(444,353,o),
(444,232,cs),
(444,120,o),
(381,42,o),
(292,42,cs)
);
},
{
closed = 1;
nodes = (
(556,381,o),
(606,438,o),
(673,438,cs),
(740,438,o),
(782,391,o),
(782,315,c),
(543,297,l)
);
}
);
width = 923;
}
);
metricLeft = "=o";
metricRight = "=e";
unicode = 339;
},
{
color = 4;
glyphname = p;
kernLeft = KO_p;
kernRight = KO_b;
lastChange = "2024-07-02 17:55:08 +0000";
layers = (
{
anchors = (
{
name = bottom;
pos = (271,0);
},
{
name = top;
pos = (271,480);
}
);
layerId = m01;
shapes = (
{
closed = 1;
nodes = (
(425,-12,o),
(533,98,o),
(533,254,c),
(533,395,o),
(459,492,o),
(327,492,c),
(296,492,o),
(266,484,o),
(236,469,c),
(162,406,l),
(147,406,l),
(147,340,l),
(186,388,o),
(231,422,o),
(302,422,c),
(396,422,o),
(439,346,o),
(439,236,c),
(439,127,o),
(376,42,o),
(280,42,c),
(190,42,o),
(146,89,o),
(127,123,c),
(127,29,l),
(164,2,o),
(212,-12,o),
(270,-12,c)
);
},
{
closed = 1;
nodes = (
(209,-235,l),
(209,-231,l),
(209,-231,o),
(162,-200,o),
(162,-133,c),
(72,-133,l),
(72,-200,o),
(35,-230,o),
(35,-230,c),
(35,-235,l)
);
},
{
closed = 1;
nodes = (
(162,-133,l),
(162,406,l),
(159,406,l),
(162,484,l),
(157,484,l),
(35,428,l),
(35,423,l),
(35,423,o),
(72,390,o),
(72,317,c),
(72,-133,l)
);
}
);
width = 568;
}
);
metricLeft = "=n";
metricRight = "=o";
unicode = 112;
},
{
color = 9;
glyphname = phook;
lastChange = "2024-07-01 14:20:06 +0000";
layers = (
{
layerId = m01;
shapes = (
{
closed = 1;
nodes = (
(147,-156,l),
(162,-183,l),
(162,585,ls),
(162,679,o),
(185,726,o),
(231,726,c),
(277,726,o),
(310,639,o),
(310,639,c),
(316,639,l),
(374,737,l),
(337,763,o),
(291,777,o),
(244,777,cs),
(138,777,o),
(72,692,o),
(72,557,cs),
(72,-181,l),
(88,-153,l)
);
},
{
closed = 1;
nodes = (
(209,-235,l),
(209,-231,l),
(209,-231,o),
(162,-200,o),
(162,-133,c),
(72,-133,l),
(72,-200,o),
(35,-230,o),
(35,-230,c),
(35,-235,l)
);
},
{
closed = 1;
nodes = (
(425,-12,o),
(533,98,o),
(533,254,c),
(533,395,o),
(459,492,o),
(327,492,c),
(296,492,o),
(266,484,o),
(236,469,c),
(162,406,l),
(147,406,l),
(147,340,l),
(186,388,o),
(231,422,o),
(302,422,c),
(396,422,o),
(439,346,o),
(439,236,c),
(439,127,o),
(376,42,o),
(280,42,c),
(190,42,o),
(146,89,o),
(127,123,c),
(127,29,l),
(164,2,o),
(212,-12,o),
(270,-12,c)
);
}
);
width = 568;
}
);
metricLeft = p;
metricRight = "=p";
unicode = 421;
},
{
color = 4;
glyphname = thorn;
kernLeft = KO_thorn;
kernRight = KO_b;
lastChange = "2024-07-01 14:18:33 +0000";
layers = (
{
layerId = m01;
shapes = (
{
closed = 1;
nodes = (
(425,-12,o),
(533,98,o),
(533,254,c),
(533,395,o),
(459,492,o),
(327,492,c),
(296,492,o),
(266,484,o),
(236,469,c),
(162,406,l),
(147,406,l),
(147,340,l),
(186,388,o),
(231,422,o),
(302,422,c),
(396,422,o),
(439,346,o),
(439,236,c),
(439,127,o),
(376,42,o),
(280,42,c),
(190,42,o),
(146,89,o),
(127,123,c),
(127,29,l),
(164,2,o),
(212,-12,o),
(270,-12,c)
);
},
{
closed = 1;
nodes = (
(209,-235,l),
(209,-231,l),
(209,-231,o),
(162,-200,o),
(162,-133,c),
(72,-133,l),
(72,-200,o),
(35,-230,o),
(35,-230,c),
(35,-235,l)
);
},
{
closed = 1;
nodes = (
(162,-133,l),
(162,406,l),
(159,406,l),
(162,769,l),
(157,769,l),
(35,713,l),
(35,708,l),
(35,708,o),
(72,675,o),
(72,602,c),
(72,-133,l)
);
}
);
width = 568;
}
);
metricLeft = "=p";
metricRight = "=p";
unicode = 254;
userData = {
KernOnName = thorn;
};
},
{
color = 9;
glyphname = pstroke;
lastChange = "2024-05-30 08:46:48 +0000";
layers = (
{
layerId = m01;
shapes = (
{
ref = p;
},
{
closed = 1;
nodes = (
(629,209,l),
(629,255,l),
(35,255,l),
(35,209,l)
);
}
);
width = 664;
}
);
metricLeft = "=p";
metricRight = "=p";
unicode = 7549;
},
{
color = 4;
glyphname = q;
kernLeft = KO_d;
kernRight = KO_q;
lastChange = "2024-07-02 17:55:46 +0000";
layers = (
{
layerId = m01;
shapes = (
{
closed = 1;
nodes = (
(491,497,l),
(406,421,l),
(406,-183,l),
(496,-181,l),
(496,497,l)
);
},
{
closed = 1;
nodes = (
(406,-133,l),
(406,-200,o),
(359,-231,o),
(359,-231,c),
(359,-235,l),
(533,-235,l),
(533,-230,l),
(533,-230,o),
(496,-200,o),
(496,-133,c)
);
},
{
closed = 1;
nodes = (
(143,492,o),
(35,382,o),
(35,226,c),
(35,84,o),
(109,-12,o),
(241,-12,c),
(272,-12,o),
(302,-5,o),
(332,11,c),
(406,74,l),
(421,74,l),
(421,140,l),
(382,92,o),
(337,58,o),
(266,58,c),
(172,58,o),
(129,134,o),
(129,244,c),
(129,353,o),
(192,438,o),
(288,438,c),
(378,438,o),
(422,391,o),
(441,357,c),
(441,451,l),
(404,478,o),
(356,492,o),
(298,492,c)
);
}
);
width = 540;
}
);
metricLeft = "=o";
metricRight = "=d*0.2";
unicode = 113;
},
{
color = 9;
glyphname = qhooktail;
lastChange = "2024-07-01 15:49:43 +0000";
layers = (
{
layerId = m01;
shapes = (
{
closed = 1;
nodes = (
(303,-12,o),
(366,21,o),
(406,74,c),
(406,41,ls),
(406,-161,o),
(461,-245,o),
(586,-235,c),
(586,-217,l),
(521,-212,o),
(496,-162,o),
(496,-35,cs),
(496,497,l),
(482,497,l),
(438,453,l),
(402,479,o),
(355,492,o),
(298,492,cs),
(144,492,o),
(35,382,o),
(35,226,cs),
(35,80,o),
(114,-12,o),
(241,-12,cs)
);
},
{
closed = 1;
nodes = (
(129,358,o),
(195,438,o),
(288,438,cs),
(335,438,o),
(376,424,o),
(406,399,c),
(406,123,l),
(365,78,o),
(321,58,o),
(266,58,cs),
(178,58,o),
(129,125,o),
(129,244,cs)
);
}
);
width = 588;
}
);
metricLeft = "=q";
metricRight = "=v";
unicode = 587;
},
{
color = 4;
glyphname = r;
kernLeft = KO_n;
kernRight = KO_r;
lastChange = "2024-07-02 17:56:56 +0000";
layers = (
{
anchors = (
{
name = bottom;
pos = (136,0);
},
{
name = top;
pos = (182,480);
}
);
layerId = m01;
shapes = (
{
closed = 1;
nodes = (
(162,103,l),
(162,381,l),
(159,381,l),
(162,484,l),
(157,484,l),
(35,428,l),
(35,423,l),
(35,423,o),
(72,390,o),
(72,317,cs),
(72,103,l)
);
},
{
closed = 1;
nodes = (
(201,0,l),
(201,4,l),
(201,4,o),
(162,35,o),
(162,103,c),
(72,103,l),
(72,35,o),
(35,5,o),
(35,5,c),
(35,0,l)
);
},
{
closed = 1;
nodes = (
(162,331,o),
(201,398,o),
(247,398,cs),
(279,398,o),
(307,382,o),
(319,344,c),
(351,447,l),
(332,470,o),
(306,482,o),
(274,482,cs),
(249,482,o),
(228,474,o),
(211,459,c),
(162,381,l),
(162,331,l)
);
}
);
width = 358;
}
);
metricLeft = "=n";
metricRight = "=o*0.2";
unicode = 114;
userData = {
KernOnName = r;
};
},
{
color = 9;
glyphname = rfishhook;
lastChange = "2024-07-01 10:11:07 +0000";
layers = (
{
layerId = m01;
shapes = (
{
closed = 1;
nodes = (
(162,70,l),
(162,300,ls),
(162,394,o),
(180,441,o),
(217,441,cs),
(259,441,o),
(280,354,o),
(280,354,c),
(286,354,l),
(334,457,l),
(295,481,o),
(261,492,o),
(224,492,cs),
(122,492,o),
(72,419,o),
(72,272,cs),
(72,70,l)
);
},
{
closed = 1;
nodes = (
(199,0,l),
(199,4,l),
(199,4,o),
(162,35,o),
(162,103,c),
(72,103,l),
(72,35,o),
(35,5,o),
(35,5,c),
(35,0,l)
);
}
);
width = 341;
}
);
metricLeft = "=r";
metricRight = "=r";
unicode = 638;
},
{
color = 9;
glyphname = rtail;
lastChange = "2024-07-01 14:19:45 +0000";
layers = (
{
layerId = m01;
shapes = (
{
closed = 1;
nodes = (
(292,-202,l),
(205,-195,o),
(162,-135,o),
(162,-20,cs),
(162,328,l),
(185,363,o),
(223,389,o),
(267,400,c),
(321,343,l),
(337,343,l),
(390,482,l),
(368,489,o),
(346,492,o),
(325,492,cs),
(262,492,o),
(199,450,o),
(162,382,c),
(157,382,l),
(72,361,l),
(72,41,ls),
(72,-147,o),
(151,-246,o),
(292,-235,c)
);
},
{
closed = 1;
nodes = (
(162,103,l),
(162,382,l),
(159,382,l),
(162,484,l),
(157,484,l),
(35,428,l),
(35,423,l),
(35,423,o),
(72,390,o),
(72,317,cs),
(72,103,l)
);
}
);
width = 397;
}
);
metricLeft = "=r";
metricRight = "=r";
unicode = 637;
},
{
color = 4;
glyphname = s;
kernLeft = KO_s;
kernRight = KO_s;
lastChange = "2024-07-02 17:57:40 +0000";
layers = (
{
anchors = (
{
name = bottom;
pos = (208,0);
},
{
name = top;
pos = (208,480);
}
);
layerId = m01;
shapes = (
{
closed = 1;
nodes = (
(127,-12,o),
(49,29,o),
(28,48,c),
(74,149,l),
(81,149,l),
(81,149,o),
(125,37,o),
(209,37,c),
(259,37,o),
(300,69,o),
(300,122,c),
(300,177,o),
(255,194,o),
(184,217,c),
(129,234,o),
(48,264,o),
(48,353,c),
(48,447,o),
(136,492,o),
(218,492,c),
(275,492,o),
(337,469,o),
(370,442,c),
(324,341,l),
(317,341,l),
(317,341,o),
(286,443,o),
(215,443,c),
(168,443,o),
(133,419,o),
(133,373,c),
(133,305,o),
(228,287,o),
(249,281,c),
(269,274,o),
(385,250,o),
(385,142,c),
(385,34,o),
(298,-12,o),
(206,-12,c)
);
}
);
width = 413;
}
);
metricLeft = "=o*0.8";
metricRight = "=o*0.8";
unicode = 115;
userData = {
KernOnName = s;
};
},
{
color = 4;
glyphname = germandbls;
kernLeft = KO_i;
lastChange = "2024-07-01 13:30:49 +0000";
layers = (
{
layerId = m01;
shapes = (
{
closed = 1;
nodes = (
(162,70,l),
(162,565,ls),
(162,668,o),
(206,726,o),
(284,726,cs),
(354,726,o),
(398,675,o),
(398,595,cs),
(398,494,o),
(353,444,o),
(263,444,c),
(263,386,l),
(388,386,o),
(467,312,o),
(467,195,cs),
(467,99,o),
(420,39,o),
(345,36,c),
(290,36,o),
(256,81,o),
(249,131,c),
(243,131,l),
(195,28,l),
(232,3,o),
(290,-12,o),
(345,-12,cs),
(471,-12,o),
(560,81,o),
(560,213,cs),
(560,322,o),
(490,399,o),
(372,428,c),
(372,431,l),
(444,460,o),
(490,519,o),
(490,593,cs),
(490,701,o),
(405,777,o),
(284,777,cs),
(160,777,o),
(72,678,o),
(72,537,cs),
(72,457,l),
(72,361,l),
(72,70,l)
);
},
{
closed = 1;
nodes = (
(162,0,l),
(162,103,l),
(72,103,l),
(72,35,o),
(35,5,o),
(35,5,c),
(35,0,l)
);
},
{
closed = 1;
nodes = (
(154,386,l),
(121,489,l),
(35,391,l),
(35,386,l)
);
}
);
width = 588;
}
);
metricLeft = "=n";
metricRight = "=s";
unicode = 223;
},
{
color = 9;
glyphname = sobliquestroke;
lastChange = "2024-06-27 12:18:15 +0000";
layers = (
{
layerId = m01;
shapes = (
{
ref = s;
},
{
closed = 1;
nodes = (
(43,200,l),
(448,338,l),
(448,291,l),
(43,153,l)
);
}
);
width = 476;
}
);
metricLeft = "=s";
metricRight = "=s";
unicode = 42921;
},
{
color = 4;
glyphname = t;
kernLeft = KO_t;
kernRight = KO_t;
lastChange = "2024-07-02 17:58:05 +0000";
layers = (
{
anchors = (
{
name = bottom;
pos = (260,0);
},
{
name = center;
pos = (209,254);
},
{
name = top;
pos = (225,569);
},
{
name = topright;
pos = (240,765);
}
);
layerId = m01;
shapes = (
{
closed = 1;
nodes = (
(274,-12,o),
(327,25,o),
(354,96,c),
(354,115,l),
(329,76,o),
(299,57,o),
(263,57,c),
(216,57,o),
(187,95,o),
(187,192,c),
(187,604,l),
(174,604,l),
(14,419,l),
(14,414,l),
(140,414,l),
(97,469,l),
(97,166,l),
(97,1,o),
(199,-12,o),
(227,-12,c)
);
},
{
closed = 1;
nodes = (
(337,409,l),
(337,490,l),
(335,490,l),
(147,473,l),
(147,428,l),
(336,409,l)
);
}
);
width = 368;
}
);
metricLeft = "=n*0.4";
metricRight = "=|";
unicode = 116;
userData = {
KernOnName = t;
};
},
{
color = 9;
glyphname = tdiagonalstroke;
lastChange = "2024-04-27 12:12:00 +0000";
layers = (
{
layerId = m01;
shapes = (
{
ref = t;
},
{
closed = 1;
nodes = (
(395,599,l),
(359,615,l),
(26,-97,l),
(63,-113,l)
);
}
);
width = 450;
}
);
unicode = 11366;
},
{
color = 9;
glyphname = thook;
lastChange = "2024-07-01 15:51:26 +0000";
layers = (
{
layerId = m01;
shapes = (
{
closed = 1;
nodes = (
(97,484,l),
(187,585,l),
(187,679,o),
(210,726,o),
(256,726,c),
(302,726,o),
(335,639,o),
(335,639,c),
(341,639,l),
(399,737,l),
(362,763,o),
(316,777,o),
(269,777,cs),
(163,777,o),
(97,692,o),
(97,557,c)
);
},
{
closed = 1;
nodes = (
(274,-12,o),
(327,25,o),
(354,96,c),
(354,115,l),
(329,76,o),
(299,57,o),
(263,57,c),
(216,57,o),
(187,95,o),
(187,192,c),
(187,604,l),
(174,604,l),
(14,419,l),
(14,414,l),
(140,414,l),
(97,469,l),
(97,166,l),
(97,1,o),
(199,-12,o),
(227,-12,c)
);
},
{
closed = 1;
nodes = (
(337,409,l),
(337,490,l),
(335,490,l),
(147,473,l),
(147,428,l),
(336,409,l)
);
}
);
width = 413;
}
);
metricLeft = "=t";
metricRight = "=t";
unicode = 429;
userData = {
KernOnName = thook;
};
},
{
color = 9;
glyphname = tretroflexhook;
lastChange = "2024-07-01 15:49:51 +0000";
layers = (
{
anchors = (
{
name = bottom;
pos = (260,0);
},
{
name = center;
pos = (209,254);
},
{
name = top;
pos = (225,569);
},
{
name = topright;
pos = (240,765);
}
);
layerId = m01;
shapes = (
{
closed = 1;
nodes = (
(317,-217,l),
(230,-210,o),
(187,-150,o),
(187,-35,cs),
(187,427,l),
(387,405,l),
(396,411,l),
(396,492,l),
(384,492,l),
(187,476,l),
(187,604,l),
(174,604,l),
(14,419,l),
(14,414,l),
(97,414,l),
(97,41,ls),
(97,-147,o),
(176,-246,o),
(317,-235,c)
);
}
);
width = 410;
}
);
metricLeft = "=t";
metricRight = "=t";
unicode = 648;
},
{
color = 4;
glyphname = u;
kernLeft = KO_u;
kernRight = KO_u;
lastChange = "2024-07-03 16:51:50 +0000";
layers = (
{
anchors = (
{
name = bottom;
pos = (256,0);
},
{
name = ogonek;
pos = (424,-12);
},
{
name = top;
pos = (256,480);
},
{
name = topright;
pos = (416,373);
}
);
layerId = m01;
shapes = (
{
closed = 1;
nodes = (
(257,-12,o),
(284,-4,o),
(308,11,c),
(373,89,l),
(373,129,l),
(373,129,o),
(328,62,o),
(266,62,c),
(206,62,o),
(162,98,o),
(162,193,c),
(162,378,l),
(72,378,l),
(72,169,l),
(72,48,o),
(127,-12,o),
(224,-12,c)
);
},
{
closed = 1;
nodes = (
(162,391,l),
(162,484,l),
(157,484,l),
(35,428,l),
(35,423,l),
(35,423,o),
(72,390,o),
(72,317,c),
(162,317,l)
);
},
{
closed = 1;
nodes = (
(388,-12,l),
(500,34,l),
(500,39,l),
(500,39,o),
(463,72,o),
(463,145,c),
(463,378,l),
(373,378,l),
(373,89,l),
(376,89,l),
(383,-12,l)
);
},
{
closed = 1;
nodes = (
(463,484,l),
(458,484,l),
(336,428,l),
(336,423,l),
(336,423,o),
(373,390,o),
(373,317,c),
(463,317,l)
);
}
);
width = 535;
}
);
metricLeft = "=|n";
metricRight = "=n";
unicode = 117;
userData = {
KernOnName = u;
};
},
{
color = 9;
glyphname = ubar;
lastChange = "2024-05-30 08:45:44 +0000";
layers = (
{
layerId = m01;
shapes = (
{
ref = u;
},
{
closed = 1;
nodes = (
(560,259,l),
(560,305,l),
(35,305,l),
(35,259,l)
);
}
);
width = 595;
}
);
metricLeft = "=u";
metricRight = "=u";
unicode = 649;
},
{
color = 9;
glyphname = "upsilon-latin";
kernLeft = KO_o;
lastChange = "2024-07-01 15:41:09 +0000";
layers = (
{
layerId = m01;
shapes = (
{
closed = 1;
nodes = (
(414,-12,o),
(521,94,o),
(521,228,cs),
(521,326,o),
(479,399,o),
(415,422,c),
(483,472,l),
(483,480,l),
(326,480,l),
(326,418,l),
(391,385,o),
(427,314,o),
(427,222,cs),
(427,113,o),
(372,44,o),
(285,44,cs),
(198,44,o),
(129,128,o),
(129,236,cs),
(129,319,o),
(165,384,o),
(230,418,c),
(230,480,l),
(73,480,l),
(73,472,l),
(143,420,l),
(80,395,o),
(35,320,o),
(35,228,cs),
(35,94,o),
(142,-12,o),
(278,-12,cs)
);
}
);
width = 556;
}
);
metricLeft = "=o";
metricRight = "=o";
unicode = 650;
},
{
color = 4;
glyphname = v;
kernLeft = KO_v;
kernRight = KO_v;
lastChange = "2024-07-02 18:04:25 +0000";
layers = (
{
anchors = (
{
name = bottom;
pos = (268,0);
},
{
name = top;
pos = (268,480);
}
);
layerId = m01;
shapes = (
{
closed = 1;
nodes = (
(271,-12,l),
(501,452,l),
(415,452,l),
(293,116,l),
(135,443,l),
(38,443,l),
(263,-12,l)
);
},
{
closed = 1;
nodes = (
(166,378,l),
(135,443,o),
(177,475,o),
(177,475,c),
(177,480,l),
(2,480,l),
(2,475,l),
(2,475,o),
(38,443,o),
(70,378,c)
);
},
{
closed = 1;
nodes = (
(464,378,l),
(496,443,o),
(532,475,o),
(532,475,c),
(532,480,l),
(376,480,l),
(376,475,l),
(376,475,o),
(411,443,o),
(388,378,c)
);
}
);
width = 534;
}
);
unicode = 118;
userData = {
KernOnName = v;
};
},
{
color = 9;
glyphname = vhook;
kernLeft = KO_u;
lastChange = "2024-06-29 21:24:37 +0000";
layers = (
{
anchors = (
{
name = bottom;
pos = (265,0);
},
{
name = top;
pos = (265,480);
}
);
layerId = m01;
shapes = (
{
closed = 1;
nodes = (
(375,-12,o),
(502,138,o),
(502,328,c),
(502,438,o),
(446,492,o),
(332,492,cs),
(285,492,o),
(239,478,o),
(202,452,c),
(255,354,l),
(260,354,l),
(260,354,o),
(283,441,o),
(345,441,c),
(387,441,o),
(414,401,o),
(414,338,c),
(414,136,o),
(364,59,o),
(234,59,c),
(186,59,o),
(162,87,o),
(162,142,cs),
(162,360,l),
(72,360,l),
(72,118,ls),
(72,31,o),
(119,-12,o),
(214,-12,c)
);
},
{
closed = 1;
nodes = (
(162,484,l),
(157,484,l),
(35,428,l),
(35,423,l),
(35,423,o),
(72,390,o),
(72,317,c),
(162,317,l)
);
}
);
width = 537;
}
);
metricLeft = "=u";
metricRight = "=o";
unicode = 651;
},
{
color = 4;
glyphname = w;
kernLeft = KO_v;
kernRight = KO_v;
lastChange = "2024-07-03 09:02:42 +0000";
layers = (
{
anchors = (
{
name = bottom;
pos = (384,0);
},
{
name = top;
pos = (394,480);
}
);
layerId = m01;
shapes = (
{
closed = 1;
nodes = (
(511,-12,l),
(741,452,l),
(654,452,l),
(524,88,l),
(550,88,l),
(411,480,l),
(404,480,l),
(365,346,l),
(503,-12,l)
);
},
{
closed = 1;
nodes = (
(251,-12,l),
(416,355,l),
(411,480,l),
(381,480,l),
(259,87,l),
(286,87,l),
(138,443,l),
(41,443,l),
(243,-12,l)
);
},
{
closed = 1;
nodes = (
(166,378,l),
(134,443,o),
(177,475,o),
(177,475,c),
(177,480,l),
(2,480,l),
(2,475,l),
(2,475,o),
(38,443,o),
(70,378,c)
);
},
{
closed = 1;
nodes = (
(704,378,l),
(737,443,o),
(772,475,o),
(772,475,c),
(772,480,l),
(616,480,l),
(616,475,l),
(616,475,o),
(652,443,o),
(628,378,c)
);
}
);
width = 774;
}
);
metricLeft = "=v";
metricRight = "=v";
unicode = 119;
userData = {
KernOnName = w;
};
},
{
color = 9;
glyphname = whook;
lastChange = "2024-07-01 10:05:37 +0000";
layers = (
{
layerId = m01;
shapes = (
{
closed = 1;
nodes = (
(511,-12,l),
(835,647,l),
(863,697,o),
(880,716,o),
(919,714,cs),
(959,713,o),
(984,629,o),
(984,629,c),
(990,629,l),
(1049,725,l),
(1016,755,o),
(965,773,o),
(909,775,cs),
(830,777,o),
(780,742,o),
(743,660,c),
(524,88,l)
);
},
{
closed = 1;
nodes = (
(511,-12,l),
(524,88,l),
(550,88,l),
(411,480,l),
(404,480,l),
(365,346,l),
(503,-12,l)
);
},
{
closed = 1;
nodes = (
(251,-12,l),
(416,355,l),
(411,480,l),
(381,480,l),
(259,87,l),
(286,87,l),
(138,443,l),
(41,443,l),
(243,-12,l)
);
},
{
closed = 1;
nodes = (
(166,378,l),
(134,443,o),
(177,475,o),
(177,475,c),
(177,480,l),
(2,480,l),
(2,475,l),
(2,475,o),
(38,443,o),
(70,378,c)
);
}
);
width = 806;
}
);
metricLeft = "=v";
unicode = 11379;
userData = {
KernOnName = whook;
};
},
{
color = 4;
glyphname = x;
kernLeft = KO_x;
kernRight = KO_x;
lastChange = "2024-07-02 18:05:53 +0000";
layers = (
{
anchors = (
{
name = bottom;
pos = (271,0);
},
{
name = top;
pos = (271,480);
}
);
layerId = m01;
shapes = (
{
closed = 1;
nodes = (
(461,50,l),
(242,350,l),
(167,300,l),
(350,50,l)
);
},
{
closed = 1;
nodes = (
(158,0,l),
(158,5,l),
(158,5,o),
(143,34,o),
(177,93,c),
(262,225,l),
(225,262,l),
(105,103,ls),
(56,37,o),
(18,5,o),
(18,5,c),
(18,0,l)
);
},
{
closed = 1;
nodes = (
(516,0,l),
(516,5,l),
(516,5,o),
(472,35,o),
(423,103,c),
(312,103,l),
(361,35,o),
(345,5,o),
(345,5,c),
(345,0,l)
);
},
{
closed = 1;
nodes = (
(367,180,l),
(184,430,l),
(73,430,l),
(292,130,l)
);
},
{
closed = 1;
nodes = (
(222,378,l),
(173,445,o),
(189,475,o),
(189,475,c),
(189,480,l),
(18,480,l),
(18,475,l),
(18,475,o),
(62,445,o),
(111,378,c)
);
},
{
closed = 1;
nodes = (
(422,395,ls),
(464,448,o),
(496,475,o),
(496,475,c),
(496,480,l),
(356,480,l),
(356,475,l),
(356,475,o),
(373,443,o),
(331,378,cs),
(252,255,l),
(289,218,l)
);
}
);
width = 534;
}
);
metricLeft = "=n*0.5";
metricRight = "=|";
unicode = 120;
},
{
color = 4;
glyphname = y;
kernLeft = KO_y;
kernRight = KO_v;
lastChange = "2024-07-02 18:06:43 +0000";
layers = (
{
anchors = (
{
name = bottom;
pos = (360,0);
},
{
name = top;
pos = (289,480);
}
);
layerId = m01;
name = Light;
shapes = (
{
closed = 1;
nodes = (
(291,-12,l),
(521,452,l),
(435,452,l),
(292,87,l),
(307,87,l),
(135,443,l),
(38,443,l),
(263,-12,l)
);
},
{
closed = 1;
nodes = (
(169,-254,l),
(291,-12,l),
(292,87,l),
(214,-91,o),
(72,-160,o),
(72,-160,c),
(72,-168,l),
(158,-254,l)
);
},
{
closed = 1;
nodes = (
(167,378,l),
(135,443,o),
(178,475,o),
(178,475,c),
(178,480,l),
(2,480,l),
(2,475,l),
(2,475,o),
(38,443,o),
(71,378,c)
);
},
{
closed = 1;
nodes = (
(484,378,l),
(516,443,o),
(552,475,o),
(552,475,c),
(552,480,l),
(395,480,l),
(395,475,l),
(395,475,o),
(431,443,o),
(405,378,c)
);
}
);
width = 554;
}
);
metricLeft = "=v";
metricRight = "=v";
unicode = 121;
userData = {
KernOnName = y;
};
},
{
color = 9;
glyphname = yhook;
kernLeft = KO_y;
lastChange = "2024-07-01 10:09:34 +0000";
layers = (
{
layerId = m01;
shapes = (
{
closed = 1;
nodes = (
(169,-254,l),
(291,-12,l),
(169,-254,l),
(621,648,ls),
(647,699,o),
(664,718,o),
(703,718,cs),
(743,718,o),
(771,635,o),
(771,635,c),
(777,635,l),
(832,733,l),
(798,762,o),
(747,778,o),
(691,778,cs),
(612,778,o),
(564,741,o),
(529,658,cs),
(292,87,l),
(214,-91,o),
(72,-160,o),
(72,-160,c),
(72,-168,l),
(158,-254,l)
);
},
{
closed = 1;
nodes = (
(307,87,l),
(135,443,l),
(38,443,l),
(263,-12,l)
);
},
{
closed = 1;
nodes = (
(167,378,l),
(135,443,o),
(178,475,o),
(178,475,c),
(178,480,l),
(2,480,l),
(2,475,l),
(2,475,o),
(38,443,o),
(71,378,c)
);
}
);
width = 592;
}
);
unicode = 436;
userData = {
KernOnName = yhook;
};
},
{
color = 9;
glyphname = ystroke;
lastChange = "2024-04-25 11:50:45 +0000";
layers = (
{
layerId = m01;
shapes = (
{
ref = y;
},
{
closed = 1;
nodes = (
(510,259,l),
(510,305,l),
(35,305,l),
(35,259,l)
);
}
);
width = 556;
}
);
unicode = 591;
},
{
color = 4;
glyphname = z;
kernLeft = KO_z;
kernRight = KO_z;
lastChange = "2024-07-02 18:07:53 +0000";
layers = (
{
anchors = (
{
name = bottom;
pos = (244,0);
},
{
name = center;
pos = (283,240);
},
{
name = top;
pos = (244,480);
}
);
layerId = m01;
shapes = (
{
closed = 1;
nodes = (
(136,0,l),
(442,473,l),
(442,480,l),
(355,480,l),
(50,7,l),
(50,0,l)
);
},
{
closed = 1;
nodes = (
(440,0,l),
(440,152,l),
(434,152,l),
(434,152,o),
(394,63,o),
(300,55,c),
(118,40,l),
(118,0,l)
);
},
{
closed = 1;
nodes = (
(107,339,o),
(112,338,o),
(113,339,c),
(140,396,o),
(163,424,o),
(228,430,c),
(392,444,l),
(392,480,l),
(46,480,l),
(107,339,l)
);
}
);
width = 488;
}
);
metricLeft = "=o*1.3";
metricRight = "=o*1.3";
unicode = 122;
userData = {
KernOnName = z;
};
},
{
color = 4;
glyphname = saltillo;
lastChange = "2024-05-30 08:46:48 +0000";
layers = (
{
layerId = m01;
shapes = (
{
closed = 1;
nodes = (
(105,404,l),
(147,697,l),
(142,701,l),
(40,701,l),
(35,697,l),
(77,404,l)
);
}
);
width = 182;
}
);
metricLeft = "=o";
metricRight = "=o";
unicode = 42892;
},
{
color = 4;
glyphname = g.topAccent;
lastChange = "2024-07-02 17:22:51 +0000";
layers = (
{
anchors = (
{
name = bottom;
pos = (252,-235);
},
{
name = top;
pos = (238,480);
}
);
layerId = m01;
shapes = (
{
closed = 1;
nodes = (
(308,-12,l),
(321,72,l),
(190,72,l),
(152,72,o),
(123,79,o),
(123,113,c),
(123,134,o),
(135,157,o),
(176,157,c),
(147,186,l),
(94,186,o),
(52,148,o),
(52,85,c),
(52,32,o),
(85,-12,o),
(159,-12,c)
);
},
{
closed = 1;
nodes = (
(261,454,l),
(358,454,l),
(482,431,l),
(487,436,l),
(487,540,l),
(482,540,l)
);
},
{
closed = 1;
nodes = (
(194,188,o),
(151,233,o),
(151,328,c),
(151,389,o),
(178,443,o),
(240,443,c),
(291,443,o),
(334,401,o),
(334,303,c),
(334,243,o),
(307,188,o),
(245,188,c)
);
},
{
closed = 1;
nodes = (
(355,139,o),
(428,220,o),
(428,321,c),
(428,422,o),
(354,492,o),
(250,492,c),
(211,492,o),
(57,474,o),
(57,310,c),
(57,210,o),
(130,139,o),
(235,139,c)
);
},
{
closed = 1;
nodes = (
(308,-12,l),
(378,-12,o),
(406,-55,o),
(406,-99,c),
(491,-73,l),
(491,13,o),
(421,72,o),
(321,72,c)
);
},
{
closed = 1;
nodes = (
(406,-99,l),
(406,-162,o),
(356,-205,o),
(265,-205,c),
(175,-205,o),
(122,-164,o),
(122,-101,c),
(122,-64,o),
(138,-27,o),
(160,-12,c),
(160,21,l),
(112,21,l),
(112,-7,l),
(70,-16,o),
(28,-46,o),
(28,-107,c),
(28,-172,o),
(88,-251,o),
(242,-251,c),
(377,-251,o),
(491,-186,o),
(491,-73,c)
);
}
);
width = 526;
}
);
metricLeft = "=o*0.8";
metricRight = "=n";
},
{
color = 4;
glyphname = f_b;
lastChange = "2024-07-02 16:33:52 +0000";
layers = (
{
layerId = m01;
shapes = (
{
pos = (298,0);
ref = b;
},
{
closed = 1;
nodes = (
(87,103,ls),
(87,35,o),
(50,5,o),
(50,5,c),
(50,0,l),
(214,0,l),
(214,4,l),
(214,4,o),
(177,35,o),
(177,103,cs),
(177,585,ls),
(177,711,o),
(229,726,o),
(256,726,c),
(328,726,o),
(353,649,o),
(353,598,c),
(389,737,l),
(354,762,o),
(309,777,o),
(259,777,cs),
(99,777,o),
(87,604,o),
(87,557,cs)
);
},
{
closed = 1;
nodes = (
(314,411,l),
(314,492,l),
(312,492,l),
(144,475,l),
(144,430,l),
(313,410,l)
);
},
{
closed = 1;
nodes = (
(87,414,l),
(87,478,l),
(35,419,l),
(35,414,l)
);
}
);
width = 849;
}
);
metricLeft = f;
metricRight = b;
},
{
color = 4;
glyphname = f_f;
kernLeft = KO_f;
kernRight = KO_f;
lastChange = "2024-07-02 15:32:48 +0000";
layers = (
{
anchors = (
{
name = caret_1;
pos = (308,0);
}
);
layerId = m01;
shapes = (
{
closed = 1;
nodes = (
(87,103,ls),
(87,35,o),
(50,5,o),
(50,5,c),
(50,0,l),
(214,0,l),
(214,4,l),
(214,4,o),
(177,35,o),
(177,103,cs),
(177,585,ls),
(177,711,o),
(219,726,o),
(246,726,cs),
(306,726,o),
(325,634,o),
(325,634,c),
(331,634,l),
(389,737,l),
(354,762,o),
(309,777,o),
(259,777,cs),
(99,777,o),
(87,604,o),
(87,557,cs)
);
},
{
closed = 1;
nodes = (
(154,414,l),
(121,517,l),
(35,419,l),
(35,414,l)
);
},
{
closed = 1;
nodes = (
(440,411,l),
(440,492,l),
(438,492,l),
(154,475,l),
(154,430,l),
(439,410,l)
);
},
{
closed = 1;
nodes = (
(373,103,ls),
(373,35,o),
(336,5,o),
(336,5,c),
(336,0,l),
(500,0,l),
(500,4,l),
(500,4,o),
(463,35,o),
(463,103,cs),
(463,585,ls),
(463,711,o),
(505,726,o),
(532,726,cs),
(592,726,o),
(611,634,o),
(611,634,c),
(617,634,l),
(675,737,l),
(640,762,o),
(595,777,o),
(545,777,cs),
(385,777,o),
(373,604,o),
(373,557,cs)
);
},
{
closed = 1;
nodes = (
(610,411,l),
(610,492,l),
(608,492,l),
(440,475,l),
(440,430,l),
(609,410,l)
);
}
);
width = 630;
}
);
metricLeft = "=f";
metricRight = "=f";
},
{
color = 4;
glyphname = f_f_b;
lastChange = "2024-07-02 16:36:02 +0000";
layers = (
{
layerId = m01;
shapes = (
{
closed = 1;
nodes = (
(87,103,ls),
(87,35,o),
(50,5,o),
(50,5,c),
(50,0,l),
(214,0,l),
(214,4,l),
(214,4,o),
(177,35,o),
(177,103,cs),
(177,585,ls),
(177,711,o),
(219,726,o),
(246,726,cs),
(306,726,o),
(325,634,o),
(325,634,c),
(331,634,l),
(389,737,l),
(354,762,o),
(309,777,o),
(259,777,cs),
(99,777,o),
(87,604,o),
(87,557,cs)
);
},
{
closed = 1;
nodes = (
(154,414,l),
(121,517,l),
(35,419,l),
(35,414,l)
);
},
{
closed = 1;
nodes = (
(440,411,l),
(440,492,l),
(438,492,l),
(154,475,l),
(154,430,l),
(439,410,l)
);
},
{
closed = 1;
nodes = (
(373,103,ls),
(373,35,o),
(336,5,o),
(336,5,c),
(336,0,l),
(500,0,l),
(500,4,l),
(500,4,o),
(463,35,o),
(463,103,cs),
(463,585,ls),
(463,711,o),
(515,726,o),
(542,726,c),
(614,726,o),
(639,649,o),
(639,598,c),
(675,737,l),
(640,762,o),
(595,777,o),
(545,777,cs),
(385,777,o),
(373,604,o),
(373,557,cs)
);
},
{
closed = 1;
nodes = (
(600,411,l),
(600,492,l),
(598,492,l),
(430,475,l),
(430,430,l),
(599,410,l)
);
},
{
pos = (584,0);
ref = b;
}
);
width = 1135;
}
);
metricLeft = f;
metricRight = b;
},
{
color = 4;
glyphname = f_f_h;
lastChange = "2024-07-02 15:37:02 +0000";
layers = (
{
layerId = m01;
shapes = (
{
closed = 1;
nodes = (
(87,103,ls),
(87,35,o),
(50,5,o),
(50,5,c),
(50,0,l),
(214,0,l),
(214,4,l),
(214,4,o),
(177,35,o),
(177,103,cs),
(177,585,ls),
(177,711,o),
(219,726,o),
(246,726,cs),
(306,726,o),
(325,634,o),
(325,634,c),
(331,634,l),
(389,737,l),
(354,762,o),
(309,777,o),
(259,777,cs),
(99,777,o),
(87,604,o),
(87,557,cs)
);
},
{
closed = 1;
nodes = (
(154,414,l),
(121,517,l),
(35,419,l),
(35,414,l)
);
},
{
closed = 1;
nodes = (
(440,411,l),
(440,492,l),
(438,492,l),
(154,475,l),
(154,430,l),
(439,410,l)
);
},
{
closed = 1;
nodes = (
(373,103,ls),
(373,35,o),
(336,5,o),
(336,5,c),
(336,0,l),
(500,0,l),
(500,4,l),
(500,4,o),
(463,35,o),
(463,103,cs),
(463,585,ls),
(463,711,o),
(515,726,o),
(542,726,c),
(614,726,o),
(639,649,o),
(639,598,c),
(675,737,l),
(640,762,o),
(595,777,o),
(545,777,cs),
(385,777,o),
(373,604,o),
(373,557,cs)
);
},
{
closed = 1;
nodes = (
(600,411,l),
(600,492,l),
(598,492,l),
(430,475,l),
(430,430,l),
(599,410,l)
);
},
{
pos = (567,0);
ref = h;
}
);
width = 1102;
}
);
metricLeft = f;
metricRight = h;
},
{
color = 4;
glyphname = f_f_i;
kernLeft = KO_f;
kernRight = KO_fi;
lastChange = "2024-07-02 16:37:55 +0000";
layers = (
{
anchors = (
{
name = caret_1;
pos = (307,0);
},
{
name = caret_2;
pos = (665,0);
}
);
layerId = m01;
shapes = (
{
closed = 1;
nodes = (
(87,103,ls),
(87,35,o),
(50,5,o),
(50,5,c),
(50,0,l),
(214,0,l),
(214,4,l),
(214,4,o),
(177,35,o),
(177,103,cs),
(177,585,ls),
(177,711,o),
(219,726,o),
(246,726,cs),
(306,726,o),
(325,634,o),
(325,634,c),
(331,634,l),
(389,737,l),
(354,762,o),
(309,777,o),
(259,777,cs),
(99,777,o),
(87,604,o),
(87,557,cs)
);
},
{
closed = 1;
nodes = (
(154,414,l),
(121,517,l),
(35,419,l),
(35,414,l)
);
},
{
closed = 1;
nodes = (
(440,406,l),
(440,487,l),
(438,487,l),
(154,470,l),
(154,425,l),
(439,405,l)
);
},
{
closed = 1;
nodes = (
(373,103,ls),
(373,35,o),
(336,5,o),
(336,5,c),
(336,0,l),
(500,0,l),
(500,4,l),
(500,4,o),
(463,35,o),
(463,103,cs),
(463,585,ls),
(463,711,o),
(505,726,o),
(532,726,cs),
(592,726,o),
(611,634,o),
(611,634,c),
(617,634,l),
(675,737,l),
(640,762,o),
(595,777,o),
(545,777,cs),
(385,777,o),
(373,604,o),
(373,557,cs)
);
},
{
closed = 1;
nodes = (
(729,406,l),
(729,487,l),
(708,487,l),
(444,470,l),
(444,425,l),
(709,405,l)
);
},
{
closed = 1;
nodes = (
(729,103,l),
(729,391,l),
(729,484,l),
(724,484,l),
(639,428,l),
(639,421,o),
(639,390,o),
(639,317,c),
(639,103,l)
);
},
{
closed = 1;
nodes = (
(766,0,l),
(766,4,l),
(766,4,o),
(729,35,o),
(729,103,c),
(639,103,l),
(639,35,o),
(602,5,o),
(602,5,c),
(602,0,l)
);
}
);
width = 801;
}
);
metricLeft = "=f";
metricRight = "=i";
unicode = 64259;
},
{
color = 4;
glyphname = f_f_j;
kernLeft = KO_f;
kernRight = KO_f_j;
lastChange = "2024-07-02 15:32:48 +0000";
layers = (
{
anchors = (
{
name = caret_1;
pos = (307,0);
},
{
name = caret_2;
pos = (665,0);
}
);
layerId = m01;
shapes = (
{
closed = 1;
nodes = (
(87,103,ls),
(87,35,o),
(50,5,o),
(50,5,c),
(50,0,l),
(214,0,l),
(214,4,l),
(214,4,o),
(177,35,o),
(177,103,cs),
(177,585,ls),
(177,711,o),
(219,726,o),
(246,726,cs),
(306,726,o),
(325,634,o),
(325,634,c),
(331,634,l),
(389,737,l),
(354,762,o),
(309,777,o),
(259,777,cs),
(99,777,o),
(87,604,o),
(87,557,cs)
);
},
{
closed = 1;
nodes = (
(154,414,l),
(121,517,l),
(35,419,l),
(35,414,l)
);
},
{
closed = 1;
nodes = (
(440,406,l),
(440,487,l),
(438,487,l),
(154,470,l),
(154,425,l),
(439,405,l)
);
},
{
closed = 1;
nodes = (
(373,103,ls),
(373,35,o),
(336,5,o),
(336,5,c),
(336,0,l),
(500,0,l),
(500,4,l),
(500,4,o),
(463,35,o),
(463,103,cs),
(463,585,ls),
(463,711,o),
(505,726,o),
(532,726,cs),
(592,726,o),
(611,634,o),
(611,634,c),
(617,634,l),
(675,737,l),
(640,762,o),
(595,777,o),
(545,777,cs),
(385,777,o),
(373,604,o),
(373,557,cs)
);
},
{
closed = 1;
nodes = (
(729,406,l),
(729,487,l),
(708,487,l),
(444,470,l),
(444,425,l),
(709,405,l)
);
},
{
closed = 1;
nodes = (
(565,-235,l),
(576,-235,l),
(629,-206,o),
(668,-172,o),
(692,-135,c),
(716,-98,o),
(729,-53,o),
(729,0,c),
(729,428,l),
(639,428,l),
(639,-48,l),
(639,-117,o),
(612,-184,o),
(565,-235,c)
);
}
);
width = 799;
}
);
metricLeft = f;
metricRight = j;
},
{
color = 4;
glyphname = f_f_k;
lastChange = "2024-07-02 15:37:36 +0000";
layers = (
{
layerId = m01;
shapes = (
{
closed = 1;
nodes = (
(87,103,ls),
(87,35,o),
(50,5,o),
(50,5,c),
(50,0,l),
(214,0,l),
(214,4,l),
(214,4,o),
(177,35,o),
(177,103,cs),
(177,585,ls),
(177,711,o),
(219,726,o),
(246,726,cs),
(306,726,o),
(325,634,o),
(325,634,c),
(331,634,l),
(389,737,l),
(354,762,o),
(309,777,o),
(259,777,cs),
(99,777,o),
(87,604,o),
(87,557,cs)
);
},
{
closed = 1;
nodes = (
(154,414,l),
(121,517,l),
(35,419,l),
(35,414,l)
);
},
{
closed = 1;
nodes = (
(440,411,l),
(440,492,l),
(438,492,l),
(154,475,l),
(154,430,l),
(439,410,l)
);
},
{
closed = 1;
nodes = (
(373,103,ls),
(373,35,o),
(336,5,o),
(336,5,c),
(336,0,l),
(500,0,l),
(500,4,l),
(500,4,o),
(463,35,o),
(463,103,cs),
(463,585,ls),
(463,711,o),
(515,726,o),
(542,726,c),
(614,726,o),
(639,649,o),
(639,598,c),
(675,737,l),
(640,762,o),
(595,777,o),
(545,777,cs),
(385,777,o),
(373,604,o),
(373,557,cs)
);
},
{
closed = 1;
nodes = (
(600,411,l),
(600,492,l),
(598,492,l),
(430,475,l),
(430,430,l),
(599,410,l)
);
},
{
pos = (567,0);
ref = k;
}
);
width = 1080;
}
);
metricLeft = f;
metricRight = k;
},
{
color = 4;
glyphname = f_f_l;
kernLeft = KO_f;
kernRight = KO_l;
lastChange = "2024-07-02 15:32:48 +0000";
layers = (
{
anchors = (
{
name = caret_1;
pos = (308,0);
},
{
name = caret_2;
pos = (666,0);
}
);
layerId = m01;
shapes = (
{
closed = 1;
nodes = (
(87,103,ls),
(87,35,o),
(50,5,o),
(50,5,c),
(50,0,l),
(214,0,l),
(214,4,l),
(214,4,o),
(177,35,o),
(177,103,cs),
(177,585,ls),
(177,711,o),
(219,726,o),
(246,726,cs),
(306,726,o),
(325,634,o),
(325,634,c),
(331,634,l),
(389,737,l),
(354,762,o),
(309,777,o),
(259,777,cs),
(99,777,o),
(87,604,o),
(87,557,cs)
);
},
{
closed = 1;
nodes = (
(154,414,l),
(121,517,l),
(35,419,l),
(35,414,l)
);
},
{
closed = 1;
nodes = (
(440,411,l),
(440,492,l),
(438,492,l),
(154,475,l),
(154,430,l),
(439,410,l)
);
},
{
closed = 1;
nodes = (
(373,103,ls),
(373,35,o),
(336,5,o),
(336,5,c),
(336,0,l),
(500,0,l),
(500,4,l),
(500,4,o),
(463,35,o),
(463,103,cs),
(463,585,ls),
(463,711,o),
(515,726,o),
(542,726,c),
(614,726,o),
(639,649,o),
(639,598,c),
(675,737,l),
(640,762,o),
(595,777,o),
(545,777,cs),
(385,777,o),
(373,604,o),
(373,557,cs)
);
},
{
closed = 1;
nodes = (
(600,411,l),
(600,492,l),
(598,492,l),
(430,475,l),
(430,430,l),
(599,410,l)
);
},
{
closed = 1;
nodes = (
(729,103,l),
(729,765,l),
(724,765,l),
(602,709,l),
(602,704,l),
(602,704,o),
(639,690,o),
(639,690,c),
(639,103,l)
);
},
{
closed = 1;
nodes = (
(766,0,l),
(766,4,l),
(766,4,o),
(729,35,o),
(729,103,c),
(639,103,l),
(639,35,o),
(602,5,o),
(602,5,c),
(602,0,l)
);
}
);
width = 801;
}
);
metricLeft = f;
metricRight = l;
},
{
color = 4;
glyphname = f_h;
lastChange = "2024-07-02 15:34:23 +0000";
layers = (
{
layerId = m01;
shapes = (
{
pos = (281,0);
ref = h;
},
{
closed = 1;
nodes = (
(87,103,ls),
(87,35,o),
(50,5,o),
(50,5,c),
(50,0,l),
(214,0,l),
(214,4,l),
(214,4,o),
(177,35,o),
(177,103,cs),
(177,585,ls),
(177,711,o),
(229,726,o),
(256,726,c),
(328,726,o),
(353,649,o),
(353,598,c),
(389,737,l),
(354,762,o),
(309,777,o),
(259,777,cs),
(99,777,o),
(87,604,o),
(87,557,cs)
);
},
{
closed = 1;
nodes = (
(314,411,l),
(314,492,l),
(312,492,l),
(144,475,l),
(144,430,l),
(313,410,l)
);
},
{
closed = 1;
nodes = (
(87,414,l),
(87,478,l),
(35,419,l),
(35,414,l)
);
}
);
width = 816;
}
);
metricLeft = f;
metricRight = h;
},
{
color = 4;
glyphname = f_j;
kernLeft = KO_f;
kernRight = KO_f_j;
lastChange = "2024-07-02 15:32:48 +0000";
layers = (
{
anchors = (
{
name = caret_1;
pos = (307,0);
}
);
layerId = m01;
shapes = (
{
closed = 1;
nodes = (
(87,103,ls),
(87,35,o),
(50,5,o),
(50,5,c),
(50,0,l),
(214,0,l),
(214,4,l),
(214,4,o),
(177,35,o),
(177,103,cs),
(177,585,ls),
(177,711,o),
(219,726,o),
(246,726,cs),
(306,726,o),
(325,634,o),
(325,634,c),
(331,634,l),
(389,737,l),
(354,762,o),
(309,777,o),
(259,777,cs),
(99,777,o),
(87,604,o),
(87,557,cs)
);
},
{
closed = 1;
nodes = (
(443,406,l),
(443,487,l),
(422,487,l),
(158,470,l),
(158,425,l),
(423,405,l)
);
},
{
closed = 1;
nodes = (
(279,-235,l),
(290,-235,l),
(343,-206,o),
(382,-172,o),
(406,-135,c),
(430,-98,o),
(443,-53,o),
(443,0,c),
(443,428,l),
(353,428,l),
(353,-48,l),
(353,-117,o),
(326,-184,o),
(279,-235,c)
);
},
{
closed = 1;
nodes = (
(87,414,l),
(87,478,l),
(35,419,l),
(35,414,l)
);
}
);
width = 513;
}
);
metricLeft = "=f";
metricRight = "=j";
},
{
color = 4;
glyphname = f_k;
lastChange = "2024-07-02 15:32:48 +0000";
layers = (
{
layerId = m01;
shapes = (
{
pos = (281,0);
ref = k;
},
{
closed = 1;
nodes = (
(87,103,ls),
(87,35,o),
(50,5,o),
(50,5,c),
(50,0,l),
(214,0,l),
(214,4,l),
(214,4,o),
(177,35,o),
(177,103,cs),
(177,585,ls),
(177,711,o),
(229,726,o),
(256,726,c),
(328,726,o),
(353,649,o),
(353,598,c),
(389,737,l),
(354,762,o),
(309,777,o),
(259,777,cs),
(99,777,o),
(87,604,o),
(87,557,cs)
);
},
{
closed = 1;
nodes = (
(314,411,l),
(314,492,l),
(312,492,l),
(144,475,l),
(144,430,l),
(313,410,l)
);
},
{
closed = 1;
nodes = (
(87,414,l),
(87,478,l),
(35,419,l),
(35,414,l)
);
}
);
width = 794;
}
);
metricLeft = f;
metricRight = k;
},
{
color = 4;
glyphname = fi;
kernLeft = KO_f;
kernRight = KO_fi;
lastChange = "2024-07-03 09:46:54 +0000";
layers = (
{
layerId = m01;
shapes = (
{
closed = 1;
nodes = (
(87,103,ls),
(87,35,o),
(50,5,o),
(50,5,c),
(50,0,l),
(214,0,l),
(214,4,l),
(214,4,o),
(177,35,o),
(177,103,cs),
(177,585,ls),
(177,711,o),
(219,726,o),
(246,726,cs),
(306,726,o),
(325,634,o),
(325,634,c),
(331,634,l),
(389,737,l),
(354,762,o),
(309,777,o),
(259,777,cs),
(99,777,o),
(87,604,o),
(87,557,cs)
);
},
{
closed = 1;
nodes = (
(443,406,l),
(443,487,l),
(422,487,l),
(158,470,l),
(158,425,l),
(423,405,l)
);
},
{
closed = 1;
nodes = (
(443,103,l),
(443,391,l),
(443,484,l),
(438,484,l),
(353,428,l),
(353,421,o),
(353,390,o),
(353,317,c),
(353,103,l)
);
},
{
closed = 1;
nodes = (
(480,0,l),
(480,4,l),
(480,4,o),
(443,35,o),
(443,103,c),
(353,103,l),
(353,35,o),
(316,5,o),
(316,5,c),
(316,0,l)
);
},
{
closed = 1;
nodes = (
(87,414,l),
(87,478,l),
(35,419,l),
(35,414,l)
);
}
);
width = 515;
}
);
metricLeft = "=f";
metricRight = "=i";
unicode = 64257;
},
{
color = 4;
glyphname = fl;
kernLeft = KO_f;
kernRight = KO_l;
lastChange = "2024-07-03 09:46:59 +0000";
layers = (
{
anchors = (
{
name = bottom;
pos = (511,0);
},
{
name = caret_1;
pos = (309,0);
},
{
name = center;
pos = (517,383);
},
{
name = top;
pos = (518,735);
},
{
name = topright;
pos = (582,761);
}
);
layerId = m01;
shapes = (
{
closed = 1;
nodes = (
(87,103,ls),
(87,35,o),
(50,5,o),
(50,5,c),
(50,0,l),
(214,0,l),
(214,4,l),
(214,4,o),
(177,35,o),
(177,103,cs),
(177,585,ls),
(177,711,o),
(229,726,o),
(256,726,c),
(328,726,o),
(353,649,o),
(353,598,c),
(389,737,l),
(354,762,o),
(309,777,o),
(259,777,cs),
(99,777,o),
(87,604,o),
(87,557,cs)
);
},
{
closed = 1;
nodes = (
(314,411,l),
(314,492,l),
(312,492,l),
(144,475,l),
(144,430,l),
(313,410,l)
);
},
{
closed = 1;
nodes = (
(443,103,l),
(443,765,l),
(438,765,l),
(316,709,l),
(316,704,l),
(316,704,o),
(353,690,o),
(353,690,c),
(353,103,l)
);
},
{
closed = 1;
nodes = (
(480,0,l),
(480,4,l),
(480,4,o),
(443,35,o),
(443,103,c),
(353,103,l),
(353,35,o),
(316,5,o),
(316,5,c),
(316,0,l)
);
},
{
closed = 1;
nodes = (
(87,414,l),
(87,478,l),
(35,419,l),
(35,414,l)
);
}
);
width = 515;
}
);
metricLeft = f;
metricRight = l;
unicode = 64258;
},
{
color = 4;
glyphname = ordfeminine;
lastChange = "2024-07-01 16:00:13 +0000";
layers = (
{
anchors = (
{
name = bottom;
pos = (163,0);
},
{
name = ogonek;
pos = (315,-12);
},
{
name = top;
pos = (163,480);
}
);
layerId = m01;
shapes = (
{
closed = 1;
nodes = (
(324,235,l),
(324,283,l),
(54,283,l),
(54,235,l)
);
},
{
closed = 1;
nodes = (
(324,328,o),
(338,335,o),
(347,342,c),
(347,342,o),
(317,364,o),
(311,412,c),
(311,508,l),
(240,484,l),
(240,393,l),
(242,393,l),
(242,361,o),
(268,328,o),
(306,328,cs)
);
},
{
closed = 1;
nodes = (
(148,328,o),
(166,332,o),
(182,339,c),
(240,390,l),
(240,417,l),
(221,401,o),
(194,384,o),
(162,384,cs),
(131,384,o),
(107,404,o),
(107,434,cs),
(107,456,o),
(122,485,o),
(157,513,c),
(240,513,l),
(240,572,l),
(160,542,ls),
(73,510,o),
(35,475,o),
(35,412,cs),
(35,363,o),
(72,328,o),
(126,328,cs)
);
},
{
closed = 1;
nodes = (
(323,328,o),
(336,335,o),
(345,342,c),
(345,342,o),
(316,362,o),
(311,408,c),
(311,595,l),
(240,572,l),
(240,390,l),
(242,390,l),
(242,359,o),
(267,328,o),
(306,328,cs)
);
},
{
closed = 1;
nodes = (
(104,589,l),
(110,615,o),
(128,665,o),
(176,665,cs),
(221,665,o),
(240,618,o),
(240,570,c),
(240,513,l),
(311,513,l),
(311,594,l),
(311,670,o),
(259,706,o),
(179,706,cs),
(133,706,o),
(95,687,o),
(65,669,c),
(98,589,l)
);
}
);
width = 382;
}
);
metricLeft = "=o";
metricRight = "=o";
unicode = 170;
userData = {
KernOnSpecialSpacing = {
L = superiors;
R = superiors;
};
};
},
{
color = 4;
glyphname = ordmasculine;
lastChange = "2024-07-01 15:59:32 +0000";
layers = (
{
anchors = (
{
name = bottom;
pos = (224,0);
},
{
name = center;
pos = (224,240);
},
{
name = ogonek;
pos = (303,0);
},
{
name = top;
pos = (224,480);
},
{
name = topright;
pos = (500,480);
}
);
layerId = m01;
shapes = (
{
closed = 1;
nodes = (
(334,328,o),
(413,408,o),
(413,521,cs),
(413,630,o),
(337,706,o),
(228,706,cs),
(115,706,o),
(35,627,o),
(35,513,cs),
(35,405,o),
(112,328,o),
(220,328,cs)
);
},
{
closed = 1;
nodes = (
(155,371,o),
(109,430,o),
(109,523,cs),
(109,606,o),
(155,664,o),
(220,664,cs),
(293,664,o),
(339,605,o),
(339,511,cs),
(339,429,o),
(293,371,o),
(228,371,cs)
);
},
{
closed = 1;
nodes = (
(383,235,l),
(383,283,l),
(65,283,l),
(65,235,l)
);
}
);
width = 448;
}
);
metricLeft = "=o";
metricRight = "=o";
unicode = 186;
userData = {
KernOnSpecialSpacing = {
L = superiors;
R = superiors;
};
};
},
{
color = 9;
glyphname = clickalveolar;
lastChange = "2024-05-30 08:46:48 +0000";
layers = (
{
layerId = m01;
shapes = (
{
closed = 1;
nodes = (
(244,0,l),
(244,765,l),
(164,765,l),
(164,0,l)
);
},
{
closed = 1;
nodes = (
(373,287,l),
(373,339,l),
(35,339,l),
(35,287,l)
);
},
{
closed = 1;
nodes = (
(373,428,l),
(373,480,l),
(35,480,l),
(35,428,l)
);
}
);
width = 408;
}
);
metricLeft = "=o";
metricRight = "=o";
unicode = 450;
},
{
color = 9;
glyphname = clickdental;
lastChange = "2024-05-30 08:46:48 +0000";
layers = (
{
layerId = m01;
shapes = (
{
closed = 1;
nodes = (
(133,0,l),
(133,765,l),
(53,765,l),
(53,0,l)
);
}
);
width = 186;
}
);
metricLeft = "=o*1.5";
metricRight = "=o*1.5";
unicode = 448;
},
{
color = 9;
glyphname = clicklateral;
lastChange = "2024-05-30 08:46:48 +0000";
layers = (
{
layerId = m01;
shapes = (
{
closed = 1;
nodes = (
(293,0,l),
(293,765,l),
(213,765,l),
(213,0,l)
);
},
{
closed = 1;
nodes = (
(133,0,l),
(133,765,l),
(53,765,l),
(53,0,l)
);
}
);
width = 346;
}
);
metricLeft = "=clickdental";
metricRight = "=clickdental";
unicode = 449;
},
{
color = 9;
glyphname = clickretroflex;
lastChange = "2024-05-30 08:46:48 +0000";
layers = (
{
layerId = m01;
shapes = (
{
closed = 1;
nodes = (
(166,192,l),
(174,765,l),
(84,765,l),
(92,192,l)
);
},
{
closed = 1;
nodes = (
(174,-12,o),
(205,18,o),
(205,60,cs),
(205,102,o),
(174,132,o),
(129,132,cs),
(84,132,o),
(53,102,o),
(53,60,cs),
(53,18,o),
(84,-12,o),
(129,-12,cs)
);
}
);
width = 258;
}
);
metricLeft = "=clickdental";
metricRight = "=clickdental";
unicode = 451;
},
{
color = 4;
glyphname = pi;
kernLeft = KO_pi;
lastChange = "2024-07-01 15:51:31 +0000";
layers = (
{
layerId = m01;
shapes = (
{
closed = 1;
nodes = (
(622,-16,o),
(654,6,o),
(672,41,c),
(672,49,l),
(652,38,o),
(633,33,o),
(611,33,cs),
(547,33,o),
(522,65,o),
(522,149,cs),
(522,449,l),
(432,425,l),
(432,149,ls),
(432,43,o),
(480,-16,o),
(565,-16,cs)
);
},
{
closed = 1;
nodes = (
(253,0,l),
(273,451,l),
(225,444,l),
(137,0,l)
);
},
{
closed = 1;
nodes = (
(58,390,o),
(93,403,o),
(150,403,c),
(643,403,l),
(668,478,l),
(668,484,l),
(172,484,ls),
(100,484,o),
(55,447,o),
(35,372,c),
(46,365,l)
);
}
);
width = 707;
}
);
metricLeft = "=o";
metricRight = "=o";
unicode = 960;
},
{
color = 4;
glyphname = zero;
kernLeft = KO_six;
kernRight = KO_zero;
lastChange = "2024-07-02 18:10:57 +0000";
layers = (
{
layerId = m01;
shapes = (
{
closed = 1;
nodes = (
(490,-16,o),
(599,131,o),
(599,364,cs),
(599,574,o),
(490,706,o),
(317,706,cs),
(144,706,o),
(35,559,o),
(35,326,cs),
(35,116,o),
(144,-16,o),
(317,-16,cs)
);
},
{
closed = 1;
nodes = (
(202,39,o),
(138,151,o),
(138,350,cs),
(138,535,o),
(207,651,o),
(317,651,cs),
(432,651,o),
(496,539,o),
(496,340,cs),
(496,155,o),
(427,39,o),
(317,39,cs)
);
}
);
width = 634;
}
);
metricLeft = "=o";
metricRight = "=o";
unicode = 48;
},
{
color = 4;
glyphname = one;
kernLeft = KO_one;
kernRight = KO_one;
lastChange = "2024-07-03 08:52:05 +0000";
layers = (
{
layerId = m01;
shapes = (
{
closed = 1;
nodes = (
(202,706,l),
(197,706,l),
(-20,587,l),
(-17,578,l),
(108,578,l),
(108,110,ls),
(108,37,o),
(68,5,o),
(68,5,c),
(68,0,l),
(244,0,l),
(244,4,l),
(244,4,o),
(204,37,o),
(204,110,c)
);
}
);
width = 298;
}
);
metricLeft = "=I@5*1.5";
metricRight = "=I@5*1.2";
unicode = 49;
},
{
color = 4;
glyphname = two;
kernLeft = KO_two;
kernRight = KO_two;
lastChange = "2024-07-03 08:51:44 +0000";
layers = (
{
layerId = m01;
shapes = (
{
closed = 1;
nodes = (
(554,0,l),
(455,84,l),
(170,84,l),
(170,59,l),
(334,222,ls),
(492,378,o),
(544,456,o),
(544,534,cs),
(544,644,o),
(457,706,o),
(301,706,cs),
(224,706,o),
(130,677,o),
(74,636,c),
(152,524,l),
(158,524,l),
(173,594,o),
(216,654,o),
(291,654,cs),
(376,654,o),
(435,601,o),
(435,526,cs),
(435,441,o),
(377,352,o),
(203,167,cs),
(50,5,l),
(50,0,l)
);
},
{
closed = 1;
nodes = (
(574,169,l),
(568,169,l),
(557,144,o),
(506,84,o),
(414,84,c),
(414,84,o),
(422,0,o),
(422,0,c),
(554,0,l)
);
}
);
width = 629;
}
);
metricLeft = "=O+15";
metricRight = "=O+20";
unicode = 50;
},
{
color = 4;
glyphname = three;
kernLeft = KO_three;
kernRight = KO_three;
lastChange = "2024-06-28 11:11:12 +0000";
layers = (
{
layerId = m01;
shapes = (
{
closed = 1;
nodes = (
(448,-16,o),
(553,70,o),
(553,207,cs),
(553,324,o),
(448,390,o),
(259,390,c),
(259,343,l),
(371,343,o),
(450,280,o),
(450,191,cs),
(450,105,o),
(375,37,o),
(280,37,c),
(180,37,o),
(130,116,o),
(116,176,c),
(110,176,l),
(35,60,l),
(109,7,o),
(183,-16,o),
(280,-16,cs)
);
},
{
closed = 1;
nodes = (
(378,366,l),
(378,394,l),
(332,394,l),
(332,366,l)
);
},
{
closed = 1;
nodes = (
(426,367,o),
(531,434,o),
(531,541,cs),
(531,638,o),
(432,706,o),
(290,706,cs),
(199,706,o),
(115,684,o),
(57,646,c),
(130,534,l),
(136,534,l),
(150,577,o),
(181,654,o),
(280,654,cs),
(367,654,o),
(428,603,o),
(428,531,cs),
(428,455,o),
(354,395,o),
(259,395,c),
(259,367,l)
);
}
);
width = 588;
}
);
metricLeft = "=O";
metricRight = "=O";
unicode = 51;
},
{
color = 4;
glyphname = four;
kernLeft = KO_four;
kernRight = KO_four;
lastChange = "2024-07-02 18:04:08 +0000";
layers = (
{
layerId = m01;
shapes = (
{
closed = 1;
nodes = (
(67,178,l),
(74,211,l),
(457,685,l),
(457,690,l),
(330,690,l),
(23,206,l),
(43,178,l)
);
},
{
closed = 1;
nodes = (
(622,178,l),
(622,234,l),
(65,234,l),
(43,178,l)
);
},
{
closed = 1;
nodes = (
(446,405,l),
(357,405,l),
(352,400,l),
(352,110,ls),
(352,37,o),
(312,5,o),
(312,5,c),
(312,0,l),
(488,0,l),
(488,4,l),
(488,4,o),
(448,37,o),
(448,110,c)
);
}
);
width = 667;
}
);
metricLeft = "=I*0.5";
metricRight = "=I";
unicode = 52;
},
{
color = 4;
glyphname = five;
kernLeft = KO_five;
kernRight = KO_five;
lastChange = "2024-07-02 18:11:02 +0000";
layers = (
{
layerId = m01;
shapes = (
{
closed = 1;
nodes = (
(456,-16,o),
(573,81,o),
(573,219,cs),
(573,343,o),
(473,431,o),
(331,431,cs),
(266,431,o),
(196,411,o),
(149,379,c),
(177,368,l),
(195,637,l),
(139,606,l),
(531,606,l),
(543,722,l),
(539,722,l),
(539,722,o),
(516,690,o),
(445,690,c),
(116,690,l),
(91,337,l),
(113,316,l),
(159,349,o),
(216,366,o),
(284,366,cs),
(398,366,o),
(470,303,o),
(470,203,cs),
(470,106,o),
(396,37,o),
(290,37,c),
(200,37,o),
(130,116,o),
(116,176,c),
(110,176,l),
(35,60,l),
(109,7,o),
(186,-16,o),
(290,-16,cs)
);
}
);
width = 608;
}
);
metricLeft = "=o";
metricRight = "=o";
unicode = 53;
},
{
color = 4;
glyphname = six;
kernLeft = KO_six;
kernRight = KO_six;
lastChange = "2024-07-02 18:08:02 +0000";
layers = (
{
layerId = m01;
shapes = (
{
closed = 1;
nodes = (
(456,-16,o),
(570,85,o),
(570,213,cs),
(570,348,o),
(479,432,o),
(333,432,cs),
(240,432,o),
(149,372,o),
(114,287,c),
(126,238,l),
(163,321,o),
(227,367,o),
(305,367,cs),
(408,367,o),
(466,307,o),
(466,199,cs),
(466,99,o),
(408,37,o),
(316,37,cs),
(206,37,o),
(137,156,o),
(137,345,cs),
(137,525,o),
(220,651,o),
(338,651,cs),
(428,651,o),
(463,588,o),
(477,528,c),
(483,528,l),
(560,644,l),
(494,684,o),
(416,706,o),
(342,706,cs),
(162,706,o),
(35,555,o),
(35,341,cs),
(35,112,o),
(134,-16,o),
(310,-16,cs)
);
}
);
width = 605;
}
);
metricLeft = "=o";
metricRight = "=o";
unicode = 54;
},
{
color = 4;
glyphname = seven;
kernLeft = KO_seven;
kernRight = KO_seven;
lastChange = "2024-07-03 08:51:27 +0000";
layers = (
{
layerId = m01;
shapes = (
{
closed = 1;
nodes = (
(553,677,l),
(546,690,l),
(508,690,l),
(501,657,l),
(154,5,l),
(154,0,l),
(283,0,l)
);
},
{
closed = 1;
nodes = (
(164,606,l),
(497,606,l),
(546,690,l),
(35,690,l)
);
},
{
closed = 1;
nodes = (
(68,521,l),
(79,546,o),
(110,606,o),
(232,606,c),
(153,690,l),
(61,690,o),
(36,690,o),
(36,690,c),
(35,690,l),
(62,521,l)
);
}
);
width = 571;
}
);
metricLeft = "=O";
metricRight = "=O*0.5";
unicode = 55;
},
{
color = 4;
glyphname = eight;
kernLeft = KO_eight;
kernRight = KO_eight;
lastChange = "2024-07-03 08:50:08 +0000";
layers = (
{
layerId = m01;
shapes = (
{
closed = 1;
nodes = (
(471,-16,o),
(575,65,o),
(575,195,cs),
(575,436,o),
(160,353,o),
(160,538,cs),
(160,604,o),
(220,655,o),
(297,655,cs),
(390,655,o),
(448,604,o),
(448,524,cs),
(448,460,o),
(398,402,o),
(319,373,c),
(327,353,l),
(469,384,o),
(549,450,o),
(549,537,cs),
(549,636,o),
(448,706,o),
(305,706,cs),
(167,706,o),
(59,623,o),
(59,517,cs),
(59,276,o),
(474,359,o),
(474,174,cs),
(474,94,o),
(406,37,o),
(309,37,cs),
(204,37,o),
(138,94,o),
(138,184,cs),
(138,253,o),
(193,321,o),
(271,348,c),
(263,371,l),
(117,335,o),
(35,264,o),
(35,171,cs),
(35,56,o),
(139,-16,o),
(305,-16,cs)
);
}
);
width = 610;
}
);
metricLeft = "=O";
metricRight = "=O";
unicode = 56;
},
{
color = 4;
glyphname = zero.zero;
kernLeft = KO_six;
kernRight = KO_zero;
lastChange = "2024-05-30 08:46:48 +0000";
layers = (
{
layerId = m01;
shapes = (
{
ref = zero;
},
{
closed = 1;
nodes = (
(218,54,l),
(480,614,l),
(434,636,l),
(173,76,l)
);
}
);
width = 634;
}
);
metricLeft = zero;
metricRight = zero;
},
{
color = 4;
glyphname = zero.dnom;
lastChange = "2024-05-30 08:46:48 +0000";
layers = (
{
layerId = m01;
shapes = (
{
closed = 1;
nodes = (
(308,-12,o),
(379,73,o),
(379,193,cs),
(379,299,o),
(308,373,o),
(207,373,cs),
(106,373,o),
(35,288,o),
(35,168,cs),
(35,62,o),
(106,-12,o),
(207,-12,cs)
);
},
{
closed = 1;
nodes = (
(147,25,o),
(109,86,o),
(109,184,cs),
(109,281,o),
(144,336,o),
(207,336,cs),
(267,336,o),
(305,275,o),
(305,177,cs),
(305,80,o),
(270,25,o),
(207,25,cs)
);
}
);
width = 414;
}
);
metricLeft = "=o";
metricRight = "=o";
},
{
color = 4;
glyphname = one.dnom;
lastChange = "2024-07-02 08:51:34 +0000";
layers = (
{
layerId = m01;
shapes = (
{
closed = 1;
nodes = (
(167,373,l),
(163,373,l),
(35,297,l),
(37,291,l),
(102,291,l),
(102,59,ls),
(102,20,o),
(82,4,o),
(82,4,c),
(82,0,l),
(189,0,l),
(189,3,l),
(189,3,o),
(168,20,o),
(168,59,c)
);
}
);
width = 224;
}
);
metricLeft = o;
metricRight = o;
},
{
color = 4;
glyphname = two.dnom;
lastChange = "2024-07-02 08:59:04 +0000";
layers = (
{
layerId = m01;
shapes = (
{
closed = 1;
nodes = (
(301,0,l),
(311,107,l),
(307,107,l),
(293,77,o),
(250,55,o),
(218,55,c),
(98,55,l),
(98,31,l),
(189,117,ls),
(273,197,o),
(301,238,o),
(301,282,cs),
(301,335,o),
(246,373,o),
(168,373,cs),
(121,373,o),
(67,358,o),
(39,336,c),
(73,269,l),
(77,269,l),
(87,299,o),
(103,339,o),
(163,339,cs),
(202,339,o),
(230,311,o),
(230,271,cs),
(230,223,o),
(197,172,o),
(111,88,cs),
(35,13,l),
(42,0,l)
);
}
);
width = 346;
}
);
metricLeft = "=o";
metricRight = "=o";
},
{
color = 4;
glyphname = three.dnom;
lastChange = "2024-07-02 08:49:45 +0000";
layers = (
{
layerId = m01;
shapes = (
{
closed = 1;
nodes = (
(258,-12,o),
(322,37,o),
(322,107,cs),
(322,170,o),
(262,205,o),
(155,205,c),
(155,178,l),
(210,178,o),
(249,145,o),
(249,99,cs),
(249,56,o),
(212,22,o),
(166,22,cs),
(101,22,o),
(84,64,o),
(74,94,c),
(70,94,l),
(35,29,l),
(70,4,o),
(120,-12,o),
(166,-12,cs)
);
},
{
closed = 1;
nodes = (
(248,193,o),
(306,229,o),
(306,286,cs),
(306,337,o),
(251,373,o),
(172,373,cs),
(121,373,o),
(76,362,o),
(47,342,c),
(81,278,l),
(85,278,l),
(95,308,o),
(111,339,o),
(166,339,cs),
(210,339,o),
(237,317,o),
(237,281,cs),
(237,239,o),
(203,210,o),
(155,210,c),
(155,193,l)
);
}
);
width = 357;
}
);
metricLeft = "=o";
metricRight = "=o";
},
{
color = 4;
glyphname = four.dnom;
lastChange = "2024-07-02 08:52:35 +0000";
layers = (
{
layerId = m01;
shapes = (
{
closed = 1;
nodes = (
(53,97,l),
(57,114,l),
(256,354,l),
(256,361,l),
(174,361,l),
(20,104,l),
(25,97,l)
);
},
{
closed = 1;
nodes = (
(346,97,l),
(346,131,l),
(52,131,l),
(25,97,l)
);
},
{
closed = 1;
nodes = (
(258,219,l),
(193,219,l),
(193,59,ls),
(193,20,o),
(173,4,o),
(173,4,c),
(173,0,l),
(280,0,l),
(280,3,l),
(280,3,o),
(259,20,o),
(259,59,c)
);
}
);
width = 361;
}
);
},
{
color = 4;
glyphname = five.dnom;
lastChange = "2024-07-02 08:56:54 +0000";
layers = (
{
layerId = m01;
shapes = (
{
closed = 1;
nodes = (
(260,-12,o),
(324,39,o),
(324,112,cs),
(324,178,o),
(269,224,o),
(191,224,cs),
(153,224,o),
(121,215,o),
(96,197,c),
(112,191,l),
(122,333,l),
(89,306,l),
(302,306,l),
(310,395,l),
(306,395,l),
(302,385,o),
(277,361,o),
(227,361,c),
(77,361,l),
(64,161,l),
(73,156,l),
(76,158,l),
(102,175,o),
(131,184,o),
(166,184,cs),
(223,184,o),
(255,155,o),
(255,104,cs),
(255,51,o),
(225,22,o),
(170,22,cs),
(107,22,o),
(83,71,o),
(73,101,c),
(69,101,l),
(35,32,l),
(74,4,o),
(123,-12,o),
(170,-12,cs)
);
}
);
width = 359;
}
);
metricLeft = "=o";
metricRight = "=o";
},
{
color = 4;
glyphname = six.dnom;
lastChange = "2024-07-02 08:54:50 +0000";
layers = (
{
layerId = m01;
shapes = (
{
closed = 1;
nodes = (
(267,-12,o),
(330,42,o),
(330,110,cs),
(330,182,o),
(279,227,o),
(199,227,cs),
(150,227,o),
(102,195,o),
(82,150,c),
(89,117,l),
(108,161,o),
(144,188,o),
(184,188,cs),
(234,188,o),
(259,159,o),
(259,102,cs),
(259,52,o),
(232,20,o),
(190,20,cs),
(135,20,o),
(105,78,o),
(105,181,cs),
(105,278,o),
(142,339,o),
(202,339,cs),
(257,339,o),
(270,302,o),
(280,272,c),
(284,272,l),
(320,339,l),
(283,362,o),
(244,373,o),
(204,373,cs),
(105,373,o),
(35,293,o),
(35,179,cs),
(35,56,o),
(90,-12,o),
(187,-12,cs)
);
}
);
width = 365;
}
);
metricLeft = "=o";
metricRight = "=o";
},
{
color = 4;
glyphname = seven.dnom;
lastChange = "2024-07-02 08:57:34 +0000";
layers = (
{
layerId = m01;
shapes = (
{
closed = 1;
nodes = (
(170,0,l),
(317,353,l),
(313,361,l),
(30,361,l),
(44,254,l),
(47,254,l),
(51,264,o),
(77,306,o),
(127,306,c),
(272,306,l),
(272,330,l),
(86,0,l)
);
}
);
width = 323;
}
);
},
{
color = 4;
glyphname = eight.dnom;
lastChange = "2024-05-30 08:46:48 +0000";
layers = (
{
layerId = m01;
shapes = (
{
closed = 1;
nodes = (
(276,-12,o),
(338,36,o),
(338,104,cs),
(338,243,o),
(119,191,o),
(119,279,cs),
(119,314,o),
(147,341,o),
(183,341,cs),
(227,341,o),
(258,313,o),
(258,273,cs),
(258,240,o),
(237,215,o),
(195,200,c),
(199,185,l),
(279,203,o),
(324,237,o),
(324,279,cs),
(324,337,o),
(271,373,o),
(187,373,cs),
(105,373,o),
(48,330,o),
(48,269,cs),
(48,130,o),
(267,182,o),
(267,93,cs),
(267,53,o),
(233,21,o),
(189,21,cs),
(134,21,o),
(103,49,o),
(103,98,cs),
(103,134,o),
(128,164,o),
(169,178,c),
(165,195,l),
(75,172,o),
(35,140,o),
(35,91,cs),
(35,31,o),
(98,-12,o),
(187,-12,cs)
);
}
);
width = 373;
}
);
metricLeft = "=o";
metricRight = "=o";
},
{
color = 4;
glyphname = fraction;
lastChange = "2024-05-06 01:18:14 +0000";
layers = (
{
layerId = m01;
shapes = (
{
closed = 1;
nodes = (
(-236,0,l),
(330,690,l),
(271,690,l),
(-295,0,l)
);
}
);
width = 35;
}
);
unicode = 8260;
userData = {
KernOnName = fraction;
KernOnSpecialSpacing = {
L = fraction;
R = fraction;
};
};
},
{
color = 4;
glyphname = onehalf;
lastChange = "2024-07-02 09:00:09 +0000";
layers = (
{
layerId = m01;
shapes = (
{
closed = 1;
nodes = (
(94,0,l),
(660,690,l),
(601,690,l),
(35,0,l)
);
},
{
closed = 1;
nodes = (
(174,702,l),
(170,702,l),
(42,626,l),
(44,620,l),
(109,620,l),
(109,388,ls),
(109,349,o),
(89,333,o),
(89,333,c),
(89,329,l),
(196,329,l),
(196,332,l),
(196,332,o),
(175,349,o),
(175,388,c)
);
},
{
closed = 1;
nodes = (
(701,0,l),
(711,107,l),
(707,107,l),
(693,77,o),
(650,55,o),
(618,55,c),
(498,55,l),
(498,31,l),
(589,117,ls),
(673,197,o),
(701,238,o),
(701,282,cs),
(701,335,o),
(646,373,o),
(568,373,cs),
(521,373,o),
(467,358,o),
(439,336,c),
(473,269,l),
(477,269,l),
(487,299,o),
(503,339,o),
(563,339,cs),
(602,339,o),
(630,311,o),
(630,271,cs),
(630,223,o),
(597,172,o),
(511,88,cs),
(435,13,l),
(442,0,l)
);
}
);
width = 746;
}
);
metricLeft = "=o";
metricRight = "=o";
unicode = 189;
userData = {
KernOnSpecialSpacing = {
L = NoKerning;
R = NoKerning;
};
};
},
{
color = 4;
glyphname = onethird;
lastChange = "2024-07-02 09:01:10 +0000";
layers = (
{
layerId = m01;
shapes = (
{
closed = 1;
nodes = (
(94,0,l),
(660,690,l),
(601,690,l),
(35,0,l)
);
},
{
closed = 1;
nodes = (
(174,702,l),
(170,702,l),
(42,626,l),
(44,620,l),
(109,620,l),
(109,388,ls),
(109,349,o),
(89,333,o),
(89,333,c),
(89,329,l),
(196,329,l),
(196,332,l),
(196,332,o),
(175,349,o),
(175,388,c)
);
},
{
closed = 1;
nodes = (
(652,-12,o),
(716,37,o),
(716,107,cs),
(716,170,o),
(656,205,o),
(549,205,c),
(549,178,l),
(604,178,o),
(643,145,o),
(643,99,cs),
(643,56,o),
(606,22,o),
(560,22,cs),
(495,22,o),
(478,64,o),
(468,94,c),
(464,94,l),
(429,29,l),
(464,4,o),
(514,-12,o),
(560,-12,cs)
);
},
{
closed = 1;
nodes = (
(642,193,o),
(700,229,o),
(700,286,cs),
(700,337,o),
(645,373,o),
(566,373,cs),
(515,373,o),
(470,362,o),
(441,342,c),
(475,278,l),
(479,278,l),
(489,308,o),
(505,339,o),
(560,339,cs),
(604,339,o),
(631,317,o),
(631,281,cs),
(631,239,o),
(597,210,o),
(549,210,c),
(549,193,l)
);
}
);
width = 751;
}
);
metricLeft = "=o";
metricRight = "=o";
unicode = 8531;
userData = {
KernOnSpecialSpacing = {
L = NoKerning;
R = NoKerning;
};
};
},
{
color = 4;
glyphname = twothirds;
lastChange = "2024-07-02 09:03:00 +0000";
layers = (
{
layerId = m01;
shapes = (
{
closed = 1;
nodes = (
(149,0,l),
(715,690,l),
(656,690,l),
(90,0,l)
);
},
{
closed = 1;
nodes = (
(301,329,l),
(311,436,l),
(307,436,l),
(293,406,o),
(250,384,o),
(218,384,c),
(98,384,l),
(98,360,l),
(189,446,ls),
(273,526,o),
(301,567,o),
(301,611,cs),
(301,664,o),
(246,702,o),
(168,702,cs),
(121,702,o),
(67,687,o),
(39,665,c),
(73,598,l),
(77,598,l),
(87,628,o),
(103,668,o),
(163,668,cs),
(202,668,o),
(230,640,o),
(230,600,cs),
(230,552,o),
(197,501,o),
(111,417,cs),
(35,342,l),
(42,329,l)
);
},
{
closed = 1;
nodes = (
(707,-12,o),
(771,37,o),
(771,107,cs),
(771,170,o),
(711,205,o),
(604,205,c),
(604,178,l),
(659,178,o),
(698,145,o),
(698,99,cs),
(698,56,o),
(661,22,o),
(615,22,cs),
(550,22,o),
(533,64,o),
(523,94,c),
(519,94,l),
(484,29,l),
(519,4,o),
(569,-12,o),
(615,-12,cs)
);
},
{
closed = 1;
nodes = (
(697,193,o),
(755,229,o),
(755,286,cs),
(755,337,o),
(700,373,o),
(621,373,cs),
(570,373,o),
(525,362,o),
(496,342,c),
(530,278,l),
(534,278,l),
(544,308,o),
(560,339,o),
(615,339,cs),
(659,339,o),
(686,317,o),
(686,281,cs),
(686,239,o),
(652,210,o),
(604,210,c),
(604,193,l)
);
}
);
width = 806;
}
);
metricLeft = "=o";
metricRight = "=o";
unicode = 8532;
userData = {
KernOnSpecialSpacing = {
L = NoKerning;
R = NoKerning;
};
};
},
{
color = 4;
glyphname = onequarter;
lastChange = "2024-07-02 09:02:28 +0000";
layers = (
{
layerId = m01;
shapes = (
{
closed = 1;
nodes = (
(94,0,l),
(660,690,l),
(601,690,l),
(35,0,l)
);
},
{
closed = 1;
nodes = (
(174,702,l),
(170,702,l),
(42,626,l),
(44,620,l),
(109,620,l),
(109,388,ls),
(109,349,o),
(89,333,o),
(89,333,c),
(89,329,l),
(196,329,l),
(196,332,l),
(196,332,o),
(175,349,o),
(175,388,c)
);
},
{
closed = 1;
nodes = (
(388,97,l),
(392,114,l),
(591,354,l),
(591,361,l),
(509,361,l),
(355,104,l),
(360,97,l)
);
},
{
closed = 1;
nodes = (
(681,97,l),
(681,131,l),
(387,131,l),
(360,97,l)
);
},
{
closed = 1;
nodes = (
(593,219,l),
(528,219,l),
(528,59,ls),
(528,20,o),
(508,4,o),
(508,4,c),
(508,0,l),
(615,0,l),
(615,3,l),
(615,3,o),
(594,20,o),
(594,59,c)
);
}
);
width = 716;
}
);
metricLeft = "=o";
metricRight = "=o";
unicode = 188;
userData = {
KernOnSpecialSpacing = {
L = NoKerning;
R = NoKerning;
};
};
},
{
color = 4;
glyphname = threequarters;
lastChange = "2024-07-02 09:02:52 +0000";
layers = (
{
layerId = m01;
shapes = (
{
closed = 1;
nodes = (
(164,0,l),
(730,690,l),
(671,690,l),
(105,0,l)
);
},
{
closed = 1;
nodes = (
(258,317,o),
(322,366,o),
(322,436,cs),
(322,499,o),
(262,534,o),
(155,534,c),
(155,507,l),
(210,507,o),
(249,474,o),
(249,428,cs),
(249,385,o),
(212,351,o),
(166,351,cs),
(101,351,o),
(84,393,o),
(74,423,c),
(70,423,l),
(35,358,l),
(70,333,o),
(120,317,o),
(166,317,cs)
);
},
{
closed = 1;
nodes = (
(248,522,o),
(306,558,o),
(306,615,cs),
(306,666,o),
(251,702,o),
(172,702,cs),
(121,702,o),
(76,691,o),
(47,671,c),
(81,607,l),
(85,607,l),
(95,637,o),
(111,668,o),
(166,668,cs),
(210,668,o),
(237,646,o),
(237,610,cs),
(237,568,o),
(203,539,o),
(155,539,c),
(155,522,l)
);
},
{
closed = 1;
nodes = (
(444,97,l),
(448,114,l),
(647,354,l),
(647,361,l),
(565,361,l),
(411,104,l),
(416,97,l)
);
},
{
closed = 1;
nodes = (
(737,97,l),
(737,131,l),
(443,131,l),
(416,97,l)
);
},
{
closed = 1;
nodes = (
(649,219,l),
(584,219,l),
(584,59,ls),
(584,20,o),
(564,4,o),
(564,4,c),
(564,0,l),
(671,0,l),
(671,3,l),
(671,3,o),
(650,20,o),
(650,59,c)
);
}
);
width = 772;
}
);
metricLeft = "=o";
metricRight = "=o";
unicode = 190;
userData = {
KernOnSpecialSpacing = {
L = NoKerning;
R = NoKerning;
};
};
},
{
color = 4;
glyphname = .notdef;
lastChange = "2024-05-29 13:53:59 +0000";
layers = (
{
layerId = m01;
shapes = (
{
closed = 1;
nodes = (
(548,0,l),
(548,690,l),
(35,690,l),
(35,0,l)
);
},
{
closed = 1;
nodes = (
(100,631,l),
(483,631,l),
(483,59,l),
(100,59,l)
);
}
);
width = 583;
}
);
metricLeft = "=O";
metricRight = "=O";
},
{
color = 4;
glyphname = "leftanglebracket-math";
lastChange = "2024-05-30 08:46:48 +0000";
layers = (
{
layerId = m01;
shapes = (
{
closed = 1;
nodes = (
(266,39,l),
(95,342,l),
(266,645,l),
(266,734,l),
(35,342,l),
(266,-50,l)
);
}
);
width = 301;
}
);
metricLeft = "=o";
metricRight = "=o";
unicode = 10216;
userData = {
KernOnSpecialSpacing = {
R = parenthesis;
};
};
},
{
color = 4;
glyphname = period;
kernLeft = KO_period;
kernRight = KO_period;
lastChange = "2024-05-30 08:46:48 +0000";
layers = (
{
layerId = m01;
shapes = (
{
closed = 1;
nodes = (
(174,-12,o),
(205,18,o),
(205,60,cs),
(205,102,o),
(174,132,o),
(129,132,cs),
(84,132,o),
(53,102,o),
(53,60,cs),
(53,18,o),
(84,-12,o),
(129,-12,cs)
);
}
);
width = 258;
}
);
metricLeft = "=o*1.5";
metricRight = "=|";
unicode = 46;
userData = {
KernOnName = period;
KernOnSpecialSpacing = {
L = period;
R = period;
};
};
},
{
color = 4;
glyphname = comma;
kernLeft = KO_comma;
lastChange = "2024-07-02 09:03:59 +0000";
layers = (
{
layerId = m01;
shapes = (
{
closed = 1;
nodes = (
(155,-118,o),
(219,-42,o),
(219,48,cs),
(219,97,o),
(188,132,o),
(143,132,cs),
(98,132,o),
(67,102,o),
(67,60,c),
(67,48,l),
(138,0,l),
(138,-54,o),
(108,-100,o),
(61,-122,c),
(65,-136,l)
);
}
);
width = 272;
}
);
metricRight = "=o*1.5";
unicode = 44;
userData = {
KernOnSpecialSpacing = {
L = period;
R = period;
};
};
},
{
color = 4;
glyphname = exclam;
kernLeft = KO_exclam;
lastChange = "2024-07-02 09:04:51 +0000";
layers = (
{
layerId = m01;
shapes = (
{
closed = 1;
nodes = (
(136,193,l),
(180,702,l),
(176,706,l),
(46,665,l),
(86,193,l)
);
},
{
closed = 1;
nodes = (
(156,-12,o),
(187,18,o),
(187,60,cs),
(187,102,o),
(156,132,o),
(111,132,cs),
(66,132,o),
(35,102,o),
(35,60,cs),
(35,18,o),
(66,-12,o),
(111,-12,cs)
);
}
);
width = 222;
}
);
metricLeft = "=o";
metricRight = "=o";
unicode = 33;
userData = {
KernOnSpecialSpacing = {
L = "spaced-off";
};
};
},
{
color = 4;
glyphname = question;
kernLeft = KO_question;
kernRight = KO_question;
lastChange = "2024-07-03 16:58:41 +0000";
layers = (
{
layerId = m01;
shapes = (
{
closed = 1;
nodes = (
(235,193,l),
(238,232,ls),
(250,392,o),
(436,392,o),
(436,539,c),
(436,642,o),
(356,706,o),
(243,706,cs),
(176,706,o),
(97,687,o),
(35,636,c),
(103,524,l),
(109,524,l),
(121,584,o),
(144,649,o),
(232,649,cs),
(297,649,o),
(344,606,o),
(344,544,cs),
(344,433,o),
(160,440,o),
(181,247,cs),
(187,193,l)
);
},
{
closed = 1;
nodes = (
(256,-12,o),
(287,18,o),
(287,60,cs),
(287,102,o),
(256,132,o),
(211,132,cs),
(166,132,o),
(135,102,o),
(135,60,cs),
(135,18,o),
(166,-12,o),
(211,-12,cs)
);
}
);
width = 471;
}
);
metricLeft = "=n";
metricRight = "=o";
unicode = 63;
userData = {
KernOnName = question;
KernOnSpecialSpacing = {
L = "spaced-off";
};
};
},
{
color = 4;
glyphname = bullet;
lastChange = "2024-05-30 08:46:48 +0000";
layers = (
{
layerId = m01;
shapes = (
{
closed = 1;
nodes = (
(221,157,o),
(269,205,o),
(269,266,cs),
(269,326,o),
(221,374,o),
(161,374,cs),
(101,374,o),
(53,326,o),
(53,265,cs),
(53,205,o),
(101,157,o),
(161,157,cs)
);
}
);
width = 322;
}
);
metricLeft = "=period";
metricRight = "=period";
unicode = 8226;
userData = {
KernOnSpecialSpacing = {
L = NoKerning;
R = NoKerning;
};
};
},
{
color = 4;
glyphname = asterisk;
kernLeft = KO_asterisk;
kernRight = KO_asterisk;
lastChange = "2024-05-05 07:45:00 +0000";
layers = (
{
layerId = m01;
shapes = (
{
closed = 1;
nodes = (
(335,471,l),
(335,481,l),
(214,585,l),
(373,596,l),
(378,605,l),
(350,692,l),
(340,696,l),
(204,611,l),
(243,767,l),
(236,775,l),
(144,775,l),
(137,767,l),
(176,611,l),
(40,696,l),
(30,692,l),
(2,605,l),
(7,596,l),
(166,585,l),
(45,481,l),
(45,471,l),
(120,417,l),
(130,419,l),
(190,566,l),
(250,419,l),
(260,417,l)
);
}
);
width = 380;
}
);
metricLeft = "=v";
metricRight = "=v";
unicode = 42;
userData = {
KernOnSpecialSpacing = {
L = quotes;
R = quotes;
};
};
},
{
color = 4;
glyphname = numbersign;
kernLeft = KO_numbersign;
kernRight = KO_numbersign;
lastChange = "2024-05-30 08:46:48 +0000";
layers = (
{
layerId = m01;
shapes = (
{
closed = 1;
nodes = (
(334,0,l),
(470,592,l),
(422,592,l),
(286,0,l)
);
},
{
closed = 1;
nodes = (
(467,161,l),
(483,232,l),
(51,232,l),
(35,161,l)
);
},
{
closed = 1;
nodes = (
(142,0,l),
(278,592,l),
(230,592,l),
(94,0,l)
);
},
{
closed = 1;
nodes = (
(513,360,l),
(529,431,l),
(97,431,l),
(81,360,l)
);
}
);
width = 564;
}
);
metricLeft = "=o";
metricRight = "=o";
unicode = 35;
},
{
color = 4;
glyphname = slash;
kernLeft = KO_slash;
kernRight = KO_slash;
lastChange = "2024-05-05 07:45:00 +0000";
layers = (
{
layerId = m01;
shapes = (
{
closed = 1;
nodes = (
(66,-95,l),
(394,805,l),
(334,805,l),
(6,-95,l)
);
}
);
width = 400;
}
);
metricLeft = "=v*3";
metricRight = "=v*3";
unicode = 47;
userData = {
KernOnSpecialSpacing = {
L = slash;
R = slash;
};
};
},
{
color = 4;
glyphname = backslash;
lastChange = "2024-05-05 07:45:00 +0000";
layers = (
{
layerId = m01;
shapes = (
{
closed = 1;
nodes = (
(393,-95,l),
(65,805,l),
(6,805,l),
(334,-95,l)
);
}
);
width = 399;
}
);
metricLeft = "=v*3";
metricRight = "=v*3";
unicode = 92;
userData = {
KernOnSpecialSpacing = {
L = "spaced-off";
R = "spaced-off";
};
};
},
{
color = 4;
glyphname = hyphen;
kernLeft = KO_hyphen;
kernRight = KO_hyphen;
lastChange = "2024-05-06 01:18:14 +0000";
layers = (
{
layerId = m01;
name = Light;
shapes = (
{
closed = 1;
nodes = (
(300,211,l),
(310,285,l),
(35,285,l),
(25,211,l)
);
}
);
width = 340;
}
);
unicode = 45;
userData = {
KernOnName = hyphen;
KernOnSpecialSpacing = {
L = hyphen;
R = hyphen;
};
};
},
{
color = 4;
glyphname = endash;
kernLeft = KO_emdash;
kernRight = KO_endash;
lastChange = "2024-05-06 01:18:14 +0000";
layers = (
{
layerId = m01;
shapes = (
{
closed = 1;
nodes = (
(520,219,l),
(520,279,l),
(20,279,l),
(20,219,l)
);
}
);
width = 540;
}
);
unicode = 8211;
userData = {
KernOnName = endash;
KernOnSpecialSpacing = {
L = dashes;
R = dashes;
};
};
},
{
color = 4;
glyphname = emdash;
kernLeft = KO_emdash;
kernRight = KO_endash;
lastChange = "2024-05-06 01:18:14 +0000";
layers = (
{
layerId = m01;
shapes = (
{
closed = 1;
nodes = (
(920,219,l),
(920,279,l),
(20,279,l),
(20,219,l)
);
}
);
width = 940;
}
);
unicode = 8212;
userData = {
KernOnName = emdash;
KernOnSpecialSpacing = {
L = dashes;
R = dashes;
};
};
},
{
color = 4;
glyphname = underscore;
kernLeft = KO_underscore;
kernRight = KO_underscore;
lastChange = "2024-05-06 01:18:14 +0000";
layers = (
{
layerId = m01;
shapes = (
{
closed = 1;
nodes = (
(500,-104,l),
(500,-44,l),
(20,-44,l),
(20,-104,l)
);
}
);
width = 520;
}
);
unicode = 95;
userData = {
KernOnName = underscore;
KernOnSpecialSpacing = {
L = underscore;
R = underscore;
};
};
},
{
color = 4;
glyphname = parenleft;
kernLeft = KO_parenleft;
kernRight = KO_parenleft;
lastChange = "2024-05-30 08:46:48 +0000";
layers = (
{
layerId = m01;
shapes = (
{
closed = 1;
nodes = (
(313,-217,l),
(190,-104,o),
(121,69,o),
(121,265,cs),
(121,461,o),
(190,634,o),
(313,747,c),
(299,765,l),
(137,666,o),
(35,473,o),
(35,265,cs),
(35,57,o),
(137,-136,o),
(299,-235,c)
);
}
);
width = 348;
}
);
metricLeft = "=o";
metricRight = "=n";
unicode = 40;
userData = {
KernOnSpecialSpacing = {
R = parenthesis;
};
};
},
{
color = 4;
glyphname = braceleft;
lastChange = "2024-05-30 08:46:48 +0000";
layers = (
{
layerId = m01;
shapes = (
{
closed = 1;
nodes = (
(279,-192,l),
(200,-192,o),
(165,-155,o),
(165,-72,cs),
(165,12,o),
(202,58,o),
(202,131,cs),
(202,197,o),
(169,237,o),
(92,263,c),
(92,267,l),
(169,293,o),
(202,333,o),
(202,399,cs),
(202,472,o),
(165,518,o),
(165,602,cs),
(165,685,o),
(200,722,o),
(279,722,c),
(279,742,l),
(160,742,o),
(93,692,o),
(93,602,cs),
(93,518,o),
(125,472,o),
(125,399,cs),
(125,343,o),
(107,314,o),
(54,285,cs),
(40,277,o),
(35,272,o),
(35,265,cs),
(35,258,o),
(40,253,o),
(54,245,cs),
(107,216,o),
(125,187,o),
(125,131,cs),
(125,58,o),
(93,12,o),
(93,-72,cs),
(93,-162,o),
(160,-212,o),
(279,-212,c)
);
}
);
width = 314;
}
);
metricLeft = "=parenleft";
metricRight = "=parenleft";
unicode = 123;
userData = {
KernOnSpecialSpacing = {
R = parenthesis;
};
};
},
{
color = 4;
glyphname = bracketleft;
kernRight = KO_bracketleft;
lastChange = "2024-05-30 08:46:48 +0000";
layers = (
{
layerId = m01;
shapes = (
{
closed = 1;
nodes = (
(240,-204,l),
(240,-184,l),
(79,-157,l),
(110,-185,l),
(110,715,l),
(79,687,l),
(240,714,l),
(240,734,l),
(35,734,l),
(35,-204,l)
);
}
);
width = 275;
}
);
metricLeft = "=parenleft";
metricRight = "=parenleft";
unicode = 91;
userData = {
KernOnSpecialSpacing = {
L = NoKerning;
R = parenthesis;
};
};
},
{
color = 4;
glyphname = quoteleft;
kernLeft = KO_quotedblleft;
kernRight = KO_quoteleft;
lastChange = "2024-07-02 09:08:22 +0000";
layers = (
{
layerId = m01;
shapes = (
{
closed = 1;
nodes = (
(127,691,o),
(63,615,o),
(63,525,cs),
(63,476,o),
(94,441,o),
(139,441,cs),
(184,441,o),
(215,471,o),
(215,513,c),
(215,525,l),
(144,573,l),
(144,627,o),
(174,673,o),
(221,695,c),
(217,709,l)
);
}
);
width = 284;
}
);
metricLeft = "=|quoteright";
metricRight = "=|quoteright";
unicode = 8216;
userData = {
KernOnName = quoteleft;
KernOnSpecialSpacing = {
L = quotes;
R = quotes;
};
};
},
{
color = 4;
glyphname = quoteright;
kernLeft = KO_quoteright;
kernRight = KO_quoteright;
lastChange = "2024-07-01 08:52:59 +0000";
layers = (
{
layerId = m01;
shapes = (
{
closed = 1;
nodes = (
(156,456,o),
(220,532,o),
(220,622,cs),
(220,671,o),
(189,706,o),
(144,706,cs),
(99,706,o),
(68,676,o),
(68,634,c),
(68,622,l),
(139,574,l),
(139,519,o),
(110,470,o),
(63,448,c),
(66,438,l)
);
}
);
width = 283;
}
);
metricLeft = "=o*1.8";
metricRight = "=o*1.8";
unicode = 8217;
userData = {
KernOnName = quoteright;
KernOnSpecialSpacing = {
L = quotes;
R = quotes;
};
};
},
{
color = 4;
glyphname = guilsinglright;
kernLeft = KO_guillemetright;
kernRight = KO_guillemetright;
lastChange = "2024-05-30 08:46:48 +0000";
layers = (
{
layerId = m01;
shapes = (
{
closed = 1;
nodes = (
(244,351,l),
(244,359,l),
(55,571,l),
(35,558,l),
(135,355,l),
(35,152,l),
(55,139,l)
);
}
);
width = 279;
}
);
metricLeft = "=o";
metricRight = "=n";
unicode = 8250;
userData = {
KernOnSpecialSpacing = {
L = quotes;
R = quotes;
};
};
},
{
color = 4;
glyphname = quotesingle;
kernLeft = KO_quotedbl;
kernRight = KO_quotedbl;
lastChange = "2024-05-30 08:46:48 +0000";
layers = (
{
layerId = m01;
shapes = (
{
closed = 1;
nodes = (
(105,444,l),
(147,697,l),
(142,701,l),
(40,701,l),
(35,697,l),
(77,444,l)
);
}
);
width = 182;
}
);
metricLeft = "=o";
metricRight = "=o";
unicode = 39;
userData = {
KernOnSpecialSpacing = {
L = quotes;
R = quotes;
};
};
},
{
color = 4;
glyphname = florin;
lastChange = "2024-07-01 08:49:01 +0000";
layers = (
{
layerId = m01;
shapes = (
{
closed = 1;
nodes = (
(217,-166,o),
(297,-66,o),
(334,92,cs),
(421,468,ls),
(445,572,o),
(483,638,o),
(520,638,cs),
(547,638,o),
(566,626,o),
(579,601,c),
(582,661,l),
(502,661,l),
(569,553,l),
(583,553,l),
(633,666,l),
(606,679,o),
(573,686,o),
(539,686,cs),
(439,686,o),
(361,593,o),
(323,428,cs),
(236,52,ls),
(211,-57,o),
(175,-118,o),
(137,-118,c),
(137,-141,l),
(165,-141,l),
(98,-33,l),
(84,-33,l),
(34,-146,l),
(63,-160,o),
(90,-166,o),
(124,-166,cs)
);
},
{
closed = 1;
nodes = (
(509,290,l),
(519,334,l),
(221,334,l),
(211,290,l)
);
}
);
width = 588;
}
);
metricLeft = "=j";
metricRight = "=f";
unicode = 402;
userData = {
KernOnName = florin;
};
},
{
color = 4;
glyphname = baht;
lastChange = "2024-07-02 09:11:49 +0000";
layers = (
{
layerId = m01;
shapes = (
{
closed = 1;
nodes = (
(302,0,ls),
(449,0,o),
(552,88,o),
(552,214,cs),
(552,316,o),
(463,380,o),
(322,380,cs),
(175,380,l),
(175,330,l),
(312,330,ls),
(395,330,o),
(447,275,o),
(447,188,cs),
(447,103,o),
(391,50,o),
(302,50,cs),
(175,50,l),
(175,0,l)
);
},
{
closed = 1;
nodes = (
(306,-107,l),
(306,777,l),
(260,777,l),
(260,-107,l)
);
},
{
closed = 1;
nodes = (
(408,357,l),
(408,385,l),
(362,385,l),
(362,357,l)
);
},
{
closed = 1;
nodes = (
(307,354,ls),
(440,354,o),
(515,413,o),
(515,519,cs),
(515,608,o),
(421,670,o),
(287,670,cs),
(140,670,l),
(140,620,l),
(277,620,ls),
(360,620,o),
(412,571,o),
(412,493,cs),
(412,427,o),
(369,380,o),
(307,380,c),
(208,380,l),
(208,354,l)
);
},
{
closed = 1;
nodes = (
(302,0,ls),
(449,0,o),
(552,88,o),
(552,214,cs),
(552,316,o),
(463,380,o),
(322,380,cs),
(175,380,l),
(175,330,l),
(312,330,ls),
(395,330,o),
(447,275,o),
(447,188,cs),
(447,103,o),
(391,50,o),
(302,50,cs),
(175,50,l),
(175,0,l)
);
},
{
closed = 1;
nodes = (
(180,0,l),
(180,670,l),
(84,670,l),
(84,0,l)
);
},
{
closed = 1;
nodes = (
(307,354,ls),
(440,354,o),
(515,413,o),
(515,519,cs),
(515,608,o),
(421,670,o),
(287,670,cs),
(140,670,l),
(140,620,l),
(277,620,ls),
(360,620,o),
(412,571,o),
(412,493,cs),
(412,427,o),
(369,380,o),
(307,380,c),
(208,380,l),
(208,354,l)
);
},
{
closed = 1;
nodes = (
(180,560,l),
(180,633,o),
(180,670,o),
(180,670,c),
(45,670,l),
(45,665,l),
(45,665,o),
(84,633,o),
(84,560,c)
);
},
{
closed = 1;
nodes = (
(180,0,l),
(180,0,o),
(180,37,o),
(180,110,c),
(84,110,l),
(84,37,o),
(45,5,o),
(45,5,c),
(45,0,l)
);
}
);
width = 587;
}
);
metricLeft = "=B";
metricRight = "=B";
unicode = 3647;
userData = {
KernOnSpecialSpacing = {
L = symbols;
R = symbols;
};
};
},
{
color = 4;
glyphname = at;
kernLeft = KO_at;
kernRight = KO_at;
lastChange = "2024-05-29 13:53:59 +0000";
layers = (
{
layerId = m01;
shapes = (
{
closed = 1;
nodes = (
(696,-251,o),
(818,-215,o),
(902,-157,c),
(887,-132,l),
(794,-181,o),
(698,-205,o),
(598,-205,cs),
(338,-205,o),
(156,-19,o),
(156,245,cs),
(156,518,o),
(372,732,o),
(648,732,cs),
(883,732,o),
(1030,581,o),
(1030,341,cs),
(1030,162,o),
(947,35,o),
(828,35,cs),
(758,35,o),
(729,79,o),
(747,159,cs),
(830,521,l),
(813,521,l),
(743,473,l),
(731,473,l),
(658,154,ls),
(636,59,o),
(689,0,o),
(795,0,cs),
(992,0,o),
(1116,137,o),
(1116,353,cs),
(1116,602,o),
(923,777,o),
(649,777,cs),
(325,777,o),
(70,538,o),
(70,234,cs),
(70,-51,o),
(283,-251,o),
(586,-251,cs)
);
},
{
closed = 1;
nodes = (
(544,20,o),
(605,82,o),
(676,242,c),
(726,242,l),
(777,473,l),
(731,473,l),
(684,259,o),
(581,91,o),
(498,91,cs),
(466,91,o),
(450,117,o),
(450,168,cs),
(450,343,o),
(538,480,o),
(650,480,cs),
(716,480,o),
(753,425,o),
(753,328,c),
(786,476,l),
(750,508,o),
(708,524,o),
(661,524,cs),
(490,524,o),
(356,367,o),
(356,168,cs),
(356,77,o),
(395,20,o),
(457,20,cs)
);
}
);
width = 1186;
}
);
metricLeft = "=O*2";
metricRight = "=O*2";
unicode = 64;
userData = {
KernOnSpecialSpacing = {
L = symbols;
R = symbols;
};
};
},
{
color = 4;
glyphname = ampersand;
kernRight = KO_ampersand;
lastChange = "2024-07-03 09:06:33 +0000";
layers = (
{
layerId = m01;
name = Light;
shapes = (
{
closed = 1;
nodes = (
(718,-16,o),
(765,6,o),
(783,41,c),
(776,50,l),
(756,39,o),
(737,34,o),
(715,34,cs),
(677,34,o),
(641,54,o),
(607,94,cs),
(264,499,ls),
(234,535,o),
(224,556,o),
(224,585,cs),
(224,626,o),
(257,655,o),
(305,655,cs),
(399,655,o),
(434,590,o),
(448,530,c),
(454,530,l),
(527,650,l),
(468,683,o),
(382,706,o),
(319,706,cs),
(219,706,o),
(148,647,o),
(148,564,cs),
(148,513,o),
(167,472,o),
(215,416,cs),
(513,63,ls),
(559,8,o),
(604,-16,o),
(661,-16,cs)
);
},
{
closed = 1;
nodes = (
(379,-16,o),
(448,19,o),
(512,99,c),
(475,141,l),
(430,78,o),
(374,47,o),
(305,47,cs),
(204,47,o),
(133,120,o),
(133,225,cs),
(133,302,o),
(167,353,o),
(244,393,c),
(225,422,l),
(108,391,o),
(35,308,o),
(35,205,cs),
(35,75,o),
(139,-16,o),
(287,-16,cs)
);
},
{
closed = 1;
nodes = (
(576,201,o),
(605,278,o),
(620,367,c),
(542,369,l),
(539,278,o),
(527,225,o),
(501,175,c),
(538,140,l)
);
},
{
closed = 1;
nodes = (
(538,309,l),
(604,339,o),
(606,296,o),
(620,367,cs),
(630,416,o),
(656,438,o),
(656,438,c),
(656,442,l),
(502,442,l),
(502,437,l),
(502,437,o),
(546,405,o),
(540,332,cs)
);
}
);
width = 785;
}
);
metricLeft = "=O";
metricRight = "=V";
unicode = 38;
userData = {
KernOnSpecialSpacing = {
L = symbols;
R = symbols;
};
};
},
{
color = 4;
glyphname = paragraph;
lastChange = "2024-07-02 09:54:19 +0000";
layers = (
{
layerId = m01;
shapes = (
{
closed = 1;
nodes = (
(313,324,l),
(313,690,l),
(260,690,ls),
(122,690,o),
(35,624,o),
(35,517,cs),
(35,403,o),
(135,324,o),
(278,324,cs)
);
},
{
closed = 1;
nodes = (
(326,-107,l),
(326,690,l),
(278,690,l),
(278,-107,l)
);
},
{
closed = 1;
nodes = (
(467,-107,l),
(467,649,l),
(446,604,l),
(419,690,l),
(419,-107,l)
);
},
{
closed = 1;
nodes = (
(436,640,l),
(436,690,l),
(312,690,l),
(312,640,l)
);
},
{
closed = 1;
nodes = (
(467,580,l),
(467,653,o),
(507,686,o),
(507,686,c),
(507,690,l),
(419,690,l),
(419,580,l)
);
}
);
width = 552;
}
);
metricLeft = "=|P";
metricRight = "=|P";
unicode = 182;
userData = {
KernOnSpecialSpacing = {
L = NoKerning;
R = NoKerning;
};
};
},
{
color = 4;
glyphname = section;
lastChange = "2024-07-02 09:31:48 +0000";
layers = (
{
layerId = m01;
shapes = (
{
closed = 1;
nodes = (
(471,111,o),
(541,175,o),
(541,272,cs),
(541,366,o),
(471,424,o),
(311,463,cs),
(187,493,o),
(126,536,o),
(126,594,cs),
(126,671,o),
(188,720,o),
(288,720,cs),
(390,720,o),
(445,653,o),
(459,593,c),
(465,593,l),
(535,707,l),
(480,748,o),
(381,777,o),
(296,777,cs),
(136,777,o),
(35,698,o),
(35,573,cs),
(35,478,o),
(105,420,o),
(265,382,cs),
(389,352,o),
(450,309,o),
(450,251,cs),
(450,183,o),
(407,134,o),
(321,103,c),
(329,80,l)
);
},
{
closed = 1;
nodes = (
(441,-251,o),
(542,-172,o),
(542,-47,cs),
(542,48,o),
(472,106,o),
(312,144,cs),
(188,174,o),
(127,217,o),
(127,275,cs),
(127,343,o),
(170,392,o),
(256,423,c),
(248,446,l),
(106,415,o),
(36,351,o),
(36,254,cs),
(36,160,o),
(106,102,o),
(266,63,cs),
(390,33,o),
(451,-10,o),
(451,-68,cs),
(451,-145,o),
(389,-194,o),
(289,-194,cs),
(187,-194,o),
(132,-127,o),
(118,-67,c),
(112,-67,l),
(42,-181,l),
(97,-222,o),
(196,-251,o),
(281,-251,cs)
);
}
);
width = 577;
}
);
metricLeft = "=S";
metricRight = "=S";
unicode = 167;
userData = {
KernOnSpecialSpacing = {
R = symbols;
};
};
},
{
color = 4;
glyphname = copyright;
lastChange = "2024-05-29 13:53:59 +0000";
layers = (
{
layerId = m01;
shapes = (
{
closed = 1;
nodes = (
(631,-16,o),
(799,143,o),
(799,346,cs),
(799,548,o),
(631,706,o),
(417,706,cs),
(203,706,o),
(35,547,o),
(35,344,cs),
(35,142,o),
(203,-16,o),
(417,-16,cs)
);
},
{
pos = (172,135);
ref = c;
scale = (0.8706,0.8706);
},
{
closed = 1;
nodes = (
(231,34,o),
(85,170,o),
(85,344,cs),
(85,519,o),
(231,656,o),
(417,656,cs),
(603,656,o),
(749,520,o),
(749,346,cs),
(749,171,o),
(603,34,o),
(417,34,cs)
);
}
);
width = 834;
}
);
metricLeft = "=O";
metricRight = "=O";
unicode = 169;
userData = {
KernOnSpecialSpacing = {
R = symbols;
};
};
},
